<svg width="452" height="303" viewBox="0 0 452 303" fill="none" xmlns="http://www.w3.org/2000/svg">
<path d="M450.831 203.659C449.66 197.102 446.717 191.083 442.266 185.679C430.855 171.83 428.074 152.638 435.622 136.358C445.759 114.495 448.361 91.7375 441.554 70.4441C421.953 9.13787 331.783 -16.8118 240.151 12.4835C230.92 15.4347 222.028 18.8338 213.519 22.624C183.041 36.1993 148.789 37.9223 116.8 28.4422C83.5107 18.5763 51.1724 24.1497 33.1133 46.0959C18.5885 63.747 16.2357 88.4242 24.2419 113.416C28.0533 125.313 25.2925 138.426 16.6012 147.401C9.48759 154.747 4.57204 163.232 2.32889 172.724C-9.01861 220.726 23.0434 273.122 139.17 296.843C184.211 306.044 297.075 302.194 327.263 296.8C402.304 283.392 457.627 241.691 450.831 203.659Z" fill="#FFF8EA"/>
</svg>
