<svg width="69" height="53" viewBox="0 0 69 53" fill="none" xmlns="http://www.w3.org/2000/svg">
<path d="M57.5645 52.6382H11.2327C5.14162 52.6382 0.203125 47.7005 0.203125 41.6086V11.7634C0.203125 5.67227 5.14077 0.734619 11.2327 0.734619H57.5645C63.6556 0.734619 68.5941 5.67226 68.5941 11.216V41.0612C68.5933 47.6997 63.6556 52.6382 57.5645 52.6382Z" fill="#81CBFF"/>
<path d="M6.41406 18.6731L6.56366 35.2056L32.9919 42.7629L32.912 24.7582L6.41406 18.6731Z" fill="#F1B372"/>
<path d="M6.41406 18.6731L34.4003 13.1167L62.775 17.0003L32.8261 24.9206L6.41406 18.6731Z" fill="#FDDE9A"/>
<path d="M32.9891 42.7622L62.7833 32.8282L62.7731 16.9995L32.8242 24.9198L32.9891 42.7622Z" fill="#E2994B"/>
<mask id="mask0_53750_7281" style="mask-type:luminance" maskUnits="userSpaceOnUse" x="6" y="13" width="57" height="30">
<path d="M62.775 17.0003L34.4012 13.1167L6.41491 18.6731L6.45231 18.6816L6.41406 18.6731L6.56366 35.2057L32.9919 42.763L62.7861 32.8291L62.775 17.0003Z" fill="white"/>
</mask>
<g mask="url(#mask0_53750_7281)">
<path d="M40.2795 44.0681L39.5757 23.5321L6.46484 16.3623L6.64504 15.5327L40.4019 22.8419L41.1287 44.0383L40.2795 44.0681Z" fill="white"/>
</g>
<mask id="mask1_53750_7281" style="mask-type:luminance" maskUnits="userSpaceOnUse" x="6" y="13" width="57" height="30">
<path d="M62.775 17.0003L34.4012 13.1167L6.41491 18.6731L6.45231 18.6816L6.41406 18.6731L6.56366 35.2057L32.9919 42.763L62.7861 32.8291L62.775 17.0003Z" fill="white"/>
</mask>
<g mask="url(#mask1_53750_7281)">
<path d="M32.9677 38.1621L3.94531 29.804L4.88626 26.5367L32.8946 34.6031L65.2567 23.8201L66.3319 27.0458L32.9677 38.1621Z" fill="white"/>
</g>
<mask id="mask2_53750_7281" style="mask-type:luminance" maskUnits="userSpaceOnUse" x="6" y="13" width="57" height="30">
<path d="M62.775 17.0003L34.4012 13.1167L6.41491 18.6731L6.45231 18.6816L6.41406 18.6731L6.56366 35.2057L32.9919 42.763L62.7861 32.8291L62.775 17.0003Z" fill="white"/>
</mask>
<g mask="url(#mask2_53750_7281)">
<path d="M44.0095 42.6797L43.6253 22.1505L10.5195 14.9807L10.6997 14.1511L44.4626 21.462L44.8595 42.6635L44.0095 42.6797Z" fill="white"/>
</g>
</svg>
