<svg width="68" height="68" viewBox="0 0 68 68" fill="none" xmlns="http://www.w3.org/2000/svg">
<path d="M55.3042 67.1052H13.1552C6.31272 67.1052 0.765625 61.5581 0.765625 54.7156V12.5666C0.765625 5.72411 6.31272 0.177002 13.1552 0.177002H55.3042C62.1467 0.177002 67.6938 5.72411 67.6938 12.5666V54.7156C67.6938 61.5581 62.1467 67.1052 55.3042 67.1052Z" fill="#FED272"/>
<path d="M46.6635 37.6545H22.9179C18.4163 37.6545 14.565 34.7305 13.7855 30.7211L11.8008 20.51H49.9964L46.6635 37.6545Z" fill="white"/>
<mask id="mask0_51354_787" style="mask-type:luminance" maskUnits="userSpaceOnUse" x="11" y="20" width="39" height="18">
<path d="M46.6635 37.6545H22.9179C18.4163 37.6545 14.565 34.7305 13.7855 30.7211L11.8008 20.51H49.9964L46.6635 37.6545Z" fill="white"/>
</mask>
<g mask="url(#mask0_51354_787)">
<path d="M41.7188 44.1161C41.6941 44.1161 41.6686 44.1136 41.6431 44.1093C41.4128 44.0677 41.2581 43.8467 41.2997 43.6163L46.2637 15.9361C46.3054 15.7057 46.5247 15.5502 46.7576 15.5927C46.9879 15.6343 47.1426 15.8553 47.101 16.0865L42.137 43.7659C42.1004 43.9716 41.9211 44.1161 41.7188 44.1161Z" fill="#68BCBC"/>
<path d="M35.6055 44.1161C35.5809 44.1161 35.5554 44.1136 35.5299 44.1093C35.2995 44.0677 35.1448 43.8467 35.1865 43.6163L40.1505 15.9361C40.1913 15.7057 40.414 15.5502 40.6435 15.5927C40.8738 15.6343 41.0285 15.8553 40.9869 16.0865L36.0229 43.7659C35.9863 43.9716 35.8078 44.1161 35.6055 44.1161Z" fill="#68BCBC"/>
<path d="M29.4884 44.1161C29.4637 44.1161 29.4382 44.1136 29.4127 44.1093C29.1815 44.0677 29.0277 43.8467 29.0693 43.6163L34.0333 15.9361C34.0741 15.7057 34.2951 15.5502 34.5263 15.5927C34.7567 15.6343 34.9114 15.8553 34.8697 16.0865L29.9057 43.7659C29.8692 43.9716 29.6907 44.1161 29.4884 44.1161Z" fill="#68BCBC"/>
<path d="M23.375 44.1161C23.3504 44.1161 23.3249 44.1136 23.2994 44.1093C23.0691 44.0677 22.9143 43.8467 22.956 43.6163L27.92 15.9361C27.9616 15.7057 28.1801 15.5502 28.413 15.5927C28.6434 15.6343 28.7981 15.8553 28.7564 16.0865L23.7924 43.7659C23.7558 43.9716 23.5773 44.1161 23.375 44.1161Z" fill="#68BCBC"/>
<path d="M17.2657 44.1161C17.241 44.1161 17.2155 44.1136 17.19 44.1093C16.9597 44.0677 16.805 43.8467 16.8466 43.6163L21.8106 15.9361C21.8514 15.7057 22.0733 15.5502 22.3036 15.5927C22.534 15.6343 22.6887 15.8553 22.647 16.0865L17.683 43.7659C17.6465 43.9716 17.468 44.1161 17.2657 44.1161Z" fill="#68BCBC"/>
<path d="M11.1524 44.1161C11.1277 44.1161 11.1022 44.1136 11.0767 44.1093C10.8464 44.0677 10.6917 43.8467 10.7333 43.6163L15.6973 15.9361C15.739 15.7057 15.9574 15.5502 16.1903 15.5927C16.4215 15.6343 16.5754 15.8553 16.5337 16.0865L11.5697 43.7659C11.5332 43.9716 11.3547 44.1161 11.1524 44.1161Z" fill="#68BCBC"/>
</g>
<path d="M45.4287 47.591C45.3811 47.591 45.3327 47.5868 45.2842 47.5783C44.8218 47.4992 44.5107 47.0598 44.5906 46.5974L49.5487 17.711C49.6184 17.303 49.972 17.0046 50.3859 17.0046H56.8748C57.344 17.0046 57.7248 17.3854 57.7248 17.8546C57.7248 18.3238 57.344 18.7046 56.8748 18.7046H51.1025L46.266 46.8847C46.1946 47.2986 45.835 47.591 45.4287 47.591Z" fill="white"/>
<path d="M22.0648 47.5972C21.5956 47.5972 21.2148 47.2172 21.2148 46.7472C21.2148 46.278 21.5948 45.8972 22.064 45.8972L45.4296 45.887C45.8988 45.887 46.2805 46.2669 46.2805 46.737C46.2805 47.2062 45.9005 47.587 45.4305 47.587L22.0648 47.5972Z" fill="white"/>
<path d="M22.0905 53.7942C23.8232 53.7942 25.2278 52.3896 25.2278 50.6569C25.2278 48.9242 23.8232 47.5195 22.0905 47.5195C20.3578 47.5195 18.9531 48.9242 18.9531 50.6569C18.9531 52.3896 20.3578 53.7942 22.0905 53.7942Z" fill="white"/>
<path d="M45.6764 53.7942C47.4091 53.7942 48.8138 52.3896 48.8138 50.6569C48.8138 48.9242 47.4091 47.5195 45.6764 47.5195C43.9437 47.5195 42.5391 48.9242 42.5391 50.6569C42.5391 52.3896 43.9437 53.7942 45.6764 53.7942Z" fill="white"/>
</svg>
