<svg width="55" height="56" viewBox="0 0 55 56" fill="none" xmlns="http://www.w3.org/2000/svg">
<path d="M44.7522 55.0544H10.266C4.6679 55.0544 0.128906 50.5162 0.128906 44.9172V10.4311C0.128906 4.83295 4.66705 0.293945 10.266 0.293945H44.7522C50.3512 0.293945 54.8893 4.8321 54.8893 10.4311V44.9172C54.8893 50.5153 50.3503 55.0544 44.7522 55.0544Z" fill="#52C6C6"/>
<path d="M38.2154 37.3315L33.8072 40.581C31.066 42.593 27.2231 42.4459 23.5724 40.57C21.2553 39.3774 19.0172 37.4845 17.1914 35.0084C14.2581 31.0236 13.0885 26.4685 13.7217 22.8067C14.0949 20.6077 15.1234 18.7258 16.8021 17.4882L21.2102 14.2446L22.5779 16.0985L23.2392 16.9969L34.9207 32.8554L36.8536 35.4776L38.2154 37.3315Z" fill="#FFA901"/>
<mask id="mask0_51354_787" style="mask-type:luminance" maskUnits="userSpaceOnUse" x="13" y="14" width="26" height="29">
<path d="M38.2154 37.3315L33.8072 40.581C31.066 42.593 27.2231 42.4459 23.5724 40.57C21.2553 39.3774 19.0172 37.4845 17.1914 35.0084C14.2581 31.0236 13.0885 26.4685 13.7217 22.8067C14.0949 20.6077 15.1234 18.7258 16.8021 17.4882L21.2102 14.2446L22.5779 16.0985L23.2392 16.9969L34.9207 32.8554L36.8536 35.4776L38.2154 37.3315Z" fill="white"/>
</mask>
<g mask="url(#mask0_51354_787)">
<path d="M14.7753 56.2325L14.3945 55.7216L37.8936 38.2932L38.2736 38.8041L14.7753 56.2325Z" fill="#8A5703"/>
<path d="M13.3339 50.9726L12.9531 50.4609L36.4522 33.0325L36.8322 33.5442L13.3339 50.9726Z" fill="#8A5703"/>
<path d="M34.9976 27.7418L11.5195 45.199L11.8999 45.7106L35.378 28.2534L34.9976 27.7418Z" fill="#8A5703"/>
<path d="M33.5484 22.4813L10.0703 39.9385L10.4507 40.4501L33.9288 22.9929L33.5484 22.4813Z" fill="#8A5703"/>
<path d="M32.1067 17.2352L8.625 34.6899L9.00533 35.2016L32.487 17.7469L32.1067 17.2352Z" fill="#8A5703"/>
<path d="M30.6434 11.9882L7.16016 29.436L7.54036 29.9478L31.0236 12.4999L30.6434 11.9882Z" fill="#8A5703"/>
<path d="M29.1724 6.73986L5.67969 24.1736L6.05957 24.6855L29.5522 7.25177L29.1724 6.73986Z" fill="#8A5703"/>
</g>
<path opacity="0.5" d="M38.2172 37.3323L33.8091 40.5819C31.0678 42.5938 27.225 42.4468 23.5742 40.5708L34.9226 32.8562L36.8555 35.4784L38.2172 37.3323Z" fill="#8A5703"/>
<path opacity="0.5" d="M23.2362 16.9969C21.7155 17.9914 16.9122 20.8848 13.7188 22.8067C14.0919 20.6077 15.1204 18.7258 16.7991 17.4882L21.2072 14.2446L22.5749 16.0985L23.2362 16.9969Z" fill="white"/>
<path d="M38.2404 37.3199C42.7203 34.02 42.5448 26.1761 37.8483 19.8001C33.1519 13.4241 25.7128 10.9304 21.2329 14.2303C16.7529 17.5302 16.9284 25.3741 21.6248 31.7501C26.3213 38.1261 33.7604 40.6198 38.2404 37.3199Z" fill="#FFC64F"/>
<path d="M33.5182 37.8328C29.8114 37.8328 25.4704 35.4018 22.3747 31.1977C20.2709 28.3409 19.0427 25.0981 18.9169 22.0653C18.7894 18.9866 19.8094 16.4868 21.7899 15.029C23.7721 13.5696 26.4606 13.3375 29.3625 14.372C32.2211 15.392 34.9538 17.5263 37.0584 20.3832C39.163 23.2392 40.3904 26.4828 40.5162 29.5156C40.6437 32.5943 39.6237 35.0941 37.6432 36.5519C36.4617 37.4197 35.044 37.832 33.5182 37.8328ZM25.9294 14.3737C24.5056 14.3737 23.2213 14.7655 22.1673 15.5416C20.3627 16.871 19.4337 19.1779 19.5527 22.039C19.6742 24.946 20.8574 28.0646 22.8872 30.8195C27.0497 36.4703 33.4987 38.8103 37.2642 36.0385C39.0687 34.7099 39.9977 32.4022 39.8787 29.5411C39.7572 26.6341 38.574 23.5154 36.5442 20.7606C34.5144 18.0057 31.887 15.9496 29.1475 14.9721C28.0263 14.5717 26.9417 14.3737 25.9294 14.3737Z" fill="#8A5703"/>
<mask id="mask1_51354_787" style="mask-type:luminance" maskUnits="userSpaceOnUse" x="21" y="13" width="17" height="25">
<path d="M29.8358 37.0549L21.8594 18.2852L29.874 13.8423L37.8504 32.612L29.8358 37.0549Z" fill="white"/>
</mask>
<g mask="url(#mask1_51354_787)">
<path d="M27.5518 18.0792L27.7975 18.658L26.3907 19.4383L26.1612 18.8977C24.6406 20.1948 24.015 22.3802 24.7689 24.1558C25.2109 25.1954 26.0813 25.951 27.1506 26.2222C27.8825 26.4143 28.6543 26.3718 29.3181 26.1159L29.4643 26.0581C30.3679 25.7113 31.2196 25.3815 32.186 25.5736C33.1236 25.7589 33.8614 26.3794 34.2176 27.266C34.5074 27.9995 34.5065 28.8878 34.2082 29.7046C33.9438 30.4373 33.4389 31.108 32.7827 31.584C32.645 31.6851 32.5022 31.7769 32.3569 31.8577C31.7772 32.179 31.1448 32.3345 30.5388 32.3014C29.7202 32.258 28.956 31.8645 28.4443 31.2244L28.3925 31.1522C28.293 31.0298 28.1987 30.9099 28.0822 30.8623C28.004 30.8283 27.908 30.8411 27.8213 30.8887C27.7346 30.9363 27.6717 31.0128 27.6445 31.0995C27.551 31.3825 27.7728 31.703 27.9105 31.8636C28.5293 32.5921 29.4244 33.0553 30.3619 33.1395C30.9374 33.1905 31.5333 33.0995 32.1036 32.8845L31.8426 32.2708L33.2494 31.4913L33.4908 32.06C34.0178 31.6112 34.4445 31.0519 34.7369 30.4237C35.1338 29.5882 35.2724 28.6464 35.1347 27.77C35.014 26.9846 34.6595 26.2511 34.1419 25.7096C33.3539 24.8851 32.1452 24.5247 30.9119 24.7474C30.5158 24.8188 30.1307 24.9548 29.7635 25.0823L29.7262 24.9438L29.7508 25.09C29.1014 25.3195 28.4333 25.5541 27.7014 25.4623C26.6865 25.3322 25.8476 24.7015 25.4549 23.7767C24.7621 22.1473 25.5713 20.0588 27.2543 19.1264C28.7435 18.301 30.4988 18.6546 31.3343 19.9432C31.4525 20.1209 31.6497 20.1829 31.818 20.0894C31.9175 20.0342 31.9897 19.9288 32.0177 19.8072C32.05 19.6831 32.0271 19.5531 31.9608 19.4477C31.0343 17.9984 29.2246 17.4697 27.5518 18.0792Z" fill="#8A5703"/>
<path d="M26.0454 18.6246C24.3972 20.0025 23.7172 22.3689 24.5323 24.2873C25.0092 25.4085 25.94 26.2185 27.0883 26.5118C27.8669 26.7132 28.6872 26.6733 29.4012 26.3962L29.5474 26.3384C30.4186 26.0035 31.238 25.6856 32.1365 25.8683C32.9865 26.0366 33.6563 26.5951 33.9725 27.3907C34.2385 28.0545 34.2351 28.8612 33.9665 29.5964C33.7225 30.2764 33.2534 30.8918 32.6465 31.3347C32.5181 31.4282 32.3855 31.5132 32.2503 31.588C31.708 31.888 31.1207 32.0351 30.5563 32.0019C29.8083 31.9611 29.1113 31.6007 28.6455 31.0185L28.5936 30.959C28.4831 30.8128 28.3565 30.6521 28.1772 30.5799C28.031 30.5246 27.8601 30.5365 27.713 30.6181L27.7088 30.6207C27.5575 30.704 27.4461 30.8434 27.3917 31.004C27.2914 31.3321 27.4054 31.701 27.7182 32.0725C28.3786 32.8485 29.3357 33.3432 30.3387 33.4325C30.9592 33.4886 31.6044 33.3908 32.2206 33.1545L32.1059 32.8851C31.5355 33.1001 30.9397 33.1911 30.3642 33.1401C29.4275 33.0559 28.5316 32.5927 27.9128 31.8642C27.7751 31.7036 27.5532 31.3823 27.6467 31.1001C27.6739 31.0142 27.7377 30.9377 27.8235 30.8893C27.9102 30.8417 28.0063 30.8298 28.0845 30.8629C28.2009 30.9105 28.2944 31.0304 28.3947 31.1528L28.4466 31.225C28.9583 31.8651 29.7233 32.2578 30.541 32.302C31.1479 32.3351 31.7794 32.1796 32.3591 31.8583C32.5045 31.7775 32.6473 31.6866 32.785 31.5846C33.4412 31.1086 33.9453 30.4379 34.2105 29.7052C34.5088 28.8884 34.5097 28.0001 34.2198 27.2666C33.8645 26.38 33.1259 25.7595 32.1883 25.5742C31.221 25.3821 30.3693 25.7119 29.4666 26.0587L29.3204 26.1165C28.6557 26.3724 27.8847 26.4149 27.1529 26.2228C26.0827 25.9516 25.2132 25.196 24.7712 24.1564C24.0164 22.3808 24.6428 20.1954 26.1635 18.8983L26.0454 18.6246ZM27.4359 17.8069L27.5515 18.0798C29.2243 17.4695 31.0331 17.999 31.9613 19.4466C32.0276 19.552 32.0506 19.6812 32.0183 19.8061C31.9902 19.9285 31.9172 20.0339 31.8186 20.0883C31.6503 20.1818 31.453 20.1189 31.3349 19.9421C30.4993 18.6527 28.7441 18.2999 27.2549 19.1253C25.5719 20.0586 24.7627 22.1462 25.4554 23.7756C25.8481 24.7004 26.6871 25.3311 27.702 25.4612C28.4338 25.553 29.1028 25.3184 29.7513 25.0889L29.7267 24.9427L29.7641 25.0812C30.1313 24.9546 30.5164 24.8186 30.9125 24.7463C32.1458 24.5245 33.3545 24.884 34.1425 25.7085C34.661 26.25 35.0145 26.9835 35.1352 27.7689C35.2729 28.6461 35.1344 29.5871 34.7375 30.4226C34.4459 31.0508 34.0192 31.6101 33.4914 32.0589L33.607 32.3309C34.1841 31.8472 34.6541 31.242 34.9754 30.5569C35.3945 29.661 35.5458 28.6487 35.3979 27.7111C35.2611 26.8628 34.8828 26.0723 34.3252 25.4875C33.4811 24.6052 32.19 24.2142 30.8725 24.4531C30.4594 24.5219 30.0659 24.663 29.6859 24.7973L29.6774 24.8024C29.0238 25.0345 28.4117 25.2495 27.7394 25.1603C26.8154 25.0447 26.0505 24.4743 25.696 23.6405C25.0645 22.1547 25.8116 20.249 27.3654 19.3879C28.7424 18.6246 30.3532 18.9391 31.1165 20.1206C31.3086 20.4105 31.6486 20.5065 31.9291 20.351C32.1016 20.2549 32.2266 20.0849 32.2759 19.8741C32.3252 19.6633 32.2886 19.4406 32.1773 19.2655C31.1607 17.6811 29.2405 17.1201 27.4359 17.8069Z" fill="#8A5703"/>
<path d="M33.2505 31.4905L31.8438 32.2699L32.1047 32.8836L32.2195 33.1531L32.7754 34.4604C32.959 34.8913 33.4222 35.0673 33.8107 34.8514C34.1991 34.6363 34.3657 34.1119 34.1821 33.6801L33.6092 32.3311L33.4936 32.0591L33.2505 31.4905Z" fill="#8A5703"/>
<path d="M25.8368 16.0812C25.4483 16.2962 25.2817 16.8207 25.4653 17.2525L26.0484 18.6244L26.1649 18.8972L26.3944 19.4378L27.8012 18.6575L27.5555 18.0787L27.4399 17.8058L26.8729 16.4722C26.6893 16.0412 26.2252 15.8661 25.8368 16.0812Z" fill="#8A5703"/>
</g>
</svg>
