<svg width="303" height="213" viewBox="0 0 303 213" fill="none" xmlns="http://www.w3.org/2000/svg">
<path d="M175.082 194.799H126.062L130.874 161.77L131.593 156.831L132.209 152.567L134.152 139.221H166.993L168.653 150.641L170.648 164.331L171.316 168.936L175.082 194.799Z" fill="#006E7E"/>
<path d="M170.649 164.331L130.875 161.771L131.594 156.831L132.21 152.568L168.654 150.642L170.649 164.331Z" fill="#171C4F"/>
<path d="M266.779 9.12327V153.118C266.779 156.603 263.954 159.436 260.461 159.436H41.9509C38.4582 159.436 35.6328 156.603 35.6328 153.118V9.12327C35.6328 5.63912 38.4582 2.81372 41.9509 2.81372H260.461C263.954 2.81372 266.779 5.63912 266.779 9.12327Z" fill="#171C4F"/>
<path d="M261.724 8.03003H40.6836V128.951H261.724V8.03003Z" fill="#FCFAF5"/>
<path d="M260.462 159.434H41.9483C38.4599 159.434 35.6328 156.606 35.6328 153.118V136.698H266.778V153.118C266.778 156.607 263.95 159.434 260.462 159.434Z" fill="#006E7E"/>
<path d="M196.044 209.958H105.102L126.019 194.801H175.126L196.044 209.958Z" fill="#006E7E"/>
<path d="M193.518 212.483H107.628C106.233 212.483 105.102 211.352 105.102 209.957H196.044C196.044 211.352 194.913 212.483 193.518 212.483Z" fill="#6784D0"/>
<path d="M93.4024 72.8124H75.5804C74.6471 72.8124 73.8906 72.0559 73.8906 71.1226V53.3006C73.8906 52.3673 74.6471 51.6108 75.5804 51.6108H93.4024C94.3357 51.6108 95.0922 52.3673 95.0922 53.3006V71.1226C95.0922 72.0559 94.3357 72.8124 93.4024 72.8124Z" fill="white"/>
<path d="M93.4024 97.2953H75.5804C74.6471 97.2953 73.8906 96.5388 73.8906 95.6055V77.7836C73.8906 76.8503 74.6471 76.0938 75.5804 76.0938H93.4024C94.3357 76.0938 95.0922 76.8503 95.0922 77.7836V95.6055C95.0922 96.5388 94.3357 97.2953 93.4024 97.2953Z" fill="white"/>
<path d="M93.4024 121.777H75.5804C74.6471 121.777 73.8906 121.02 73.8906 120.087V102.265C73.8906 101.332 74.6471 100.575 75.5804 100.575H93.4024C94.3357 100.575 95.0922 101.332 95.0922 102.265V120.087C95.0922 121.02 94.3357 121.777 93.4024 121.777Z" fill="white"/>
<path d="M91.9441 70.1378H87.8785C87.8624 69.5845 87.8522 69.0294 87.8462 68.4761C87.8403 68.1429 87.8377 67.8122 87.836 67.4799L87.8343 67.1535L87.8224 65.6889L87.8241 63.898C87.8386 62.8304 87.7366 61.7619 87.5462 60.6986C87.4561 60.1639 87.3379 59.6573 87.1968 59.0504C87.0659 58.4648 86.9452 57.8783 86.8398 57.2841L89.2615 56.2573C89.5207 56.8005 89.8718 57.5578 90.1089 58.1069C90.2296 58.3883 90.3376 58.6416 90.4625 58.9586C90.579 59.2646 90.6869 59.5732 90.7872 59.886C91.1791 61.138 91.4162 62.4428 91.5199 63.7594L91.6568 65.5444L91.7792 67.3311C91.8438 68.2653 91.899 69.2011 91.9441 70.1378Z" fill="#FDD172"/>
<path d="M77.0352 70.137H81.1007C81.1254 69.2504 81.1398 68.3647 81.1432 67.4782L81.1577 65.6872L81.156 63.8963C81.1415 62.8287 81.2435 61.7602 81.4339 60.6969C81.524 60.1622 81.6422 59.6556 81.7833 59.0487C81.9142 58.4631 82.0349 57.8766 82.1403 57.2824L79.7186 56.2556C79.4594 56.7988 79.1083 57.5561 78.8712 58.1052C78.7505 58.3866 78.6425 58.6399 78.5176 58.9569C78.4011 59.2629 78.2932 59.5715 78.1929 59.8843C77.801 61.1363 77.5639 62.4411 77.4602 63.7577L77.3233 65.5427L77.2009 67.3294C77.1355 68.2644 77.0802 69.2003 77.0352 70.137Z" fill="#FDD172"/>
<path d="M81.0047 68.7912H77.0896C77.0598 68.7912 77.0352 68.7665 77.0352 68.7368C77.0352 68.707 77.0598 68.6824 77.0896 68.6824H81.0047C81.0344 68.6824 81.0591 68.707 81.0591 68.7368C81.0591 68.7665 81.0344 68.7912 81.0047 68.7912Z" fill="#E2994B"/>
<path d="M91.825 68.7912H87.9099C87.8801 68.7912 87.8555 68.7665 87.8555 68.7368C87.8555 68.707 87.8801 68.6824 87.9099 68.6824H91.825C91.8547 68.6824 91.8794 68.707 91.8794 68.7368C91.8794 68.7665 91.8547 68.7912 91.825 68.7912Z" fill="#E2994B"/>
<path d="M81.1335 68.6636C81.1335 68.6491 80.2656 67.2747 80.2656 67.2747L81.1479 67.1565L81.1335 68.6636Z" fill="#171C4F"/>
<path d="M88.7325 67.2746C88.7325 67.2746 87.8664 68.6491 87.8664 68.6635L87.84 68.4757C87.8341 68.1425 87.8315 67.8118 87.8298 67.4795L87.8281 67.1531L88.7325 67.2746Z" fill="#171C4F"/>
<path d="M84.5007 55.093C82.9562 55.093 81.4313 55.4398 80.039 56.1088L79.7305 56.2567L80.2643 67.3908H88.7354L89.27 56.2567L88.9615 56.1088C87.5692 55.4398 86.0451 55.093 84.5007 55.093Z" fill="#FDD172"/>
<path d="M86.6836 55.4214L86.364 57.9476L84.7031 56.245L85.9169 54.2866L86.6836 55.4214Z" fill="#E2994B"/>
<path d="M84.7021 56.245L83.4883 54.2866H85.9159L84.7021 56.245Z" fill="#171C4F"/>
<path d="M82.7266 55.4214L83.0462 57.9476L84.7071 56.245L83.4933 54.2866L82.7266 55.4214Z" fill="#E2994B"/>
<path d="M80.4689 67.4438C80.44 67.4438 80.4162 67.4209 80.4145 67.392L80.0431 59.249C80.0414 59.2192 80.0652 59.1937 80.0949 59.192C80.1281 59.1869 80.1502 59.2141 80.1519 59.2439L80.5233 67.386C80.525 67.4158 80.5012 67.4413 80.4715 67.443L80.4689 67.4438Z" fill="#E2994B"/>
<path d="M88.9451 67.4452H88.9426C88.9128 67.4435 88.889 67.418 88.8907 67.3883L89.2817 59.2453C89.2834 59.2155 89.3064 59.19 89.3387 59.1934C89.3684 59.1951 89.3922 59.2206 89.3905 59.2504L88.9995 67.3925C88.9978 67.4231 88.974 67.4452 88.9451 67.4452Z" fill="#E2994B"/>
<path d="M84.7028 67.4456C84.6731 67.4456 84.6484 67.421 84.6484 67.3912V56.246C84.6484 56.2163 84.6731 56.1917 84.7028 56.1917C84.7326 56.1917 84.7572 56.2163 84.7572 56.246V67.3912C84.7572 67.4218 84.7326 67.4456 84.7028 67.4456Z" fill="#E2994B"/>
<path d="M83.8902 82.4158V86.6029L82.5192 89.2328C81.9089 90.4032 80.8565 91.2821 79.596 91.674L77.8034 92.2316C77.4744 92.3336 77.25 92.6379 77.25 92.983H81.5221H84.9578L87.7067 88.9769L88.3357 92.983H89.7348V88.189V87.9773V82.4166L83.8902 82.4158Z" fill="#171C4F"/>
<path d="M221.795 64.9965H204.148C201.844 64.9965 199.969 63.1214 199.969 60.8179C199.969 60.3317 200.054 59.8531 200.22 59.3967C200.261 59.2743 200.316 59.1442 200.378 59.0201C200.575 58.5977 200.85 58.2058 201.192 57.8633C201.982 57.0745 203.031 56.6401 204.148 56.6401H221.795C223.426 56.6401 224.872 57.5556 225.568 59.0286C225.627 59.1459 225.684 59.276 225.726 59.4069C225.889 59.8548 225.974 60.3334 225.974 60.8196C225.974 61.9365 225.538 62.9862 224.75 63.775C223.961 64.5621 222.911 64.9965 221.795 64.9965ZM204.148 57.2768C203.202 57.2768 202.312 57.6448 201.643 58.3138C201.354 58.6036 201.121 58.9343 200.951 59.2981C200.898 59.4035 200.855 59.5055 200.821 59.6075C200.678 60.0019 200.606 60.4065 200.606 60.8179C200.606 62.7703 202.195 64.359 204.148 64.359H221.795C222.74 64.359 223.63 63.9901 224.298 63.322C224.967 62.653 225.336 61.7639 225.336 60.8179C225.336 60.4065 225.265 60.0019 225.124 59.6151C225.087 59.5046 225.044 59.4035 224.995 59.3074C224.402 58.052 223.177 57.2768 221.795 57.2768H204.148Z" fill="white"/>
<path d="M210.805 63.0258L212.161 63.6608L212.259 63.7075L212.267 63.7109C212.623 63.8053 213.186 63.3352 213.713 62.5541C213.91 62.26 214.103 61.9208 214.278 61.5519C214.566 60.945 214.758 60.3534 214.846 59.8579C214.96 59.2059 214.891 58.7239 214.619 58.5964L213.215 57.9309C213.215 57.9309 213.007 58.3763 212.714 59.0045C212.381 59.7134 211.939 60.6526 211.564 61.4448C211.148 62.3246 210.816 63.0233 210.805 63.0258Z" fill="#FFA901"/>
<mask id="mask0_53750_7282" style="mask-type:luminance" maskUnits="userSpaceOnUse" x="210" y="57" width="5" height="7">
<path d="M210.805 63.0258L212.161 63.6608L212.259 63.7075L212.267 63.7109C212.623 63.8053 213.186 63.3352 213.713 62.5541C213.91 62.26 214.103 61.9208 214.278 61.5519C214.566 60.945 214.758 60.3534 214.846 59.8579C214.96 59.2059 214.891 58.7239 214.619 58.5964L213.215 57.9309C213.215 57.9309 213.007 58.3763 212.714 59.0045C212.381 59.7134 211.939 60.6526 211.564 61.4448C211.148 62.3246 210.816 63.0233 210.805 63.0258Z" fill="white"/>
</mask>
<g mask="url(#mask0_53750_7282)">
<path d="M215.705 66.3719C215.673 66.3719 215.641 66.3651 215.611 66.3498L209.942 63.5371C209.837 63.4844 209.794 63.3578 209.847 63.2524C209.899 63.1478 210.026 63.1053 210.131 63.1563L215.8 65.969C215.905 66.0208 215.948 66.1483 215.895 66.2537C215.858 66.3285 215.782 66.3719 215.705 66.3719Z" fill="#8A5703"/>
<path d="M215.81 65.1951C215.779 65.1951 215.747 65.1883 215.716 65.173L210.047 62.3604C209.943 62.3085 209.899 62.181 209.952 62.0756C210.003 61.9711 210.131 61.9286 210.237 61.9796L215.906 64.7922C216.01 64.8441 216.053 64.9716 216.001 65.077C215.963 65.1526 215.888 65.1951 215.81 65.1951Z" fill="#8A5703"/>
<path d="M215.92 64.0213C215.888 64.0213 215.856 64.0145 215.825 63.9992L210.157 61.1865C210.052 61.1347 210.009 61.0072 210.062 60.9018C210.113 60.7981 210.24 60.7555 210.346 60.8057L216.015 63.6184C216.119 63.6711 216.163 63.7986 216.11 63.9031C216.074 63.9779 215.998 64.0213 215.92 64.0213Z" fill="#8A5703"/>
<path d="M216.025 62.8452C215.994 62.8452 215.961 62.8384 215.931 62.8231L210.262 60.0104C210.158 59.9586 210.114 59.8311 210.167 59.7257C210.219 59.6203 210.346 59.5786 210.452 59.6296L216.12 62.4423C216.225 62.495 216.268 62.6216 216.216 62.727C216.178 62.8018 216.103 62.8452 216.025 62.8452Z" fill="#8A5703"/>
<path d="M216.131 61.6691C216.099 61.6691 216.067 61.6623 216.036 61.647L210.368 58.8344C210.263 58.7817 210.22 58.6542 210.272 58.5488C210.324 58.4442 210.452 58.4017 210.557 58.4527L216.226 61.2654C216.33 61.3181 216.374 61.4456 216.321 61.551C216.285 61.6258 216.209 61.6691 216.131 61.6691Z" fill="#8A5703"/>
<path d="M216.244 60.494C216.212 60.494 216.18 60.4872 216.15 60.4719L210.481 57.6593C210.376 57.6066 210.333 57.4791 210.386 57.3737C210.438 57.2692 210.565 57.2267 210.67 57.2777L216.339 60.0903C216.444 60.143 216.487 60.2697 216.434 60.3759C216.398 60.4507 216.322 60.494 216.244 60.494Z" fill="#8A5703"/>
<path d="M216.353 59.3187C216.322 59.3187 216.29 59.3119 216.259 59.2966L210.59 56.4839C210.486 56.4312 210.442 56.3046 210.495 56.1992C210.547 56.0938 210.674 56.0513 210.78 56.1031L216.449 58.9158C216.553 58.9685 216.596 59.0951 216.544 59.2005C216.507 59.2753 216.432 59.3187 216.353 59.3187Z" fill="#8A5703"/>
</g>
<path opacity="0.5" d="M210.805 63.0244L212.161 63.6593L212.259 63.706L212.267 63.7095C212.623 63.8038 213.186 63.3338 213.713 62.5526L211.564 61.4434C211.148 62.3231 210.816 63.0218 210.805 63.0244Z" fill="#8A5703"/>
<path d="M211.146 60.0686C210.481 61.4754 210.328 62.7988 210.805 63.0249C211.283 63.251 212.21 62.2939 212.875 60.8863C213.541 59.4796 213.694 58.1561 213.216 57.93C212.738 57.7039 211.812 58.661 211.146 60.0686Z" fill="#FDCD68"/>
<path d="M206.117 63.0258L207.474 63.6608L207.572 63.7075L207.579 63.7109C207.935 63.8053 208.499 63.3352 209.025 62.5541C209.222 62.26 209.415 61.9208 209.59 61.5519C209.878 60.945 210.071 60.3534 210.158 59.8579C210.272 59.2059 210.203 58.7239 209.932 58.5964L208.528 57.9309C208.528 57.9309 208.32 58.3763 208.026 59.0045C207.694 59.7134 207.251 60.6526 206.876 61.4448C206.461 62.3246 206.128 63.0233 206.117 63.0258Z" fill="#FFA901"/>
<mask id="mask1_53750_7282" style="mask-type:luminance" maskUnits="userSpaceOnUse" x="206" y="57" width="5" height="7">
<path d="M206.117 63.0258L207.474 63.6608L207.572 63.7075L207.579 63.7109C207.935 63.8053 208.499 63.3352 209.025 62.5541C209.222 62.26 209.415 61.9208 209.59 61.5519C209.878 60.945 210.071 60.3534 210.158 59.8579C210.272 59.2059 210.203 58.7239 209.932 58.5964L208.528 57.9309C208.528 57.9309 208.32 58.3763 208.026 59.0045C207.694 59.7134 207.251 60.6526 206.876 61.4448C206.461 62.3246 206.128 63.0233 206.117 63.0258Z" fill="white"/>
</mask>
<g mask="url(#mask1_53750_7282)">
<path d="M211.017 66.3719C210.986 66.3719 210.954 66.3651 210.923 66.3498L205.254 63.5371C205.15 63.4844 205.106 63.3578 205.159 63.2524C205.211 63.1478 205.339 63.1053 205.444 63.1563L211.113 65.969C211.217 66.0208 211.26 66.1483 211.208 66.2537C211.171 66.3285 211.096 66.3719 211.017 66.3719Z" fill="#8A5703"/>
<path d="M211.123 65.1951C211.091 65.1951 211.059 65.1883 211.028 65.173L205.36 62.3604C205.255 62.3085 205.212 62.181 205.265 62.0756C205.317 61.9711 205.443 61.9286 205.549 61.9796L211.218 64.7922C211.323 64.8441 211.366 64.9716 211.313 65.077C211.277 65.1526 211.201 65.1951 211.123 65.1951Z" fill="#8A5703"/>
<path d="M211.231 64.0213C211.2 64.0213 211.168 64.0145 211.137 63.9992L205.469 61.1865C205.365 61.1347 205.321 61.0072 205.374 60.9018C205.425 60.7981 205.553 60.7555 205.659 60.8057L211.327 63.6184C211.431 63.6711 211.474 63.7986 211.422 63.9031C211.385 63.9779 211.31 64.0213 211.231 64.0213Z" fill="#8A5703"/>
<path d="M211.338 62.8452C211.306 62.8452 211.274 62.8384 211.243 62.8231L205.575 60.0104C205.47 59.9586 205.427 59.8311 205.479 59.7257C205.531 59.6203 205.659 59.5786 205.764 59.6296L211.433 62.4423C211.537 62.495 211.581 62.6216 211.528 62.727C211.491 62.8018 211.416 62.8452 211.338 62.8452Z" fill="#8A5703"/>
<path d="M211.451 61.6691C211.42 61.6691 211.387 61.6623 211.357 61.647L205.688 58.8344C205.583 58.7817 205.54 58.6542 205.593 58.5488C205.645 58.4442 205.771 58.4017 205.878 58.4527L211.546 61.2654C211.651 61.3181 211.694 61.4456 211.641 61.551C211.604 61.6258 211.529 61.6691 211.451 61.6691Z" fill="#8A5703"/>
<path d="M211.556 60.494C211.525 60.494 211.493 60.4872 211.462 60.4719L205.793 57.6593C205.689 57.6066 205.646 57.4791 205.698 57.3737C205.75 57.2692 205.877 57.2267 205.983 57.2777L211.652 60.0903C211.756 60.143 211.8 60.2697 211.747 60.3759C211.709 60.4507 211.635 60.494 211.556 60.494Z" fill="#8A5703"/>
<path d="M211.666 59.3187C211.634 59.3187 211.602 59.3119 211.571 59.2966L205.903 56.4839C205.798 56.4312 205.755 56.3046 205.808 56.1992C205.859 56.0938 205.986 56.0513 206.092 56.1031L211.761 58.9158C211.866 58.9685 211.909 59.0951 211.856 59.2005C211.819 59.2753 211.743 59.3187 211.666 59.3187Z" fill="#8A5703"/>
</g>
<path opacity="0.5" d="M206.117 63.0244L207.474 63.6593L207.572 63.706L207.579 63.7095C207.935 63.8038 208.499 63.3338 209.025 62.5526L206.876 61.4434C206.461 62.3231 206.128 63.0218 206.117 63.0244Z" fill="#8A5703"/>
<path d="M206.459 60.0686C205.793 61.4754 205.64 62.7988 206.118 63.0249C206.596 63.251 207.522 62.2939 208.188 60.8863C208.853 59.4796 209.006 58.1561 208.529 57.93C208.052 57.7039 207.125 58.661 206.459 60.0686Z" fill="#FDCD68"/>
<path d="M215.496 63.0258L216.853 63.6608L216.95 63.7075L216.958 63.7109C217.314 63.8053 217.878 63.3352 218.404 62.5541C218.601 62.26 218.794 61.9208 218.969 61.5519C219.257 60.945 219.449 60.3534 219.537 59.8579C219.651 59.2059 219.582 58.7239 219.311 58.5964L217.907 57.9309C217.907 57.9309 217.698 58.3763 217.405 59.0045C217.073 59.7134 216.63 60.6526 216.255 61.4448C215.84 62.3246 215.508 63.0233 215.496 63.0258Z" fill="#FFA901"/>
<mask id="mask2_53750_7282" style="mask-type:luminance" maskUnits="userSpaceOnUse" x="215" y="57" width="5" height="7">
<path d="M215.496 63.0258L216.853 63.6608L216.95 63.7075L216.958 63.7109C217.314 63.8053 217.878 63.3352 218.404 62.5541C218.601 62.26 218.794 61.9208 218.969 61.5519C219.257 60.945 219.449 60.3534 219.537 59.8579C219.651 59.2059 219.582 58.7239 219.311 58.5964L217.907 57.9309C217.907 57.9309 217.698 58.3763 217.405 59.0045C217.073 59.7134 216.63 60.6526 216.255 61.4448C215.84 62.3246 215.508 63.0233 215.496 63.0258Z" fill="white"/>
</mask>
<g mask="url(#mask2_53750_7282)">
<path d="M220.396 66.3719C220.365 66.3719 220.333 66.3651 220.302 66.3498L214.633 63.5371C214.529 63.4844 214.485 63.3578 214.538 63.2524C214.59 63.1478 214.717 63.1053 214.823 63.1563L220.491 65.969C220.596 66.0208 220.639 66.1483 220.587 66.2537C220.55 66.3285 220.474 66.3719 220.396 66.3719Z" fill="#8A5703"/>
<path d="M220.502 65.1951C220.47 65.1951 220.438 65.1883 220.407 65.173L214.739 62.3604C214.634 62.3085 214.591 62.181 214.644 62.0756C214.695 61.9711 214.822 61.9286 214.928 61.9796L220.597 64.7922C220.702 64.8441 220.745 64.9716 220.692 65.077C220.656 65.1526 220.58 65.1951 220.502 65.1951Z" fill="#8A5703"/>
<path d="M220.611 64.0213C220.58 64.0213 220.547 64.0145 220.517 63.9992L214.848 61.1865C214.744 61.1347 214.7 61.0072 214.753 60.9018C214.805 60.7981 214.931 60.7555 215.038 60.8057L220.706 63.6184C220.811 63.6711 220.854 63.7986 220.802 63.9031C220.765 63.9779 220.689 64.0213 220.611 64.0213Z" fill="#8A5703"/>
<path d="M220.717 62.8452C220.685 62.8452 220.653 62.8384 220.622 62.8231L214.954 60.0104C214.849 59.9586 214.806 59.8311 214.858 59.7257C214.909 59.6203 215.037 59.5786 215.143 59.6296L220.812 62.4423C220.916 62.495 220.96 62.6216 220.907 62.727C220.87 62.8018 220.795 62.8452 220.717 62.8452Z" fill="#8A5703"/>
<path d="M220.83 61.6691C220.798 61.6691 220.766 61.6623 220.736 61.647L215.067 58.8344C214.962 58.7817 214.919 58.6542 214.972 58.5488C215.024 58.4442 215.15 58.4017 215.256 58.4527L220.925 61.2654C221.03 61.3181 221.073 61.4456 221.02 61.551C220.984 61.6258 220.908 61.6691 220.83 61.6691Z" fill="#8A5703"/>
<path d="M220.935 60.494C220.904 60.494 220.872 60.4872 220.841 60.4719L215.172 57.6593C215.068 57.6066 215.024 57.4791 215.077 57.3737C215.129 57.2692 215.256 57.2267 215.362 57.2777L221.031 60.0903C221.135 60.143 221.178 60.2697 221.126 60.3759C221.089 60.4507 221.014 60.494 220.935 60.494Z" fill="#8A5703"/>
<path d="M221.045 59.3187C221.013 59.3187 220.981 59.3119 220.95 59.2966L215.282 56.4839C215.177 56.4312 215.134 56.3046 215.187 56.1992C215.238 56.0938 215.366 56.0513 215.471 56.1031L221.14 58.9158C221.244 58.9685 221.288 59.0951 221.235 59.2005C221.199 59.2753 221.123 59.3187 221.045 59.3187Z" fill="#8A5703"/>
</g>
<path opacity="0.5" d="M215.496 63.0244L216.853 63.6593L216.95 63.706L216.958 63.7095C217.314 63.8038 217.878 63.3338 218.404 62.5526L216.255 61.4434C215.84 62.3231 215.508 63.0218 215.496 63.0244Z" fill="#8A5703"/>
<path d="M215.838 60.0686C215.172 61.4754 215.019 62.7988 215.497 63.0249C215.975 63.251 216.901 62.2939 217.567 60.8863C218.232 59.4796 218.385 58.1561 217.907 57.93C217.431 57.7039 216.504 58.661 215.838 60.0686Z" fill="#FDCD68"/>
<path d="M221.795 91.8776H204.148C201.844 91.8776 199.969 90.0025 199.969 87.6981C199.969 87.2119 200.054 86.7334 200.22 86.2769C200.261 86.1545 200.316 86.0245 200.378 85.9004C200.575 85.4779 200.85 85.0861 201.192 84.7435C201.982 83.9539 203.031 83.5195 204.148 83.5195H221.795C223.426 83.5195 224.872 84.435 225.568 85.908C225.627 86.0253 225.684 86.1562 225.726 86.2863C225.889 86.7342 225.974 87.2128 225.974 87.699C225.974 88.8159 225.538 89.8656 224.75 90.6544C223.96 91.4424 222.91 91.8776 221.795 91.8776ZM204.148 84.157C203.202 84.157 202.313 84.5259 201.643 85.194C201.354 85.4839 201.121 85.8145 200.951 86.1783C200.898 86.2837 200.855 86.3857 200.821 86.4877C200.678 86.8821 200.606 87.2867 200.606 87.6981C200.606 89.6514 202.195 91.2401 204.148 91.2401H221.795C222.74 91.2401 223.629 90.8712 224.299 90.2022C224.967 89.5333 225.336 88.6442 225.336 87.6981C225.336 87.2867 225.265 86.8813 225.124 86.4945C225.087 86.384 225.044 86.2829 224.995 86.1868C224.402 84.9314 223.177 84.1562 221.795 84.1562H204.148V84.157Z" fill="white"/>
<path d="M210.805 89.9072L212.161 90.5421L212.259 90.5889L212.267 90.5923C212.623 90.6866 213.186 90.2166 213.713 89.4354C213.91 89.1413 214.103 88.8022 214.278 88.4333C214.566 87.8264 214.758 87.2348 214.846 86.7392C214.96 86.0881 214.891 85.6053 214.619 85.4778L213.215 84.8123C213.215 84.8123 213.007 85.2577 212.714 85.8858C212.381 86.5947 211.939 87.534 211.564 88.3262C211.148 89.2059 210.816 89.9046 210.805 89.9072Z" fill="#FFA901"/>
<mask id="mask3_53750_7282" style="mask-type:luminance" maskUnits="userSpaceOnUse" x="210" y="84" width="5" height="7">
<path d="M210.805 89.9072L212.161 90.5421L212.259 90.5889L212.267 90.5923C212.623 90.6866 213.186 90.2166 213.713 89.4354C213.91 89.1413 214.103 88.8022 214.278 88.4333C214.566 87.8264 214.758 87.2348 214.846 86.7392C214.96 86.0881 214.891 85.6053 214.619 85.4778L213.215 84.8123C213.215 84.8123 213.007 85.2577 212.714 85.8858C212.381 86.5947 211.939 87.534 211.564 88.3262C211.148 89.2059 210.816 89.9046 210.805 89.9072Z" fill="white"/>
</mask>
<g mask="url(#mask3_53750_7282)">
<path d="M215.705 93.252C215.673 93.252 215.641 93.2443 215.611 93.2299L209.942 90.4181C209.837 90.3662 209.794 90.2387 209.847 90.1333C209.899 90.0288 210.026 89.9871 210.131 90.0373L215.8 92.8499C215.905 92.9018 215.948 93.0293 215.895 93.1347C215.858 93.2086 215.782 93.252 215.705 93.252Z" fill="#8A5703"/>
<path d="M215.81 92.0758C215.779 92.0758 215.747 92.0682 215.716 92.0537L210.047 89.2419C209.943 89.1901 209.899 89.0626 209.952 88.9572C210.003 88.8535 210.131 88.8093 210.237 88.8611L215.906 91.6738C216.01 91.7256 216.053 91.8531 216.001 91.9585C215.963 92.0333 215.888 92.0758 215.81 92.0758Z" fill="#8A5703"/>
<path d="M215.92 90.9014C215.888 90.9014 215.856 90.8938 215.825 90.8793L210.157 88.0667C210.052 88.014 210.009 87.8873 210.062 87.7819C210.113 87.6774 210.24 87.6349 210.346 87.6859L216.015 90.4985C216.119 90.5512 216.163 90.6779 216.11 90.7833C216.074 90.8572 215.998 90.9014 215.92 90.9014Z" fill="#8A5703"/>
<path d="M216.025 89.7255C215.994 89.7255 215.961 89.7187 215.931 89.7034L210.262 86.8907C210.158 86.838 210.114 86.7105 210.167 86.6051C210.219 86.5006 210.346 86.4581 210.452 86.5091L216.12 89.3217C216.225 89.3744 216.268 89.5019 216.216 89.6073C216.178 89.6821 216.103 89.7255 216.025 89.7255Z" fill="#8A5703"/>
<path d="M216.131 88.5499C216.099 88.5499 216.067 88.5431 216.036 88.5278L210.368 85.7152C210.263 85.6625 210.22 85.535 210.272 85.4296C210.324 85.3259 210.452 85.2834 210.557 85.3335L216.226 88.1462C216.33 88.1989 216.374 88.3255 216.321 88.4318C216.285 88.5074 216.209 88.5499 216.131 88.5499Z" fill="#8A5703"/>
<path d="M216.244 87.3751C216.212 87.3751 216.18 87.3683 216.15 87.353L210.481 84.5403C210.376 84.4876 210.333 84.361 210.386 84.2556C210.438 84.1502 210.565 84.1077 210.67 84.1595L216.339 86.9722C216.444 87.024 216.487 87.1515 216.434 87.2569C216.398 87.3317 216.322 87.3751 216.244 87.3751Z" fill="#8A5703"/>
<path d="M216.353 86.1995C216.322 86.1995 216.29 86.1927 216.259 86.1774L210.59 83.3648C210.486 83.3121 210.442 83.1854 210.495 83.08C210.547 82.9754 210.674 82.933 210.78 82.984L216.449 85.7966C216.553 85.8484 216.596 85.976 216.544 86.0814C216.507 86.1562 216.432 86.1995 216.353 86.1995Z" fill="#8A5703"/>
</g>
<path opacity="0.5" d="M210.805 89.9057L212.161 90.5407L212.259 90.5874L212.267 90.5908C212.623 90.6852 213.186 90.2151 213.713 89.434L211.564 88.3247C211.148 89.2045 210.816 89.9032 210.805 89.9057Z" fill="#8A5703"/>
<path d="M211.146 86.9491C210.481 88.3559 210.328 89.6794 210.805 89.9055C211.283 90.1316 212.21 89.1744 212.875 87.7677C213.541 86.3609 213.694 85.0375 213.216 84.8114C212.738 84.5853 211.812 85.5424 211.146 86.9491Z" fill="#FDCD68"/>
<path d="M206.117 89.9072L207.474 90.5421L207.572 90.5889L207.579 90.5923C207.935 90.6866 208.499 90.2166 209.025 89.4354C209.222 89.1413 209.415 88.8022 209.59 88.4333C209.878 87.8264 210.071 87.2348 210.158 86.7392C210.272 86.0881 210.203 85.6053 209.932 85.4778L208.528 84.8123C208.528 84.8123 208.32 85.2577 208.026 85.8858C207.694 86.5947 207.251 87.534 206.876 88.3262C206.461 89.2059 206.128 89.9046 206.117 89.9072Z" fill="#FFA901"/>
<mask id="mask4_53750_7282" style="mask-type:luminance" maskUnits="userSpaceOnUse" x="206" y="84" width="5" height="7">
<path d="M206.117 89.9072L207.474 90.5421L207.572 90.5889L207.579 90.5923C207.935 90.6866 208.499 90.2166 209.025 89.4354C209.222 89.1413 209.415 88.8022 209.59 88.4333C209.878 87.8264 210.071 87.2348 210.158 86.7392C210.272 86.0881 210.203 85.6053 209.932 85.4778L208.528 84.8123C208.528 84.8123 208.32 85.2577 208.026 85.8858C207.694 86.5947 207.251 87.534 206.876 88.3262C206.461 89.2059 206.128 89.9046 206.117 89.9072Z" fill="white"/>
</mask>
<g mask="url(#mask4_53750_7282)">
<path d="M211.017 93.252C210.986 93.252 210.954 93.2443 210.923 93.2299L205.254 90.4181C205.15 90.3662 205.106 90.2387 205.159 90.1333C205.211 90.0288 205.339 89.9871 205.444 90.0373L211.113 92.8499C211.217 92.9018 211.26 93.0293 211.208 93.1347C211.171 93.2086 211.096 93.252 211.017 93.252Z" fill="#8A5703"/>
<path d="M211.123 92.0758C211.091 92.0758 211.059 92.0682 211.028 92.0537L205.36 89.2419C205.255 89.1901 205.212 89.0626 205.265 88.9572C205.317 88.8535 205.443 88.8093 205.549 88.8611L211.218 91.6738C211.323 91.7256 211.366 91.8531 211.313 91.9585C211.277 92.0333 211.201 92.0758 211.123 92.0758Z" fill="#8A5703"/>
<path d="M211.231 90.9014C211.2 90.9014 211.168 90.8938 211.137 90.8793L205.469 88.0667C205.365 88.014 205.321 87.8873 205.374 87.7819C205.425 87.6774 205.553 87.6349 205.659 87.6859L211.327 90.4985C211.431 90.5512 211.474 90.6779 211.422 90.7833C211.385 90.8572 211.31 90.9014 211.231 90.9014Z" fill="#8A5703"/>
<path d="M211.338 89.7255C211.306 89.7255 211.274 89.7187 211.243 89.7034L205.575 86.8907C205.47 86.838 205.427 86.7105 205.479 86.6051C205.531 86.5006 205.659 86.4581 205.764 86.5091L211.433 89.3217C211.537 89.3744 211.581 89.5019 211.528 89.6073C211.491 89.6821 211.416 89.7255 211.338 89.7255Z" fill="#8A5703"/>
<path d="M211.451 88.5499C211.42 88.5499 211.387 88.5431 211.357 88.5278L205.688 85.7152C205.583 85.6625 205.54 85.535 205.593 85.4296C205.645 85.3259 205.771 85.2834 205.878 85.3335L211.546 88.1462C211.651 88.1989 211.694 88.3255 211.641 88.4318C211.604 88.5074 211.529 88.5499 211.451 88.5499Z" fill="#8A5703"/>
<path d="M211.556 87.3751C211.525 87.3751 211.493 87.3683 211.462 87.353L205.793 84.5403C205.689 84.4876 205.646 84.361 205.698 84.2556C205.75 84.1502 205.877 84.1077 205.983 84.1595L211.652 86.9722C211.756 87.024 211.8 87.1515 211.747 87.2569C211.709 87.3317 211.635 87.3751 211.556 87.3751Z" fill="#8A5703"/>
<path d="M211.666 86.1995C211.634 86.1995 211.602 86.1927 211.571 86.1774L205.903 83.3648C205.798 83.3121 205.755 83.1854 205.808 83.08C205.859 82.9754 205.986 82.933 206.092 82.984L211.761 85.7966C211.866 85.8484 211.909 85.976 211.856 86.0814C211.819 86.1562 211.743 86.1995 211.666 86.1995Z" fill="#8A5703"/>
</g>
<path opacity="0.5" d="M206.117 89.9057L207.474 90.5407L207.572 90.5874L207.579 90.5908C207.935 90.6852 208.499 90.2151 209.025 89.434L206.876 88.3247C206.461 89.2045 206.128 89.9032 206.117 89.9057Z" fill="#8A5703"/>
<path d="M206.459 86.9491C205.793 88.3559 205.64 89.6794 206.118 89.9055C206.596 90.1316 207.522 89.1744 208.188 87.7677C208.853 86.3609 209.006 85.0375 208.529 84.8114C208.052 84.5853 207.125 85.5424 206.459 86.9491Z" fill="#FDCD68"/>
<path d="M215.496 89.9072L216.853 90.5421L216.95 90.5889L216.958 90.5923C217.314 90.6866 217.878 90.2166 218.404 89.4354C218.601 89.1413 218.794 88.8022 218.969 88.4333C219.257 87.8264 219.449 87.2348 219.537 86.7392C219.651 86.0881 219.582 85.6053 219.311 85.4778L217.907 84.8123C217.907 84.8123 217.698 85.2577 217.405 85.8858C217.073 86.5947 216.63 87.534 216.255 88.3262C215.84 89.2059 215.508 89.9046 215.496 89.9072Z" fill="#FFA901"/>
<mask id="mask5_53750_7282" style="mask-type:luminance" maskUnits="userSpaceOnUse" x="215" y="84" width="5" height="7">
<path d="M215.496 89.9072L216.853 90.5421L216.95 90.5889L216.958 90.5923C217.314 90.6866 217.878 90.2166 218.404 89.4354C218.601 89.1413 218.794 88.8022 218.969 88.4333C219.257 87.8264 219.449 87.2348 219.537 86.7392C219.651 86.0881 219.582 85.6053 219.311 85.4778L217.907 84.8123C217.907 84.8123 217.698 85.2577 217.405 85.8858C217.073 86.5947 216.63 87.534 216.255 88.3262C215.84 89.2059 215.508 89.9046 215.496 89.9072Z" fill="white"/>
</mask>
<g mask="url(#mask5_53750_7282)">
<path d="M220.396 93.252C220.365 93.252 220.333 93.2443 220.302 93.2299L214.633 90.4181C214.529 90.3662 214.485 90.2387 214.538 90.1333C214.59 90.0288 214.717 89.9871 214.823 90.0373L220.491 92.8499C220.596 92.9018 220.639 93.0293 220.587 93.1347C220.55 93.2086 220.474 93.252 220.396 93.252Z" fill="#8A5703"/>
<path d="M220.502 92.0758C220.47 92.0758 220.438 92.0682 220.407 92.0537L214.739 89.2419C214.634 89.1901 214.591 89.0626 214.644 88.9572C214.695 88.8535 214.822 88.8093 214.928 88.8611L220.597 91.6738C220.702 91.7256 220.745 91.8531 220.692 91.9585C220.656 92.0333 220.58 92.0758 220.502 92.0758Z" fill="#8A5703"/>
<path d="M220.611 90.9014C220.58 90.9014 220.547 90.8938 220.517 90.8793L214.848 88.0667C214.744 88.014 214.7 87.8873 214.753 87.7819C214.805 87.6774 214.931 87.6349 215.038 87.6859L220.706 90.4985C220.811 90.5512 220.854 90.6779 220.802 90.7833C220.765 90.8572 220.689 90.9014 220.611 90.9014Z" fill="#8A5703"/>
<path d="M220.717 89.7255C220.685 89.7255 220.653 89.7187 220.622 89.7034L214.954 86.8907C214.849 86.838 214.806 86.7105 214.858 86.6051C214.909 86.5006 215.037 86.4581 215.143 86.5091L220.812 89.3217C220.916 89.3744 220.96 89.5019 220.907 89.6073C220.87 89.6821 220.795 89.7255 220.717 89.7255Z" fill="#8A5703"/>
<path d="M220.83 88.5499C220.798 88.5499 220.766 88.5431 220.736 88.5278L215.067 85.7152C214.962 85.6625 214.919 85.535 214.972 85.4296C215.024 85.3259 215.15 85.2834 215.256 85.3335L220.925 88.1462C221.03 88.1989 221.073 88.3255 221.02 88.4318C220.984 88.5074 220.908 88.5499 220.83 88.5499Z" fill="#8A5703"/>
<path d="M220.935 87.3751C220.904 87.3751 220.872 87.3683 220.841 87.353L215.172 84.5403C215.068 84.4876 215.024 84.361 215.077 84.2556C215.129 84.1502 215.256 84.1077 215.362 84.1595L221.031 86.9722C221.135 87.024 221.178 87.1515 221.126 87.2569C221.089 87.3317 221.014 87.3751 220.935 87.3751Z" fill="#8A5703"/>
<path d="M221.045 86.1995C221.013 86.1995 220.981 86.1927 220.95 86.1774L215.282 83.3648C215.177 83.3121 215.134 83.1854 215.187 83.08C215.238 82.9754 215.366 82.933 215.471 82.984L221.14 85.7966C221.244 85.8484 221.288 85.976 221.235 86.0814C221.199 86.1562 221.123 86.1995 221.045 86.1995Z" fill="#8A5703"/>
</g>
<path opacity="0.5" d="M215.496 89.9057L216.853 90.5407L216.95 90.5874L216.958 90.5908C217.314 90.6852 217.878 90.2151 218.404 89.434L216.255 88.3247C215.84 89.2045 215.508 89.9032 215.496 89.9057Z" fill="#8A5703"/>
<path d="M215.838 86.9491C215.172 88.3559 215.019 89.6794 215.497 89.9055C215.975 90.1316 216.901 89.1744 217.567 87.7677C218.232 86.3609 218.385 85.0375 217.907 84.8114C217.431 84.5853 216.504 85.5424 215.838 86.9491Z" fill="#FDCD68"/>
<path d="M221.795 115.333H204.148C201.844 115.333 199.969 113.458 199.969 111.154C199.969 110.668 200.054 110.189 200.22 109.732C200.261 109.609 200.316 109.48 200.378 109.356C200.575 108.933 200.85 108.541 201.192 108.198C201.982 107.41 203.031 106.975 204.148 106.975H221.795C223.426 106.975 224.872 107.891 225.568 109.365C225.628 109.482 225.684 109.612 225.726 109.743C225.889 110.19 225.974 110.669 225.974 111.155C225.974 112.272 225.538 113.321 224.75 114.11C223.961 114.897 222.911 115.333 221.795 115.333ZM204.148 107.612C203.202 107.612 202.312 107.981 201.644 108.65C201.354 108.939 201.122 109.269 200.951 109.634C200.898 109.74 200.855 109.841 200.821 109.943C200.678 110.337 200.606 110.742 200.606 111.154C200.606 113.106 202.195 114.695 204.148 114.695H221.795C222.74 114.695 223.63 114.326 224.298 113.657C224.967 112.989 225.336 112.099 225.336 111.154C225.336 110.743 225.265 110.337 225.124 109.951C225.087 109.84 225.043 109.74 224.995 109.643C224.402 108.388 223.177 107.612 221.795 107.612H204.148Z" fill="white"/>
<path d="M210.805 113.363L212.161 113.998L212.259 114.045L212.267 114.048C212.623 114.142 213.186 113.672 213.713 112.891C213.91 112.597 214.103 112.258 214.278 111.889C214.566 111.282 214.758 110.691 214.846 110.195C214.96 109.544 214.891 109.061 214.619 108.934L213.215 108.268C213.215 108.268 213.007 108.713 212.714 109.342C212.381 110.051 211.939 110.99 211.564 111.782C211.148 112.662 210.816 113.36 210.805 113.363Z" fill="#FFA901"/>
<mask id="mask6_53750_7282" style="mask-type:luminance" maskUnits="userSpaceOnUse" x="210" y="108" width="5" height="7">
<path d="M210.805 113.363L212.161 113.998L212.259 114.045L212.267 114.048C212.623 114.142 213.186 113.672 213.713 112.891C213.91 112.597 214.103 112.258 214.278 111.889C214.566 111.282 214.758 110.691 214.846 110.195C214.96 109.544 214.891 109.061 214.619 108.934L213.215 108.268C213.215 108.268 213.007 108.713 212.714 109.342C212.381 110.051 211.939 110.99 211.564 111.782C211.148 112.662 210.816 113.36 210.805 113.363Z" fill="white"/>
</mask>
<g mask="url(#mask6_53750_7282)">
<path d="M215.705 116.709C215.673 116.709 215.641 116.701 215.611 116.687L209.942 113.874C209.837 113.822 209.794 113.695 209.847 113.589C209.899 113.485 210.026 113.442 210.131 113.494L215.8 116.307C215.905 116.36 215.948 116.486 215.895 116.592C215.858 116.666 215.782 116.709 215.705 116.709Z" fill="#8A5703"/>
<path d="M215.81 115.534C215.779 115.534 215.747 115.526 215.716 115.512L210.047 112.699C209.943 112.646 209.899 112.52 209.952 112.414C210.003 112.31 210.131 112.267 210.237 112.319L215.906 115.132C216.01 115.184 216.053 115.311 216.001 115.417C215.963 115.491 215.888 115.534 215.81 115.534Z" fill="#8A5703"/>
<path d="M215.92 114.358C215.888 114.358 215.856 114.351 215.825 114.336L210.157 111.524C210.052 111.471 210.009 111.344 210.062 111.239C210.113 111.134 210.24 111.093 210.346 111.144L216.015 113.956C216.119 114.008 216.163 114.136 216.11 114.241C216.074 114.315 215.998 114.358 215.92 114.358Z" fill="#8A5703"/>
<path d="M216.025 113.182C215.994 113.182 215.961 113.174 215.931 113.16L210.262 110.347C210.158 110.294 210.114 110.168 210.167 110.062C210.219 109.957 210.346 109.916 210.452 109.967L216.12 112.78C216.225 112.832 216.268 112.959 216.216 113.065C216.178 113.139 216.103 113.182 216.025 113.182Z" fill="#8A5703"/>
<path d="M216.131 112.007C216.099 112.007 216.067 111.999 216.036 111.985L210.368 109.172C210.263 109.12 210.22 108.993 210.272 108.888C210.324 108.783 210.452 108.741 210.557 108.792L216.226 111.605C216.33 111.658 216.374 111.784 216.321 111.89C216.285 111.964 216.209 112.007 216.131 112.007Z" fill="#8A5703"/>
<path d="M216.244 110.832C216.212 110.832 216.18 110.824 216.15 110.81L210.481 107.997C210.376 107.945 210.333 107.818 210.386 107.713C210.438 107.608 210.565 107.565 210.67 107.617L216.339 110.43C216.444 110.483 216.487 110.609 216.434 110.715C216.398 110.789 216.322 110.832 216.244 110.832Z" fill="#8A5703"/>
<path d="M216.353 109.657C216.322 109.657 216.29 109.649 216.259 109.634L210.59 106.822C210.486 106.77 210.442 106.642 210.495 106.537C210.547 106.433 210.674 106.391 210.78 106.442L216.449 109.255C216.553 109.307 216.596 109.434 216.544 109.539C216.507 109.613 216.432 109.657 216.353 109.657Z" fill="#8A5703"/>
</g>
<path opacity="0.5" d="M210.805 113.362L212.161 113.996L212.259 114.043L212.267 114.047C212.623 114.141 213.186 113.671 213.713 112.89L211.564 111.781C211.148 112.66 210.816 113.359 210.805 113.362Z" fill="#8A5703"/>
<path d="M211.146 110.405C210.481 111.812 210.328 113.135 210.805 113.361C211.283 113.587 212.21 112.63 212.875 111.224C213.541 109.817 213.694 108.493 213.216 108.267C212.738 108.041 211.812 108.998 211.146 110.405Z" fill="#FDCD68"/>
<path d="M206.117 113.363L207.474 113.998L207.572 114.045L207.579 114.048C207.935 114.142 208.499 113.672 209.025 112.891C209.222 112.597 209.415 112.258 209.59 111.889C209.878 111.282 210.071 110.691 210.158 110.195C210.272 109.544 210.203 109.061 209.932 108.934L208.528 108.268C208.528 108.268 208.32 108.713 208.026 109.342C207.694 110.051 207.251 110.99 206.876 111.782C206.461 112.662 206.128 113.36 206.117 113.363Z" fill="#FFA901"/>
<mask id="mask7_53750_7282" style="mask-type:luminance" maskUnits="userSpaceOnUse" x="206" y="108" width="5" height="7">
<path d="M206.117 113.363L207.474 113.998L207.572 114.045L207.579 114.048C207.935 114.142 208.499 113.672 209.025 112.891C209.222 112.597 209.415 112.258 209.59 111.889C209.878 111.282 210.071 110.691 210.158 110.195C210.272 109.544 210.203 109.061 209.932 108.934L208.528 108.268C208.528 108.268 208.32 108.713 208.026 109.342C207.694 110.051 207.251 110.99 206.876 111.782C206.461 112.662 206.128 113.36 206.117 113.363Z" fill="white"/>
</mask>
<g mask="url(#mask7_53750_7282)">
<path d="M211.017 116.709C210.986 116.709 210.954 116.701 210.923 116.687L205.254 113.874C205.15 113.822 205.106 113.695 205.159 113.589C205.211 113.485 205.339 113.442 205.444 113.494L211.113 116.307C211.217 116.36 211.26 116.486 211.208 116.592C211.171 116.666 211.096 116.709 211.017 116.709Z" fill="#8A5703"/>
<path d="M211.123 115.534C211.091 115.534 211.059 115.526 211.028 115.512L205.36 112.699C205.255 112.646 205.212 112.52 205.265 112.414C205.317 112.31 205.443 112.267 205.549 112.319L211.218 115.132C211.323 115.184 211.366 115.311 211.313 115.417C211.277 115.491 211.201 115.534 211.123 115.534Z" fill="#8A5703"/>
<path d="M211.231 114.358C211.2 114.358 211.168 114.351 211.137 114.336L205.469 111.524C205.365 111.471 205.321 111.344 205.374 111.239C205.425 111.134 205.553 111.093 205.659 111.144L211.327 113.956C211.431 114.008 211.474 114.136 211.422 114.241C211.385 114.315 211.31 114.358 211.231 114.358Z" fill="#8A5703"/>
<path d="M211.338 113.182C211.306 113.182 211.274 113.174 211.243 113.16L205.575 110.347C205.47 110.294 205.427 110.168 205.479 110.062C205.531 109.957 205.659 109.916 205.764 109.967L211.433 112.78C211.537 112.832 211.581 112.959 211.528 113.065C211.491 113.139 211.416 113.182 211.338 113.182Z" fill="#8A5703"/>
<path d="M211.451 112.007C211.42 112.007 211.387 111.999 211.357 111.985L205.688 109.172C205.583 109.12 205.54 108.993 205.593 108.888C205.645 108.783 205.771 108.741 205.878 108.792L211.546 111.605C211.651 111.658 211.694 111.784 211.641 111.89C211.604 111.964 211.529 112.007 211.451 112.007Z" fill="#8A5703"/>
<path d="M211.556 110.832C211.525 110.832 211.493 110.824 211.462 110.81L205.793 107.997C205.689 107.945 205.646 107.818 205.698 107.713C205.75 107.608 205.877 107.565 205.983 107.617L211.652 110.43C211.756 110.483 211.8 110.609 211.747 110.715C211.709 110.789 211.635 110.832 211.556 110.832Z" fill="#8A5703"/>
<path d="M211.666 109.657C211.634 109.657 211.602 109.649 211.571 109.634L205.903 106.822C205.798 106.77 205.755 106.642 205.808 106.537C205.859 106.433 205.986 106.391 206.092 106.442L211.761 109.255C211.866 109.307 211.909 109.434 211.856 109.539C211.819 109.613 211.743 109.657 211.666 109.657Z" fill="#8A5703"/>
</g>
<path opacity="0.5" d="M206.117 113.362L207.474 113.996L207.572 114.043L207.579 114.047C207.935 114.141 208.499 113.671 209.025 112.89L206.876 111.781C206.461 112.66 206.128 113.359 206.117 113.362Z" fill="#8A5703"/>
<path d="M206.459 110.405C205.793 111.812 205.64 113.135 206.118 113.361C206.596 113.587 207.522 112.63 208.188 111.224C208.853 109.817 209.006 108.493 208.529 108.267C208.051 108.041 207.125 108.998 206.459 110.405Z" fill="#FDCD68"/>
<path d="M215.496 113.363L216.853 113.998L216.95 114.045L216.958 114.048C217.314 114.142 217.878 113.672 218.404 112.891C218.601 112.597 218.794 112.258 218.969 111.889C219.257 111.282 219.449 110.691 219.537 110.195C219.651 109.544 219.582 109.061 219.311 108.934L217.907 108.268C217.907 108.268 217.698 108.713 217.405 109.342C217.073 110.051 216.63 110.99 216.255 111.782C215.84 112.662 215.508 113.36 215.496 113.363Z" fill="#FFA901"/>
<mask id="mask8_53750_7282" style="mask-type:luminance" maskUnits="userSpaceOnUse" x="215" y="108" width="5" height="7">
<path d="M215.496 113.363L216.853 113.998L216.95 114.045L216.958 114.048C217.314 114.142 217.878 113.672 218.404 112.891C218.601 112.597 218.794 112.258 218.969 111.889C219.257 111.282 219.449 110.691 219.537 110.195C219.651 109.544 219.582 109.061 219.311 108.934L217.907 108.268C217.907 108.268 217.698 108.713 217.405 109.342C217.073 110.051 216.63 110.99 216.255 111.782C215.84 112.662 215.508 113.36 215.496 113.363Z" fill="white"/>
</mask>
<g mask="url(#mask8_53750_7282)">
<path d="M220.396 116.709C220.365 116.709 220.333 116.701 220.302 116.687L214.633 113.874C214.529 113.822 214.485 113.695 214.538 113.589C214.59 113.485 214.717 113.442 214.823 113.494L220.491 116.307C220.596 116.36 220.639 116.486 220.587 116.592C220.55 116.666 220.474 116.709 220.396 116.709Z" fill="#8A5703"/>
<path d="M220.502 115.534C220.47 115.534 220.438 115.526 220.407 115.512L214.739 112.699C214.634 112.646 214.591 112.52 214.644 112.414C214.695 112.31 214.822 112.267 214.928 112.319L220.597 115.132C220.702 115.184 220.745 115.311 220.692 115.417C220.656 115.491 220.58 115.534 220.502 115.534Z" fill="#8A5703"/>
<path d="M220.611 114.358C220.58 114.358 220.547 114.351 220.517 114.336L214.848 111.524C214.744 111.471 214.7 111.344 214.753 111.239C214.805 111.134 214.931 111.093 215.038 111.144L220.706 113.956C220.811 114.008 220.854 114.136 220.802 114.241C220.765 114.315 220.689 114.358 220.611 114.358Z" fill="#8A5703"/>
<path d="M220.717 113.182C220.685 113.182 220.653 113.174 220.622 113.16L214.954 110.347C214.849 110.294 214.806 110.168 214.858 110.062C214.909 109.957 215.037 109.916 215.143 109.967L220.812 112.78C220.916 112.832 220.96 112.959 220.907 113.065C220.87 113.139 220.795 113.182 220.717 113.182Z" fill="#8A5703"/>
<path d="M220.83 112.007C220.798 112.007 220.766 111.999 220.736 111.985L215.067 109.172C214.962 109.12 214.919 108.993 214.972 108.888C215.024 108.783 215.15 108.741 215.256 108.792L220.925 111.605C221.03 111.658 221.073 111.784 221.02 111.89C220.984 111.964 220.908 112.007 220.83 112.007Z" fill="#8A5703"/>
<path d="M220.935 110.832C220.904 110.832 220.872 110.824 220.841 110.81L215.172 107.997C215.068 107.945 215.024 107.818 215.077 107.713C215.129 107.608 215.256 107.565 215.362 107.617L221.031 110.43C221.135 110.483 221.178 110.609 221.126 110.715C221.089 110.789 221.014 110.832 220.935 110.832Z" fill="#8A5703"/>
<path d="M221.045 109.657C221.013 109.657 220.981 109.649 220.95 109.634L215.282 106.822C215.177 106.77 215.134 106.642 215.187 106.537C215.238 106.433 215.366 106.391 215.471 106.442L221.14 109.255C221.244 109.307 221.288 109.434 221.235 109.539C221.199 109.613 221.123 109.657 221.045 109.657Z" fill="#8A5703"/>
</g>
<path opacity="0.5" d="M215.496 113.362L216.853 113.996L216.95 114.043L216.958 114.047C217.314 114.141 217.878 113.671 218.404 112.89L216.255 111.781C215.84 112.66 215.508 113.359 215.496 113.362Z" fill="#8A5703"/>
<path d="M215.838 110.405C215.172 111.812 215.019 113.135 215.497 113.361C215.975 113.587 216.901 112.63 217.567 111.224C218.232 109.817 218.385 108.493 217.907 108.267C217.431 108.041 216.504 108.998 215.838 110.405Z" fill="#FDCD68"/>
<path d="M92.1097 115.765C87.048 116.404 81.9259 116.404 76.8633 115.765C77.9708 112.555 78.9662 109.319 79.8485 106.064C82.934 106.346 86.039 106.346 89.1245 106.064C90.0077 109.319 91.003 112.555 92.1097 115.765Z" fill="#67A7D6"/>
<path d="M84.4838 107.643C82.8186 107.643 81.1535 107.546 79.5003 107.351C79.4705 107.348 79.4501 107.321 79.4535 107.292C79.4569 107.263 79.4824 107.242 79.513 107.245C82.811 107.633 86.1566 107.633 89.4572 107.245C89.4878 107.241 89.5132 107.263 89.5166 107.292C89.52 107.321 89.4988 107.348 89.4699 107.351C87.8141 107.546 86.1489 107.643 84.4838 107.643Z" fill="#171C4F"/>
<path d="M84.4914 115.387C84.1625 115.387 83.8335 115.384 83.5071 115.379C82.9147 115.372 82.3018 115.354 81.6329 115.323C80.9988 115.297 80.3375 115.257 79.6668 115.206C78.8032 115.142 77.96 115.062 77.1602 114.969L77.1899 114.713C77.9864 114.806 78.8262 114.885 79.6864 114.949C80.3545 115 81.0132 115.039 81.6448 115.066C82.3112 115.096 82.9215 115.114 83.5114 115.122C84.1625 115.132 84.8212 115.132 85.4723 115.122C86.1149 115.112 86.721 115.094 87.3228 115.066C87.9543 115.039 88.6131 115 89.2812 114.949C90.1414 114.885 90.9811 114.806 91.7776 114.713L91.8074 114.969C91.0075 115.062 90.1635 115.142 89.2999 115.206C88.6292 115.257 87.9679 115.297 87.3338 115.323C86.7295 115.35 86.1209 115.369 85.4757 115.379C85.1493 115.384 84.8204 115.387 84.4914 115.387Z" fill="#FDD172"/>
<path d="M84.4919 114.744C84.1706 114.744 83.8493 114.742 83.5305 114.737C82.9466 114.729 82.332 114.711 81.7039 114.685C81.1055 114.66 80.485 114.625 79.8075 114.575C79.0238 114.52 78.2257 114.447 77.3672 114.352L77.3952 114.096C78.2503 114.19 79.0459 114.262 79.8262 114.319C80.502 114.368 81.1191 114.404 81.7149 114.427C82.3405 114.454 82.9525 114.472 83.5339 114.479C84.1689 114.489 84.814 114.489 85.4507 114.479C86.0244 114.472 86.6296 114.455 87.2501 114.427C87.846 114.403 88.4639 114.367 89.1388 114.318C89.9225 114.262 90.7173 114.189 91.5698 114.095L91.5979 114.351C90.7419 114.445 89.9429 114.518 89.1567 114.574C88.4792 114.624 87.8587 114.659 87.2603 114.684C86.6381 114.71 86.0295 114.728 85.4541 114.736C85.1353 114.742 84.814 114.744 84.4919 114.744Z" fill="#FDD172"/>
<path d="M79.456 116.088C79.4517 116.088 79.4475 116.087 79.4432 116.087C79.4143 116.08 79.3965 116.051 79.4041 116.022C80.0153 113.477 80.4088 111.157 80.4819 110.718C80.487 110.689 80.5134 110.67 80.5431 110.674C80.572 110.679 80.5916 110.706 80.5873 110.735C80.5142 111.174 80.1207 113.497 79.5078 116.047C79.5019 116.072 79.4806 116.088 79.456 116.088Z" fill="#171C4F"/>
<path d="M81.5181 116.225C81.5155 116.225 81.513 116.225 81.5113 116.224C81.4824 116.219 81.4611 116.193 81.4654 116.163C81.7739 113.827 81.9252 111.659 81.9762 110.836C81.9779 110.806 82.0009 110.786 82.0332 110.785C82.0629 110.787 82.085 110.813 82.0833 110.842C82.0323 111.667 81.8802 113.838 81.5716 116.178C81.5674 116.204 81.5444 116.225 81.5181 116.225Z" fill="#171C4F"/>
<path d="M89.5149 116.089C89.4911 116.089 89.469 116.073 89.4631 116.048C88.8502 113.498 88.4567 111.177 88.3836 110.737C88.3785 110.708 88.3989 110.681 88.4278 110.675C88.4575 110.672 88.4848 110.691 88.489 110.72C88.5613 111.158 88.9548 113.477 89.5668 116.024C89.5736 116.053 89.5557 116.081 89.5277 116.088C89.5226 116.089 89.5192 116.089 89.5149 116.089Z" fill="#171C4F"/>
<path d="M87.4512 116.225C87.4249 116.225 87.4019 116.205 87.3985 116.178C87.09 113.838 86.9378 111.667 86.8868 110.842C86.8851 110.813 86.9072 110.787 86.937 110.785C86.9693 110.786 86.9914 110.806 86.9939 110.836C87.0449 111.659 87.1962 113.827 87.5048 116.163C87.509 116.193 87.4878 116.219 87.4589 116.224C87.4563 116.224 87.4538 116.225 87.4512 116.225Z" fill="#171C4F"/>
<path d="M83.4755 116.29H83.4738C83.444 116.289 83.421 116.263 83.4219 116.234C83.4822 114.59 83.5392 112.992 83.5783 111.885L83.6132 110.903C83.614 110.873 83.6429 110.853 83.6684 110.851C83.6981 110.852 83.7211 110.877 83.7202 110.907L83.6854 111.888C83.6463 112.995 83.5893 114.595 83.529 116.238C83.5281 116.267 83.5044 116.29 83.4755 116.29Z" fill="#171C4F"/>
<path d="M85.5042 116.29C85.4753 116.29 85.4515 116.267 85.4507 116.238C85.3818 113.752 85.2798 111.53 85.2501 110.907C85.2484 110.878 85.2713 110.853 85.3011 110.851C85.3291 110.853 85.3555 110.873 85.3572 110.902C85.3869 111.525 85.4889 113.747 85.5586 116.234C85.5595 116.264 85.5365 116.289 85.5068 116.29H85.5042Z" fill="#171C4F"/>
<path d="M226.626 44.2204H75.8409C73.7694 44.2204 72.0898 42.5408 72.0898 40.4693C72.0898 38.3979 73.7694 36.7183 75.8409 36.7183H226.626C228.697 36.7183 230.377 38.3979 230.377 40.4693C230.376 42.5408 228.697 44.2204 226.626 44.2204Z" fill="white"/>
<path d="M78.6505 42.1006L77.3763 40.8265C77.5837 40.5732 77.7137 40.2544 77.7137 39.9017C77.7137 39.0925 77.0558 38.4346 76.2475 38.4346C75.4391 38.4346 74.7812 39.0925 74.7812 39.9017C74.7812 40.71 75.4391 41.3679 76.2475 41.3679C76.5339 41.3679 76.7991 41.2821 77.0244 41.1401L78.3172 42.433C78.3631 42.4789 78.4235 42.5018 78.4838 42.5018C78.5442 42.5018 78.6046 42.4789 78.6505 42.433C78.7423 42.3412 78.7423 42.1924 78.6505 42.1006ZM75.2513 39.9017C75.2513 39.3526 75.6975 38.9055 76.2475 38.9055C76.7974 38.9055 77.2428 39.3526 77.2428 39.9017C77.2428 40.4508 76.7966 40.8979 76.2475 40.8979C75.6984 40.8979 75.2513 40.4508 75.2513 39.9017Z" fill="#171C4F"/>
<path d="M87.8244 41.8534C87.8244 42.2112 87.5337 42.5019 87.1759 42.5019C86.818 42.5019 86.5273 42.2112 86.5273 41.8534C86.5273 41.4955 86.818 41.2048 87.1759 41.2048C87.5337 41.2048 87.8244 41.4955 87.8244 41.8534Z" fill="#171C4F"/>
<path d="M85.5119 41.8534C85.5119 42.2112 85.2212 42.5019 84.8634 42.5019C84.5055 42.5019 84.2148 42.2112 84.2148 41.8534C84.2148 41.4955 84.5055 41.2048 84.8634 41.2048C85.2212 41.2048 85.5119 41.4955 85.5119 41.8534Z" fill="#171C4F"/>
<path d="M83.1916 41.8534C83.1916 42.2112 82.9009 42.5019 82.5431 42.5019C82.1852 42.5019 81.8945 42.2112 81.8945 41.8534C81.8945 41.4955 82.1852 41.2048 82.5431 41.2048C82.9009 41.2048 83.1916 41.4955 83.1916 41.8534Z" fill="#171C4F"/>
<path d="M154.658 60.4436H103.161C102.332 60.4436 101.66 59.7712 101.66 58.9425C101.66 58.1137 102.332 57.4414 103.161 57.4414H154.658C155.486 57.4414 156.159 58.1137 156.159 58.9425C156.159 59.7721 155.487 60.4436 154.658 60.4436Z" fill="#6784D0"/>
<path d="M121.85 65.9482H103.161C102.332 65.9482 101.66 65.2759 101.66 64.4472C101.66 63.6184 102.332 62.946 103.161 62.946H121.85C122.679 62.946 123.351 63.6184 123.351 64.4472C123.351 65.2759 122.679 65.9482 121.85 65.9482Z" fill="#6784D0"/>
<path d="M161.27 85.4429H103.161C102.332 85.4429 101.66 84.7705 101.66 83.9418C101.66 83.113 102.332 82.4407 103.161 82.4407H161.27C162.099 82.4407 162.771 83.113 162.771 83.9418C162.771 84.7705 162.099 85.4429 161.27 85.4429Z" fill="#6784D0"/>
<path d="M110.867 90.9478H103.161C102.332 90.9478 101.66 90.2754 101.66 89.4467C101.66 88.6179 102.332 87.9456 103.161 87.9456H110.867C111.696 87.9456 112.368 88.6179 112.368 89.4467C112.369 90.2763 111.697 90.9478 110.867 90.9478Z" fill="#6784D0"/>
<path d="M145.201 109.924H103.161C102.332 109.924 101.66 109.252 101.66 108.423C101.66 107.594 102.332 106.922 103.161 106.922H145.201C146.03 106.922 146.703 107.594 146.703 108.423C146.703 109.252 146.03 109.924 145.201 109.924Z" fill="#6784D0"/>
<path d="M115.26 115.429H103.161C102.332 115.429 101.66 114.757 101.66 113.928C101.66 113.099 102.332 112.427 103.161 112.427H115.26C116.089 112.427 116.761 113.099 116.761 113.928C116.761 114.757 116.09 115.429 115.26 115.429Z" fill="#6784D0"/>
<path d="M179.968 62.9467H177.008C176.445 62.9467 175.988 62.4903 175.988 61.9267V58.967C175.988 58.4035 176.445 57.947 177.008 57.947H179.968C180.532 57.947 180.988 58.4035 180.988 58.967V61.9267C180.988 62.4903 180.532 62.9467 179.968 62.9467Z" fill="white"/>
<path d="M179.792 60.871H177.191C176.956 60.871 176.766 60.6806 176.766 60.446C176.766 60.2114 176.956 60.021 177.191 60.021H179.792C180.026 60.021 180.217 60.2114 180.217 60.446C180.217 60.6806 180.026 60.871 179.792 60.871Z" fill="#6784D0"/>
<path d="M187.851 62.9467H184.891C184.328 62.9467 183.871 62.4903 183.871 61.9267V58.967C183.871 58.4035 184.328 57.947 184.891 57.947H187.851C188.414 57.947 188.871 58.4035 188.871 58.967V61.9267C188.871 62.4903 188.414 62.9467 187.851 62.9467Z" fill="white"/>
<path d="M187.674 60.871H185.073C184.839 60.871 184.648 60.6806 184.648 60.446C184.648 60.2114 184.839 60.021 185.073 60.021H187.674C187.909 60.021 188.099 60.2114 188.099 60.446C188.099 60.6806 187.91 60.871 187.674 60.871Z" fill="#6784D0"/>
<path d="M186.374 62.1716C186.14 62.1716 185.949 61.9812 185.949 61.7466V59.1464C185.949 58.9118 186.14 58.7214 186.374 58.7214C186.609 58.7214 186.799 58.9118 186.799 59.1464V61.7466C186.799 61.9812 186.609 62.1716 186.374 62.1716Z" fill="#6784D0"/>
<path d="M179.968 90.3513H177.008C176.445 90.3513 175.988 89.8948 175.988 89.3313V86.3716C175.988 85.808 176.445 85.3516 177.008 85.3516H179.968C180.532 85.3516 180.988 85.808 180.988 86.3716V89.3313C180.988 89.8948 180.532 90.3513 179.968 90.3513Z" fill="white"/>
<path d="M179.792 88.2775H177.191C176.956 88.2775 176.766 88.0871 176.766 87.8525C176.766 87.6179 176.956 87.4275 177.191 87.4275H179.792C180.026 87.4275 180.217 87.6179 180.217 87.8525C180.217 88.0871 180.026 88.2775 179.792 88.2775Z" fill="#6784D0"/>
<path d="M187.851 90.3513H184.891C184.328 90.3513 183.871 89.8948 183.871 89.3313V86.3716C183.871 85.808 184.328 85.3516 184.891 85.3516H187.851C188.414 85.3516 188.871 85.808 188.871 86.3716V89.3313C188.871 89.8948 188.414 90.3513 187.851 90.3513Z" fill="white"/>
<path d="M187.674 88.2755H185.073C184.839 88.2755 184.648 88.0851 184.648 87.8505C184.648 87.6159 184.839 87.4255 185.073 87.4255H187.674C187.909 87.4255 188.099 87.6159 188.099 87.8505C188.099 88.0851 187.91 88.2755 187.674 88.2755Z" fill="#6784D0"/>
<path d="M186.374 89.5761C186.14 89.5761 185.949 89.3857 185.949 89.1511V86.551C185.949 86.3164 186.14 86.126 186.374 86.126C186.609 86.126 186.799 86.3164 186.799 86.551V89.1511C186.799 89.3866 186.609 89.5761 186.374 89.5761Z" fill="#6784D0"/>
<path d="M179.968 113.675H177.008C176.445 113.675 175.988 113.219 175.988 112.655V109.696C175.988 109.132 176.445 108.676 177.008 108.676H179.968C180.532 108.676 180.988 109.132 180.988 109.696V112.655C180.988 113.219 180.532 113.675 179.968 113.675Z" fill="white"/>
<path d="M179.792 111.6H177.191C176.956 111.6 176.766 111.409 176.766 111.175C176.766 110.94 176.956 110.75 177.191 110.75H179.792C180.026 110.75 180.217 110.94 180.217 111.175C180.217 111.41 180.026 111.6 179.792 111.6Z" fill="#6784D0"/>
<path d="M187.851 113.675H184.891C184.328 113.675 183.871 113.219 183.871 112.655V109.696C183.871 109.132 184.328 108.676 184.891 108.676H187.851C188.414 108.676 188.871 109.132 188.871 109.696V112.655C188.871 113.219 188.414 113.675 187.851 113.675Z" fill="white"/>
<path d="M187.674 111.6H185.073C184.839 111.6 184.648 111.409 184.648 111.175C184.648 110.94 184.839 110.75 185.073 110.75H187.674C187.909 110.75 188.099 110.94 188.099 111.175C188.099 111.41 187.91 111.6 187.674 111.6Z" fill="#6784D0"/>
<path d="M186.374 112.9C186.14 112.9 185.949 112.71 185.949 112.475V109.875C185.949 109.64 186.14 109.45 186.374 109.45C186.609 109.45 186.799 109.64 186.799 109.875V112.475C186.799 112.711 186.609 112.9 186.374 112.9Z" fill="#6784D0"/>
<path opacity="0.17" d="M206.784 159.436H105.191L35.6328 25.1747V9.12327C35.6328 5.63912 38.4582 2.81372 41.9509 2.81372H125.643L206.784 159.436Z" fill="white"/>
<path opacity="0.17" d="M266.783 73.1249V153.118C266.783 156.603 263.958 159.436 260.465 159.436H251.168L170.035 2.81372H230.355L266.783 73.1249Z" fill="white"/>
<path d="M60.3061 0.971191L42.6686 7.76269C42.4221 7.85619 42.1842 7.95819 41.9462 8.06019C41.7422 8.15369 41.5466 8.24719 41.3511 8.34919C39.9401 9.03769 38.6482 9.91319 37.5092 10.9417C37.3562 11.0862 37.1947 11.2307 37.0417 11.3752C34.7637 13.5937 33.1487 16.4327 32.4177 19.5607C32.3667 19.7647 32.3242 19.9772 32.2902 20.1812C32.2477 20.3852 32.2137 20.5977 32.1797 20.8017C32.0522 21.6432 31.9842 22.4932 31.9842 23.3602V24.4057C31.9162 28.9022 28.0997 32.4977 23.5097 32.2002C19.2852 31.9367 16.0977 28.2392 16.0977 24.0062V23.8617C16.0977 23.6832 16.0977 23.5047 16.1147 23.3262C16.1232 23.1052 16.1317 22.8842 16.1487 22.6632C16.1657 22.4677 16.1827 22.2722 16.2082 22.0767C16.5397 19.1697 17.6192 16.4412 19.2682 14.1462C20.1182 12.9562 21.1212 11.8767 22.2602 10.9417C23.5437 9.87069 25.0057 8.99519 26.5952 8.34919C26.7057 8.29819 26.8246 8.24719 26.9437 8.20469C27.1561 8.12819 27.3687 8.05169 27.5812 7.97519L48.2022 0.971191H60.3061Z" fill="#FED272"/>
<path d="M84.612 0.971191L72.7723 7.17619C72.4485 7.34619 72.1246 7.53319 71.8101 7.72869C71.5543 7.88169 71.3078 8.04319 71.069 8.21319C71.001 8.25569 70.9329 8.29819 70.8649 8.34919C70.8479 8.35769 70.8225 8.37469 70.8055 8.39169C70.2861 8.75719 69.7829 9.16519 69.3146 9.59019C68.8462 10.0237 68.4119 10.4742 68.003 10.9417C67.918 11.0352 67.833 11.1202 67.7557 11.2137C67.6707 11.3072 67.5941 11.3922 67.5253 11.4857C67.0229 12.0977 66.5801 12.7522 66.1798 13.4322C66.0013 13.7212 65.8304 14.0272 65.6774 14.3247C65.6774 14.3332 65.6689 14.3417 65.6689 14.3502C65.5244 14.6307 65.3961 14.9112 65.2601 15.1917C64.3659 17.1807 63.8541 19.3567 63.8031 21.6007C63.7946 21.8047 63.7947 22.0002 63.7947 22.2042V24.2782C63.7947 28.8342 59.9526 32.4977 55.3193 32.2002C51.0863 31.9367 47.875 28.2477 47.875 24.0147V22.8757C47.875 22.2467 47.909 21.6177 47.977 21.0057C48.028 20.5552 48.096 20.1217 48.1725 19.6882C48.8032 16.3392 50.4131 13.3047 52.7634 10.9417C53.7511 9.94719 54.8756 9.07169 56.1106 8.34919C56.528 8.10269 56.9624 7.87319 57.4052 7.66069C57.5922 7.56719 57.78 7.48219 57.9755 7.39719L72.4731 0.971191H84.612Z" fill="#FED272"/>
<path d="M96.7436 0.971191L87.425 6.93819C87.1267 7.13369 86.8292 7.32919 86.5478 7.54169C86.3863 7.66069 86.224 7.78819 86.0625 7.91569C85.8925 8.06019 85.7216 8.20469 85.5516 8.34919C84.6489 9.13119 83.8397 10.0067 83.141 10.9417C81.2583 13.4152 80.0827 16.3817 79.7852 19.5267C79.7682 19.7052 79.7512 19.8837 79.7427 20.0622C79.7342 20.1302 79.7257 20.2067 79.7342 20.2747C79.7172 20.4872 79.7172 20.6997 79.7087 20.9122V21.1417L79.7002 24.2782C79.7002 28.8342 75.8676 32.4977 71.2249 32.2002C66.9919 31.9367 63.7891 28.2477 63.7891 24.0147V22.2042C63.7891 22.0002 63.7891 21.8047 63.7976 21.6007C63.8741 19.3397 64.3849 17.1637 65.2545 15.1917C65.3905 14.9112 65.5188 14.6307 65.6633 14.3502C65.6633 14.3417 65.6718 14.3332 65.6718 14.3247C65.8248 14.0272 65.9957 13.7212 66.1742 13.4322C66.5745 12.7522 67.0174 12.0977 67.5197 11.4857C67.5877 11.3922 67.6642 11.3072 67.7501 11.2137C67.8181 11.1202 67.8946 11.0352 67.9804 10.9417C68.3893 10.4657 68.8321 10.0152 69.309 9.59019C69.7773 9.16519 70.2797 8.75719 70.7999 8.39169C70.8169 8.37469 70.8424 8.35769 70.8594 8.34919C70.9274 8.29819 70.9954 8.25569 71.0634 8.21319C71.3022 8.04319 71.5487 7.88169 71.8046 7.72869C72.1199 7.53319 72.4438 7.34619 72.7668 7.17619L84.6064 0.971191H96.7436Z" fill="#006E7E"/>
<path d="M108.885 0.971191L101.738 6.85319C101.176 7.32069 100.639 7.82219 100.145 8.34919C99.3952 9.14819 98.7314 10.0237 98.1602 10.9417C96.5248 13.5597 95.6306 16.6112 95.6306 19.7647V24.0062C95.6306 28.2392 92.4278 31.9367 88.1863 32.2002C83.5529 32.4977 79.7109 28.8342 79.7109 24.2782V20.9122C79.7109 20.6997 79.7194 20.4872 79.7364 20.2747C79.7279 20.2067 79.7364 20.1302 79.7449 20.0622C79.7534 19.8837 79.7704 19.7052 79.7874 19.5267C80.0603 16.3817 81.2265 13.4152 83.1092 10.9417C83.8079 9.99819 84.6256 9.13119 85.5283 8.34919C85.7068 8.20469 85.8777 8.06019 86.0647 7.91569C86.2262 7.78819 86.3885 7.66069 86.55 7.54169C86.8314 7.32919 87.1289 7.13369 87.4272 6.93819L96.7458 0.971191H108.885Z" fill="#FED272"/>
<path d="M121.02 0.971191L115.646 7.15069C115.313 7.53319 114.998 7.93269 114.709 8.34919C114.113 9.16519 113.601 10.0322 113.175 10.9417C112.937 11.4347 112.724 11.9362 112.546 12.4462C112.486 12.6247 112.427 12.7947 112.367 12.9647C112.282 13.2282 112.206 13.4917 112.137 13.7552C111.745 15.1662 111.549 16.6367 111.549 18.1242V24.0062C111.549 28.2392 108.337 31.9367 104.104 32.2002C99.4709 32.4977 95.6289 28.8342 95.6289 24.2782V19.7647C95.6289 16.6112 96.5231 13.5597 98.1585 10.9417C98.7289 10.0237 99.3936 9.14819 100.143 8.34919C100.637 7.82219 101.174 7.32069 101.736 6.85319L108.883 0.971191H121.02Z" fill="#006E7E"/>
<path d="M133.168 0.971191L129.378 8.23869C129.361 8.27269 129.344 8.31519 129.327 8.34919C128.893 9.18219 128.535 10.0577 128.253 10.9417C127.743 12.5652 127.478 14.2567 127.478 15.9737V24.0062C127.478 28.2392 124.267 31.9367 120.034 32.2002C115.4 32.4977 111.559 28.8342 111.559 24.2782V18.1157C111.559 16.6367 111.754 15.1662 112.137 13.7552C112.205 13.4917 112.282 13.2282 112.368 12.9647C112.427 12.7947 112.487 12.6247 112.546 12.4462C112.733 11.9362 112.938 11.4347 113.185 10.9417C113.611 10.0407 114.121 9.17369 114.727 8.34919C115.008 7.94119 115.322 7.54169 115.655 7.15919L121.021 0.971191H133.168Z" fill="#FED272"/>
<path d="M145.206 0.971191L143.94 8.34919L143.574 10.4742C143.566 10.5082 143.566 10.5422 143.557 10.5762C143.549 10.6357 143.54 10.6952 143.532 10.7632L143.498 10.9417L143.336 11.8767H143.328V24.2782C143.328 28.8342 139.494 32.4977 134.87 32.2002C130.646 31.9367 127.441 28.2392 127.441 24.0062V15.9482C127.441 14.2482 127.705 12.5567 128.206 10.9417C128.495 10.0492 128.844 9.18219 129.277 8.34919C129.286 8.31519 129.303 8.28969 129.32 8.25569L133.094 0.971191H145.206Z" fill="#006E7E"/>
<path d="M159.231 11.8767H159.222V24.2782C159.222 28.8342 155.389 32.4977 150.765 32.2002C146.54 31.9367 143.336 28.2392 143.336 24.0062V13.2962C143.336 12.5142 143.387 11.7237 143.506 10.9417C143.506 10.8822 143.523 10.8227 143.531 10.7632C143.54 10.6952 143.548 10.6357 143.557 10.5762C143.565 10.5422 143.565 10.5082 143.574 10.4742L143.939 8.34919L145.206 0.971191H157.327L158.619 8.34919L159.069 10.9417L159.231 11.8767Z" fill="#FED272"/>
<path d="M175.098 15.9652V24.0062C175.098 28.2392 171.902 31.9367 167.678 32.2002C163.045 32.4977 159.22 28.8342 159.22 24.2782V13.3217C159.22 12.5312 159.161 11.7237 159.042 10.9417C159.025 10.7717 158.991 10.6102 158.965 10.4487L158.6 8.34919L157.316 0.971191H169.429L173.211 8.23869C173.228 8.27269 173.245 8.31519 173.262 8.34919H173.271C173.475 8.74869 173.662 9.15669 173.832 9.56469C174.019 10.0152 174.189 10.4742 174.325 10.9417C174.835 12.5652 175.098 14.2567 175.098 15.9652Z" fill="#006E7E"/>
<path d="M190.994 18.1242V24.0062C190.994 28.2392 187.797 31.9367 183.564 32.2002C178.94 32.4977 175.107 28.8342 175.107 24.2782V15.9652C175.107 14.2567 174.844 12.5652 174.334 10.9417H174.325C174.189 10.4742 174.019 10.0152 173.832 9.56469C173.671 9.15669 173.484 8.74869 173.271 8.34919C173.254 8.31519 173.237 8.27269 173.22 8.23869L169.438 0.971191H181.55L184.414 4.28619L186.905 7.15069C187.237 7.53319 187.551 7.93269 187.84 8.34919C188.435 9.16519 188.945 10.0322 189.37 10.9417C190.433 13.1687 190.994 15.6252 190.994 18.1242Z" fill="#FED272"/>
<path d="M206.881 19.7647V24.0062C206.881 28.2392 203.677 31.9367 199.452 32.2002C194.828 32.4977 190.995 28.8342 190.995 24.2782V18.1242C190.995 15.6252 190.434 13.1687 189.371 10.9417C188.946 10.0322 188.436 9.16519 187.841 8.34919C187.552 7.93269 187.238 7.53319 186.906 7.15069L184.416 4.28619L181.543 0.971191H193.655L200.787 6.85319C201.348 7.32069 201.883 7.82219 202.376 8.34919C203.124 9.14819 203.787 10.0237 204.357 10.9417C205.989 13.5597 206.881 16.6112 206.881 19.7647Z" fill="#006E7E"/>
<path d="M254.539 22.7567V24.0062C254.539 28.2392 251.343 31.9367 247.11 32.2002C242.486 32.4977 238.653 28.8342 238.653 24.2782V21.9917C238.653 17.8522 237.123 13.9422 234.479 10.9417C233.638 9.98119 232.677 9.10569 231.606 8.34919C231.003 7.92419 230.365 7.52469 229.694 7.17619L217.879 0.971191H229.991L244.594 7.45669C245.189 7.72019 245.759 8.01769 246.311 8.34919C247.552 9.07169 248.674 9.94719 249.669 10.9417C252.729 14.0272 254.539 18.2432 254.539 22.7567Z" fill="#FED272"/>
<path d="M48.2026 0.971191L27.5816 7.97519L27.4456 8.01769C27.2756 8.07719 27.1056 8.13669 26.9441 8.20469C26.8166 8.24719 26.6976 8.29819 26.5786 8.34919C24.9721 8.98669 23.4931 9.87069 22.2011 10.9417C18.8606 13.6872 16.6591 17.6737 16.2086 22.0767C16.1831 22.2722 16.1661 22.4677 16.1491 22.6632C16.1321 22.8842 16.1236 23.1052 16.1151 23.3262C16.0981 23.5047 16.0981 23.6832 16.0981 23.8617V24.2782C16.0981 28.8342 12.2476 32.4977 7.62363 32.2002C3.39913 31.9367 0.203125 28.2392 0.203125 24.0062C0.203125 20.4022 1.38463 17.0107 3.42463 14.2567C4.35113 13.0072 5.45612 11.8852 6.71412 10.9417C8.21862 9.81119 9.93562 8.91869 11.8141 8.34919L36.0901 0.971191H48.2026Z" fill="#006E7E"/>
<path d="M72.4235 0.971191L57.9565 7.39719C57.761 7.48219 57.574 7.56719 57.387 7.66069C56.9535 7.87319 56.52 8.10269 56.112 8.34919C54.8965 9.08019 53.7915 9.95569 52.8055 10.9417C50.451 13.3132 48.819 16.3562 48.173 19.6882C48.0965 20.1217 48.0285 20.5552 47.9775 21.0057C47.901 21.6262 47.867 22.2637 47.867 22.9012V24.2782C47.867 28.8342 44.0335 32.4977 39.4095 32.2002C35.321 31.9452 32.1845 28.4772 31.989 24.4057V24.2782C31.9805 24.1932 31.9805 24.0997 31.9805 24.0147V23.3942C31.9805 22.5102 32.0485 21.6432 32.1845 20.8017C32.2185 20.5977 32.2525 20.3852 32.295 20.1812C32.329 19.9772 32.3715 19.7647 32.4225 19.5607C33.145 16.4157 34.7685 13.5767 37.0465 11.3752C37.191 11.2222 37.344 11.0777 37.497 10.9417C38.636 9.91319 39.9195 9.03769 41.3305 8.34919C41.5345 8.24719 41.7385 8.15369 41.951 8.06019C42.189 7.95819 42.427 7.85619 42.6735 7.76269L60.311 0.971191H72.4235Z" fill="#006E7E"/>
<path d="M222.765 21.0227V24.2782C222.765 28.8342 218.931 32.4977 214.307 32.2002C210.074 31.9367 206.878 28.2392 206.878 24.0062V19.7647C206.878 16.6112 205.986 13.5597 204.354 10.9417C203.784 10.0237 203.121 9.14819 202.373 8.34919C201.88 7.82219 201.345 7.32069 200.784 6.85319L193.652 0.971191H205.765L215.064 6.93819C215.727 7.36319 216.364 7.83919 216.951 8.34919C217.86 9.13119 218.668 9.99819 219.373 10.9417C221.541 13.7977 222.765 17.3252 222.765 21.0227Z" fill="#FED272"/>
<path d="M238.656 21.9917V24.0062C238.656 28.2392 235.46 31.9367 231.244 32.2002C226.612 32.4977 222.77 28.8342 222.77 24.2782V21.0227C222.77 17.3252 221.546 13.7977 219.378 10.9417C218.673 9.99819 217.865 9.13119 216.956 8.34919C216.369 7.83919 215.732 7.36319 215.069 6.93819L205.77 0.971191H217.882L229.697 7.17619C230.369 7.52469 231.006 7.92419 231.61 8.34919C232.681 9.10569 233.641 9.98119 234.483 10.9417C237.126 13.9422 238.656 17.8522 238.656 21.9917Z" fill="#006E7E"/>
<path d="M270.431 23.3602V24.2782C270.431 28.8342 266.597 32.4977 261.973 32.2002C257.749 31.9367 254.544 28.2392 254.544 24.0062V22.7567C254.544 18.2432 252.734 14.0272 249.674 10.9417C248.679 9.94719 247.557 9.07169 246.316 8.34919C245.764 8.01769 245.194 7.72019 244.599 7.45669L229.996 0.971191H242.109L259.704 7.74569C260.171 7.92419 260.63 8.12819 261.081 8.34919C262.492 9.03769 263.767 9.91319 264.906 10.9417C268.357 14.0527 270.431 18.5322 270.431 23.3602Z" fill="#006E7E"/>
<path d="M302.197 24.2782C302.197 28.6642 298.653 32.2172 294.267 32.2172C294.088 32.2172 293.918 32.2087 293.74 32.2002C289.515 31.9367 286.319 28.2392 286.319 24.0062V23.8617C286.319 18.7532 283.999 14.0527 280.208 10.9417C278.916 9.87069 277.445 8.99519 275.847 8.34919C275.558 8.23019 275.261 8.11969 274.963 8.01769L254.215 0.971191H266.319L290.331 8.26419C290.416 8.28969 290.501 8.31519 290.586 8.34919C292.422 8.93569 294.097 9.81969 295.576 10.9417C299.656 14.0357 302.197 18.9317 302.197 24.2782Z" fill="#006E7E"/>
<path d="M286.322 23.8617V24.0062C286.322 28.2392 283.126 31.9367 278.902 32.2002C274.269 32.4977 270.427 28.8342 270.427 24.2782V23.3602C270.427 18.5322 268.353 14.0527 264.902 10.9417C263.763 9.91319 262.488 9.03769 261.077 8.34919C260.627 8.12819 260.168 7.92419 259.7 7.74569L242.105 0.971191H254.218L274.966 8.01769C275.264 8.11969 275.561 8.23019 275.85 8.34919C277.448 8.99519 278.919 9.87069 280.211 10.9417C284.002 14.0527 286.322 18.7532 286.322 23.8617Z" fill="#FED57D"/>
<path opacity="0.5" d="M290.335 8.26419L266.282 0.971191H169.432H169.236H36.1264L11.8164 8.34919H173.076H173.265H290.591C290.506 8.31519 290.421 8.28969 290.335 8.26419Z" fill="white"/>
</svg>
