<svg width="60" height="48" viewBox="0 0 60 48" fill="none" xmlns="http://www.w3.org/2000/svg">
<path d="M49.9929 47.338H9.89334C4.51369 47.338 0.152344 42.9767 0.152344 37.597V10.6087C0.152344 5.22904 4.51369 0.867676 9.89334 0.867676H49.9929C55.3726 0.867676 59.734 5.22904 59.734 10.6087V37.5979C59.7331 42.9775 55.3726 47.338 49.9929 47.338Z" fill="#52C6C6"/>
<path d="M15.6042 7.2251C12.3147 7.2251 9.66016 9.88901 9.66016 13.1692C9.66016 13.9571 9.81401 14.7009 10.086 15.3894L10.0954 15.3987C10.3674 16.0693 15.6042 24.0338 15.6042 24.0338C15.6042 24.0338 20.8411 16.0787 21.1131 15.3987V15.3894C21.3936 14.7009 21.5482 13.958 21.5482 13.1692C21.5482 9.88901 18.8844 7.2251 15.6042 7.2251ZM15.6042 15.4794C14.2085 15.4794 13.0848 14.3558 13.0848 12.9609C13.0848 11.5746 14.2085 10.4509 15.6042 10.4509C16.9906 10.4509 18.1143 11.5746 18.1143 12.9609C18.1143 14.3558 16.9906 15.4794 15.6042 15.4794Z" fill="#CE2E79"/>
<path d="M44.2917 23.6719C41.0022 23.6719 38.3477 26.3358 38.3477 29.6159C38.3477 30.4039 38.5015 31.1476 38.7735 31.8361L38.7829 31.8455C39.0549 32.5161 44.2917 40.4806 44.2917 40.4806C44.2917 40.4806 49.5286 32.5255 49.8006 31.8455V31.8361C50.0819 31.1476 50.2358 30.4047 50.2358 29.6159C50.2358 26.3358 47.5719 23.6719 44.2917 23.6719ZM44.2917 31.9262C42.896 31.9262 41.7723 30.8025 41.7723 29.4077C41.7723 28.0213 42.896 26.8976 44.2917 26.8976C45.6781 26.8976 46.8018 28.0213 46.8018 29.4077C46.8018 30.8025 45.6781 31.9262 44.2917 31.9262Z" fill="#CE2E79"/>
<path d="M44.2879 40.7993C44.2675 40.7993 44.2462 40.7976 44.225 40.7925L18.0484 35.542C17.8767 35.5072 17.7645 35.3389 17.7993 35.1663C17.8333 34.9946 17.999 34.8765 18.1741 34.9173L44.3508 40.1677C44.5225 40.2026 44.6347 40.3709 44.6007 40.5434C44.5701 40.6947 44.4375 40.7993 44.2879 40.7993Z" fill="white"/>
<path d="M18.1972 33.596C18.0901 33.596 17.9847 33.5416 17.9252 33.4421C17.8343 33.2917 17.881 33.0962 18.0323 33.0044L30.3743 25.5023C30.5222 25.4105 30.7203 25.4581 30.8121 25.6094C30.903 25.7598 30.8563 25.9553 30.705 26.0471L18.363 33.5492C18.3103 33.5815 18.2533 33.596 18.1972 33.596Z" fill="white"/>
<path d="M30.0288 24.4302H15.6859C15.51 24.4302 15.3672 24.2874 15.3672 24.1115C15.3672 23.9355 15.51 23.7927 15.6859 23.7927H30.0288C30.2048 23.7927 30.3476 23.9355 30.3476 24.1115C30.3476 24.2874 30.2048 24.4302 30.0288 24.4302Z" fill="white"/>
<path d="M33.8456 24.1113C33.8456 25.2375 32.9327 26.1513 31.8056 26.1513C30.6794 26.1513 29.7656 25.2384 29.7656 24.1113C29.7656 22.985 30.6785 22.0713 31.8056 22.0713C32.9319 22.0721 33.8456 22.985 33.8456 24.1113Z" fill="white"/>
<path d="M18.6425 34.6704C18.6425 35.7966 17.7296 36.7104 16.6025 36.7104C15.4762 36.7104 14.5625 35.7975 14.5625 34.6704C14.5625 33.5441 15.4754 32.6304 16.6025 32.6304C17.7296 32.6304 18.6425 33.5441 18.6425 34.6704Z" fill="white"/>
</svg>
