<svg width="75" height="58" viewBox="0 0 75 58" fill="none" xmlns="http://www.w3.org/2000/svg">
<path d="M62.34 57.6026H12.8725C6.26378 57.6026 0.90625 52.245 0.90625 45.6363V12.6401C0.90625 6.03138 6.26378 0.673828 12.8725 0.673828H62.34C68.9487 0.673828 74.3063 6.03138 74.3063 12.6401V45.6363C74.3072 52.245 68.9496 57.6026 62.34 57.6026Z" fill="#81CBFF"/>
<path d="M14.8771 33.2906C12.8779 31.4146 11.6641 28.9632 11.6641 26.2781C11.6641 20.3825 17.5019 15.6038 24.7039 15.6038C31.906 15.6038 37.7438 20.3833 37.7438 26.2781C37.7438 32.1728 31.906 36.9524 24.7039 36.9524C22.3477 36.9524 20.1394 36.4381 18.232 35.5431C16.2048 36.9566 13.5154 38.8258 13.5154 38.8258L14.8771 33.2906Z" fill="#436BD0"/>
<path d="M59.6522 38.7509C62.0756 36.478 63.5461 33.5064 63.5461 30.2526C63.5461 23.1083 56.4716 17.3164 47.7438 17.3164C39.0168 17.3164 31.9414 23.1083 31.9414 30.2526C31.9414 37.3968 39.016 43.1887 47.7438 43.1887C50.5989 43.1887 53.2755 42.5657 55.5867 41.4811C58.0432 43.1947 61.3021 45.4591 61.3021 45.4591L59.6522 38.7509Z" fill="white"/>
<path d="M54.5548 30.8326C54.5548 31.6545 53.8884 32.3209 53.0665 32.3209C52.2445 32.3209 51.5781 31.6545 51.5781 30.8326C51.5781 30.0106 52.2445 29.3442 53.0665 29.3442C53.8884 29.3442 54.5548 30.0106 54.5548 30.8326Z" fill="#171C4F"/>
<path d="M49.2345 30.8326C49.2345 31.6545 48.5681 32.3209 47.7462 32.3209C46.9242 32.3209 46.2578 31.6545 46.2578 30.8326C46.2578 30.0106 46.9242 29.3442 47.7462 29.3442C48.5681 29.3442 49.2345 30.0106 49.2345 30.8326Z" fill="#171C4F"/>
<path d="M43.9181 30.8326C43.9181 31.6545 43.2517 32.3209 42.4298 32.3209C41.6078 32.3209 40.9414 31.6545 40.9414 30.8326C40.9414 30.0106 41.6078 29.3442 42.4298 29.3442C43.2517 29.3442 43.9181 30.0106 43.9181 30.8326Z" fill="#171C4F"/>
<path d="M28.8542 27.7746C29.4964 27.7746 30.017 27.254 30.017 26.6118C30.017 25.9696 29.4964 25.449 28.8542 25.449C28.212 25.449 27.6914 25.9696 27.6914 26.6118C27.6914 27.254 28.212 27.7746 28.8542 27.7746Z" fill="white"/>
<path d="M24.7018 27.7746C25.344 27.7746 25.8647 27.254 25.8647 26.6118C25.8647 25.9696 25.344 25.449 24.7018 25.449C24.0596 25.449 23.5391 25.9696 23.5391 26.6118C23.5391 27.254 24.0596 27.7746 24.7018 27.7746Z" fill="white"/>
<path d="M20.5456 27.7746C21.1878 27.7746 21.7084 27.254 21.7084 26.6118C21.7084 25.9696 21.1878 25.449 20.5456 25.449C19.9034 25.449 19.3828 25.9696 19.3828 26.6118C19.3828 27.254 19.9034 27.7746 20.5456 27.7746Z" fill="white"/>
</svg>
