<svg width="45" height="35" viewBox="0 0 45 35" fill="none" xmlns="http://www.w3.org/2000/svg">
<path d="M37.5745 34.7506H7.79905C3.8049 34.7506 0.566406 31.5121 0.566406 27.518V7.47752C0.566406 3.48252 3.8049 0.244873 7.79905 0.244873H37.5745C41.5687 0.244873 44.8072 3.48337 44.8072 7.47752V27.518C44.8072 31.513 41.5687 34.7506 37.5745 34.7506Z" fill="#81CBFF"/>
<path d="M34.301 19.3753C35.3381 12.9568 30.9755 6.91282 24.5569 5.87579C18.1384 4.83876 12.0944 9.20135 11.0574 15.6199C10.0204 22.0384 14.383 28.0824 20.8015 29.1194C27.2201 30.1564 33.264 25.7939 34.301 19.3753Z" fill="#CE2E79"/>
<path d="M26.4423 16.9958C24.4389 16.9958 22.8086 18.6262 22.8086 20.6296C22.8086 22.6331 24.4389 24.2633 26.4423 24.2633C28.4458 24.2633 30.0761 22.6331 30.0761 20.6296C30.0752 18.6262 28.4458 16.9958 26.4423 16.9958ZM26.4423 22.633C25.3373 22.633 24.4389 21.7346 24.4389 20.6296C24.4389 19.5246 25.3382 18.6261 26.4423 18.6261C27.5473 18.6261 28.4458 19.5246 28.4458 20.6296C28.4458 21.7346 27.5465 22.633 26.4423 22.633Z" fill="white"/>
<path d="M22.5683 14.5232C22.5683 12.5197 20.938 10.8894 18.9345 10.8894C16.9311 10.8894 15.3008 12.5197 15.3008 14.5232C15.3008 16.5266 16.9311 18.1561 18.9345 18.1561C20.938 18.1561 22.5683 16.5266 22.5683 14.5232ZM16.9311 14.5232C16.9311 13.4182 17.8295 12.5197 18.9345 12.5197C20.0395 12.5197 20.938 13.4182 20.938 14.5232C20.938 15.6282 20.0387 16.5266 18.9345 16.5266C17.8295 16.5266 16.9311 15.6273 16.9311 14.5232Z" fill="white"/>
<path d="M26.1629 11.0237L17.8633 23.2361L19.2117 24.1525L27.5113 11.9401L26.1629 11.0237Z" fill="white"/>
</svg>
