<svg width="35" height="35" viewBox="0 0 35 35" fill="none" xmlns="http://www.w3.org/2000/svg">
<path d="M24.4922 17.5039C24.4922 21.3699 21.3582 24.5039 17.4922 24.5039C13.6262 24.5039 10.4922 21.3699 10.4922 17.5039C10.4922 13.6379 13.6262 10.5039 17.4922 10.5039C21.3582 10.5039 24.4922 13.6379 24.4922 17.5039Z" fill="#F9C416"/>
<circle cx="17.5" cy="17.5" r="16.5" fill="url(#paint0_linear_53523_8200)" stroke="#FBEFCA" stroke-width="2"/>
<g clip-path="url(#clip0_53523_8200)">
<rect width="16.1538" height="13.4615" transform="translate(9.42188 10.7695)" fill="white" fill-opacity="0.01"/>
<path d="M24.1867 12.4278C24.0865 12.3312 23.9674 12.2546 23.8362 12.2023C23.705 12.15 23.5642 12.123 23.422 12.123C23.2799 12.123 23.1391 12.15 23.0079 12.2023C22.8767 12.2546 22.7575 12.3312 22.6574 12.4278L14.6344 20.1132L11.2636 16.8783C11.1596 16.7823 11.0369 16.7067 10.9025 16.6561C10.768 16.6054 10.6244 16.5805 10.4799 16.5829C10.3354 16.5853 10.1928 16.6149 10.0603 16.67C9.92774 16.7251 9.80784 16.8047 9.70743 16.9041C9.60702 17.0035 9.52807 17.1209 9.47508 17.2495C9.42209 17.3782 9.3961 17.5155 9.3986 17.6538C9.4011 17.792 9.43204 17.9284 9.48965 18.0552C9.54726 18.182 9.63041 18.2967 9.73435 18.3928L13.8697 22.3488C13.9699 22.4454 14.089 22.522 14.2202 22.5743C14.3514 22.6266 14.4922 22.6535 14.6344 22.6535C14.7765 22.6535 14.9173 22.6266 15.0485 22.5743C15.1797 22.522 15.2989 22.4454 15.399 22.3488L24.1867 13.9422C24.296 13.8457 24.3832 13.7286 24.4429 13.5983C24.5026 13.468 24.5334 13.3273 24.5334 13.185C24.5334 13.0427 24.5026 12.902 24.4429 12.7717C24.3832 12.6413 24.296 12.5243 24.1867 12.4278Z" fill="white"/>
</g>
<defs>
<linearGradient id="paint0_linear_53523_8200" x1="5.38462" y1="22.2115" x2="44.4231" y2="3.36538" gradientUnits="userSpaceOnUse">
<stop stop-color="#F9C416"/>
<stop offset="1" stop-color="#FFF8E2"/>
</linearGradient>
<clipPath id="clip0_53523_8200">
<rect width="16.1538" height="13.4615" fill="white" transform="translate(9.42188 10.7695)"/>
</clipPath>
</defs>
</svg>
