<svg width="47" height="47" viewBox="0 0 47 47" fill="none" xmlns="http://www.w3.org/2000/svg">
<circle cx="23.5" cy="23.5" r="23.5" fill="url(#paint0_linear_51354_787)"/>
<path d="M17.4482 22.5L17.6019 22.2338L20.7871 16.7176L18.063 12L12 22.5L18.063 33L20.7871 28.2824L17.6019 22.7662L17.4482 22.5Z" fill="#222221"/>
<path d="M26.6463 27.4838L24.3833 31.4029L19.2425 22.5L24.3833 13.5972L26.6463 17.5162L27.1074 16.7176L24.3833 12L18.3203 22.5L24.3833 33L27.1074 28.2824L26.6463 27.4838Z" fill="#222221"/>
<path d="M30.5528 21.218L30.5577 21.2209V19.5273L26.7344 26.1488L27.22 26.9898L30.5528 21.218Z" fill="#222221"/>
<path d="M30.5495 18.9035L30.5544 18.9063V17.2129L26.0625 24.992L26.5481 25.8331L30.5495 18.9035Z" fill="#222221"/>
<path d="M25.2195 23.5159L30.5578 14.271L30.5627 14.2738V12.2305L24.6328 22.4999L25.2195 23.5159Z" fill="#222221"/>
<path d="M30.5539 16.5871L30.5588 16.5899V14.8965L25.3984 23.8333L25.8841 24.6743L30.5539 16.5871Z" fill="#222221"/>
<path d="M30.8203 12.2305V32.7695L36.7502 22.5L30.8203 12.2305Z" fill="#222221"/>
<path d="M30.5562 23.5324L30.5611 23.5352V21.8418L27.4062 27.3055L27.8918 28.1465L30.5562 23.5324Z" fill="#222221"/>
<path d="M30.5596 25.8488L30.5645 25.8517V24.1582L28.0781 28.4642L28.5638 29.3053L30.5596 25.8488Z" fill="#222221"/>
<path d="M30.5583 30.5664L29.9219 31.6686L30.5583 32.7708V30.5664Z" fill="#222221"/>
<path d="M29.752 31.3495L30.5664 29.9392L30.5713 29.9421V28.7871L29.4219 30.7778L29.752 31.3495Z" fill="#222221"/>
<path d="M30.5552 28.1633L30.5601 28.1661V26.4727L28.7422 29.621L29.2278 30.462L30.5552 28.1633Z" fill="#222221"/>
<defs>
<linearGradient id="paint0_linear_51354_787" x1="69" y1="-9.99999" x2="-5.5" y2="66" gradientUnits="userSpaceOnUse">
<stop stop-color="white"/>
<stop offset="1" stop-color="#D5D5D5"/>
</linearGradient>
</defs>
</svg>
