<svg width="61" height="49" viewBox="0 0 61 49" fill="none" xmlns="http://www.w3.org/2000/svg">
<ellipse cx="49" cy="13" rx="2" ry="2" transform="rotate(90 49 13)" fill="#F9C416"/>
<ellipse cx="49" cy="25" rx="2" ry="2" transform="rotate(90 49 25)" fill="#F9C416"/>
<ellipse cx="49" cy="36" rx="2" ry="2" transform="rotate(90 49 36)" fill="#F9C416"/>
<ellipse cx="49" cy="47" rx="2" ry="2" transform="rotate(90 49 47)" fill="#F9C416"/>
<ellipse cx="38" cy="13" rx="2" ry="2" transform="rotate(90 38 13)" fill="#F9C416"/>
<ellipse cx="38" cy="25" rx="2" ry="2" transform="rotate(90 38 25)" fill="#F9C416"/>
<ellipse cx="38" cy="36" rx="2" ry="2" transform="rotate(90 38 36)" fill="#F9C416"/>
<ellipse cx="38" cy="47" rx="2" ry="2" transform="rotate(90 38 47)" fill="#F9C416"/>
<ellipse cx="38" cy="2" rx="2" ry="2" transform="rotate(90 38 2)" fill="#F9C416"/>
<ellipse cx="49" cy="2" rx="2" ry="2" transform="rotate(90 49 2)" fill="#F9C416"/>
<ellipse cx="59" cy="2" rx="2" ry="2" transform="rotate(90 59 2)" fill="#F9C416"/>
<ellipse cx="59" cy="13" rx="2" ry="2" transform="rotate(90 59 13)" fill="#F9C416"/>
<ellipse cx="59" cy="25" rx="2" ry="2" transform="rotate(90 59 25)" fill="#F9C416"/>
<ellipse cx="59" cy="36" rx="2" ry="2" transform="rotate(90 59 36)" fill="#F9C416"/>
<ellipse cx="59" cy="47" rx="2" ry="2" transform="rotate(90 59 47)" fill="#F9C416"/>
<ellipse cx="26" cy="13" rx="2" ry="2" transform="rotate(90 26 13)" fill="#F9C416"/>
<ellipse cx="26" cy="25" rx="2" ry="2" transform="rotate(90 26 25)" fill="#F9C416"/>
<ellipse cx="26" cy="36" rx="2" ry="2" transform="rotate(90 26 36)" fill="#F9C416"/>
<ellipse cx="26" cy="47" rx="2" ry="2" transform="rotate(90 26 47)" fill="#F9C416"/>
<ellipse cx="26" cy="2" rx="2" ry="2" transform="rotate(90 26 2)" fill="#F9C416"/>
<ellipse cx="14" cy="13" rx="2" ry="2" transform="rotate(90 14 13)" fill="#F9C416"/>
<ellipse cx="14" cy="25" rx="2" ry="2" transform="rotate(90 14 25)" fill="#F9C416"/>
<ellipse cx="14" cy="36" rx="2" ry="2" transform="rotate(90 14 36)" fill="#F9C416"/>
<ellipse cx="14" cy="47" rx="2" ry="2" transform="rotate(90 14 47)" fill="#F9C416"/>
<ellipse cx="14" cy="2" rx="2" ry="2" transform="rotate(90 14 2)" fill="#F9C416"/>
<ellipse cx="2" cy="13" rx="2" ry="2" transform="rotate(90 2 13)" fill="#F9C416"/>
<ellipse cx="2" cy="25" rx="2" ry="2" transform="rotate(90 2 25)" fill="#F9C416"/>
<ellipse cx="2" cy="36" rx="2" ry="2" transform="rotate(90 2 36)" fill="#F9C416"/>
<ellipse cx="2" cy="47" rx="2" ry="2" transform="rotate(90 2 47)" fill="#F9C416"/>
<ellipse cx="2" cy="2" rx="2" ry="2" transform="rotate(90 2 2)" fill="#F9C416"/>
</svg>
