<svg width="510" height="340" viewBox="0 0 510 340" fill="none" xmlns="http://www.w3.org/2000/svg">
<g clip-path="url(#clip0_53042_24388)">
<path d="M479.831 219.658C478.66 213.101 475.717 207.082 471.266 201.679C459.855 187.829 457.074 168.638 464.622 152.357C474.759 130.494 477.361 107.737 470.554 86.4434C450.953 25.1371 360.783 -0.81251 269.151 28.4827C259.92 31.4339 251.028 34.8331 242.519 38.6232C212.041 52.1986 177.789 53.9215 145.8 44.4415C112.511 34.5755 80.1724 40.149 62.1133 62.0951C47.5885 79.7462 45.2357 104.423 53.2419 129.415C57.0533 141.313 54.2925 154.426 45.6012 163.4C38.4876 170.746 33.572 179.231 31.3289 188.723C19.9814 236.725 52.0434 289.122 168.17 312.843C213.211 322.043 326.075 318.193 356.263 312.799C431.304 299.391 486.627 257.69 479.831 219.658Z" fill="#FFF8EA"/>
<path d="M280.082 274.799H231.062L235.874 241.77L236.593 236.831L237.209 232.567L239.152 219.221H271.993L273.653 230.641L275.648 244.331L276.316 248.936L280.082 274.799Z" fill="#006E7E"/>
<path d="M275.649 244.332L235.875 241.772L236.594 236.832L237.21 232.569L273.654 230.643L275.649 244.332Z" fill="#171C4F"/>
<path d="M371.779 89.124V233.119C371.779 236.603 368.954 239.437 365.461 239.437H146.951C143.458 239.437 140.633 236.603 140.633 233.119V89.124C140.633 85.6399 143.458 82.8145 146.951 82.8145H365.461C368.954 82.8145 371.779 85.6399 371.779 89.124Z" fill="#171C4F"/>
<path d="M366.727 88.0312H145.688V208.952H366.727V88.0312Z" fill="#FCFAF5"/>
<path d="M365.462 239.435H146.948C143.46 239.435 140.633 236.607 140.633 233.12V216.699H371.778V233.12C371.778 236.608 368.95 239.435 365.462 239.435Z" fill="#006E7E"/>
<path d="M301.044 289.958H210.102L231.019 274.801H280.126L301.044 289.958Z" fill="#006E7E"/>
<path d="M298.518 292.483H212.628C211.233 292.483 210.102 291.352 210.102 289.957H301.044C301.044 291.353 299.913 292.483 298.518 292.483Z" fill="#6784D0"/>
<path d="M198.402 152.813H180.58C179.647 152.813 178.891 152.056 178.891 151.123V133.301C178.891 132.368 179.647 131.611 180.58 131.611H198.402C199.336 131.611 200.092 132.368 200.092 133.301V151.123C200.092 152.056 199.336 152.813 198.402 152.813Z" fill="white"/>
<path d="M198.402 177.295H180.58C179.647 177.295 178.891 176.539 178.891 175.606V157.784C178.891 156.85 179.647 156.094 180.58 156.094H198.402C199.336 156.094 200.092 156.85 200.092 157.784V175.606C200.092 176.539 199.336 177.295 198.402 177.295Z" fill="white"/>
<path d="M198.402 201.778H180.58C179.647 201.778 178.891 201.021 178.891 200.088V182.266C178.891 181.333 179.647 180.576 180.58 180.576H198.402C199.336 180.576 200.092 181.333 200.092 182.266V200.088C200.092 201.021 199.336 201.778 198.402 201.778Z" fill="white"/>
<path d="M196.94 150.138H192.875C192.858 149.585 192.848 149.03 192.842 148.477C192.836 148.143 192.834 147.813 192.832 147.48L192.83 147.154L192.819 145.689L192.82 143.898C192.835 142.831 192.733 141.762 192.542 140.699C192.452 140.164 192.334 139.658 192.193 139.051C192.062 138.465 191.941 137.879 191.836 137.285L194.258 136.258C194.517 136.801 194.868 137.558 195.105 138.107C195.226 138.389 195.334 138.642 195.459 138.959C195.575 139.265 195.683 139.574 195.783 139.886C196.175 141.139 196.412 142.443 196.516 143.76L196.653 145.545L196.775 147.332C196.84 148.266 196.895 149.202 196.94 150.138Z" fill="#FDD172"/>
<path d="M182.031 150.137H186.097C186.121 149.251 186.136 148.365 186.139 147.478L186.154 145.687L186.152 143.897C186.138 142.829 186.24 141.76 186.43 140.697C186.52 140.162 186.638 139.656 186.779 139.049C186.91 138.463 187.031 137.877 187.136 137.283L184.715 136.256C184.455 136.799 184.104 137.556 183.867 138.105C183.747 138.387 183.639 138.64 183.514 138.957C183.397 139.263 183.289 139.572 183.189 139.885C182.797 141.137 182.56 142.441 182.456 143.758L182.319 145.543L182.197 147.33C182.132 148.265 182.076 149.201 182.031 150.137Z" fill="#FDD172"/>
<path d="M186.001 148.792H182.086C182.056 148.792 182.031 148.768 182.031 148.738C182.031 148.708 182.056 148.684 182.086 148.684H186.001C186.03 148.684 186.055 148.708 186.055 148.738C186.055 148.768 186.03 148.792 186.001 148.792Z" fill="#E2994B"/>
<path d="M196.821 148.792H192.906C192.876 148.792 192.852 148.768 192.852 148.738C192.852 148.708 192.876 148.684 192.906 148.684H196.821C196.851 148.684 196.875 148.708 196.875 148.738C196.875 148.768 196.851 148.792 196.821 148.792Z" fill="#E2994B"/>
<path d="M186.126 148.663C186.126 148.649 185.258 147.274 185.258 147.274L186.14 147.156L186.126 148.663Z" fill="#171C4F"/>
<path d="M193.733 147.276C193.733 147.276 192.866 148.65 192.866 148.665L192.84 148.477C192.834 148.144 192.832 147.813 192.83 147.481L192.828 147.154L193.733 147.276Z" fill="#171C4F"/>
<path d="M189.497 135.094C187.952 135.094 186.427 135.441 185.035 136.11L184.727 136.257L185.26 147.392H193.731L194.266 136.257L193.958 136.11C192.565 135.441 191.041 135.094 189.497 135.094Z" fill="#FDD172"/>
<path d="M191.684 135.422L191.364 137.948L189.703 136.246L190.917 134.287L191.684 135.422Z" fill="#E2994B"/>
<path d="M189.698 136.246L188.484 134.287H190.912L189.698 136.246Z" fill="#171C4F"/>
<path d="M187.727 135.422L188.046 137.948L189.707 136.246L188.493 134.287L187.727 135.422Z" fill="#E2994B"/>
<path d="M185.465 147.444C185.436 147.444 185.412 147.421 185.411 147.392L185.039 139.249C185.037 139.219 185.061 139.194 185.091 139.192C185.124 139.187 185.146 139.214 185.148 139.244L185.519 147.386C185.521 147.416 185.497 147.441 185.468 147.443L185.465 147.444Z" fill="#E2994B"/>
<path d="M193.937 147.445H193.935C193.905 147.444 193.881 147.418 193.883 147.389L194.274 139.246C194.276 139.216 194.299 139.19 194.331 139.194C194.361 139.195 194.384 139.221 194.383 139.251L193.992 147.393C193.99 147.423 193.966 147.445 193.937 147.445Z" fill="#E2994B"/>
<path d="M189.695 147.445C189.665 147.445 189.641 147.421 189.641 147.391V136.246C189.641 136.216 189.665 136.191 189.695 136.191C189.725 136.191 189.749 136.216 189.749 136.246V147.391C189.749 147.422 189.725 147.445 189.695 147.445Z" fill="#E2994B"/>
<path d="M188.89 162.416V166.603L187.519 169.233C186.909 170.403 185.857 171.282 184.596 171.674L182.803 172.232C182.474 172.334 182.25 172.638 182.25 172.983H186.522H189.958L192.707 168.977L193.336 172.983H194.735V168.189V167.978V162.417L188.89 162.416Z" fill="#171C4F"/>
<path d="M326.795 144.997H309.148C306.844 144.997 304.969 143.122 304.969 140.818C304.969 140.332 305.054 139.854 305.22 139.397C305.261 139.275 305.316 139.145 305.378 139.021C305.575 138.598 305.85 138.206 306.192 137.864C306.982 137.075 308.031 136.641 309.148 136.641H326.795C328.426 136.641 329.872 137.556 330.568 139.029C330.627 139.146 330.684 139.276 330.726 139.407C330.889 139.855 330.974 140.334 330.974 140.82C330.974 141.937 330.538 142.987 329.75 143.776C328.961 144.563 327.911 144.997 326.795 144.997ZM309.148 137.277C308.202 137.277 307.312 137.645 306.643 138.314C306.354 138.604 306.121 138.935 305.951 139.299C305.898 139.404 305.855 139.506 305.821 139.608C305.678 140.002 305.606 140.407 305.606 140.818C305.606 142.771 307.195 144.359 309.148 144.359H326.795C327.74 144.359 328.63 143.991 329.298 143.322C329.967 142.654 330.336 141.764 330.336 140.818C330.336 140.407 330.265 140.002 330.124 139.616C330.087 139.505 330.044 139.404 329.995 139.308C329.402 138.052 328.177 137.277 326.795 137.277H309.148Z" fill="white"/>
<path d="M315.805 143.027L317.161 143.661L317.259 143.708L317.267 143.712C317.623 143.806 318.186 143.336 318.713 142.555C318.91 142.261 319.103 141.922 319.278 141.553C319.566 140.946 319.758 140.354 319.846 139.859C319.96 139.207 319.891 138.725 319.619 138.597L318.215 137.932C318.215 137.932 318.007 138.377 317.714 139.005C317.381 139.714 316.939 140.653 316.564 141.446C316.148 142.325 315.816 143.024 315.805 143.027Z" fill="#FFA901"/>
<mask id="mask0_53042_24388" style="mask-type:luminance" maskUnits="userSpaceOnUse" x="315" y="137" width="5" height="7">
<path d="M315.805 143.027L317.161 143.661L317.259 143.708L317.267 143.712C317.623 143.806 318.186 143.336 318.713 142.555C318.91 142.261 319.103 141.922 319.278 141.553C319.566 140.946 319.758 140.354 319.846 139.859C319.96 139.207 319.891 138.725 319.619 138.597L318.215 137.932C318.215 137.932 318.007 138.377 317.714 139.005C317.381 139.714 316.939 140.653 316.564 141.446C316.148 142.325 315.816 143.024 315.805 143.027Z" fill="white"/>
</mask>
<g mask="url(#mask0_53042_24388)">
<path d="M320.701 146.372C320.67 146.372 320.637 146.365 320.607 146.35L314.938 143.537C314.833 143.484 314.79 143.358 314.843 143.252C314.895 143.148 315.022 143.105 315.128 143.156L320.796 145.969C320.901 146.021 320.944 146.148 320.891 146.254C320.854 146.329 320.778 146.372 320.701 146.372Z" fill="#8A5703"/>
<path d="M320.81 145.196C320.779 145.196 320.747 145.189 320.716 145.174L315.047 142.361C314.943 142.309 314.899 142.182 314.952 142.077C315.003 141.972 315.131 141.93 315.237 141.981L320.906 144.793C321.01 144.845 321.053 144.973 321.001 145.078C320.963 145.154 320.888 145.196 320.81 145.196Z" fill="#8A5703"/>
<path d="M320.912 144.022C320.88 144.022 320.848 144.015 320.818 144L315.149 141.187C315.044 141.135 315.001 141.008 315.054 140.902C315.105 140.799 315.232 140.756 315.338 140.806L321.007 143.619C321.112 143.672 321.155 143.799 321.102 143.904C321.066 143.978 320.99 144.022 320.912 144.022Z" fill="#8A5703"/>
<path d="M321.021 142.847C320.99 142.847 320.958 142.84 320.927 142.825L315.258 140.012C315.154 139.96 315.11 139.833 315.163 139.727C315.215 139.622 315.342 139.58 315.448 139.631L321.116 142.444C321.221 142.496 321.264 142.623 321.212 142.728C321.174 142.803 321.099 142.847 321.021 142.847Z" fill="#8A5703"/>
<path d="M321.131 141.67C321.099 141.67 321.067 141.663 321.036 141.647L315.368 138.835C315.263 138.782 315.22 138.655 315.272 138.549C315.324 138.445 315.452 138.402 315.557 138.453L321.226 141.266C321.33 141.319 321.374 141.446 321.321 141.551C321.285 141.626 321.209 141.67 321.131 141.67Z" fill="#8A5703"/>
<path d="M321.24 140.496C321.209 140.496 321.176 140.489 321.146 140.474L315.477 137.661C315.372 137.608 315.329 137.481 315.382 137.375C315.434 137.271 315.561 137.228 315.667 137.279L321.335 140.092C321.44 140.145 321.483 140.271 321.43 140.378C321.394 140.452 321.318 140.496 321.24 140.496Z" fill="#8A5703"/>
<path d="M321.349 139.32C321.318 139.32 321.286 139.313 321.255 139.298L315.586 136.485C315.482 136.432 315.439 136.306 315.491 136.2C315.543 136.095 315.67 136.052 315.776 136.104L321.445 138.917C321.549 138.969 321.593 139.096 321.54 139.202C321.503 139.276 321.428 139.32 321.349 139.32Z" fill="#8A5703"/>
</g>
<path opacity="0.5" d="M315.805 143.026L317.161 143.661L317.259 143.708L317.267 143.711C317.623 143.806 318.186 143.336 318.713 142.555L316.564 141.445C316.148 142.325 315.816 143.024 315.805 143.026Z" fill="#8A5703"/>
<path d="M316.142 140.07C315.477 141.477 315.324 142.8 315.802 143.026C316.279 143.253 317.206 142.295 317.871 140.888C318.537 139.481 318.69 138.158 318.212 137.932C317.735 137.705 316.808 138.663 316.142 140.07Z" fill="#FDCD68"/>
<path d="M311.117 143.027L312.474 143.661L312.572 143.708L312.579 143.712C312.935 143.806 313.499 143.336 314.025 142.555C314.222 142.261 314.415 141.922 314.59 141.553C314.878 140.946 315.071 140.354 315.158 139.859C315.272 139.207 315.203 138.725 314.932 138.597L313.528 137.932C313.528 137.932 313.32 138.377 313.026 139.005C312.694 139.714 312.251 140.653 311.876 141.446C311.461 142.325 311.128 143.024 311.117 143.027Z" fill="#FFA901"/>
<mask id="mask1_53042_24388" style="mask-type:luminance" maskUnits="userSpaceOnUse" x="311" y="137" width="5" height="7">
<path d="M311.117 143.027L312.474 143.661L312.572 143.708L312.579 143.712C312.935 143.806 313.499 143.336 314.025 142.555C314.222 142.261 314.415 141.922 314.59 141.553C314.878 140.946 315.071 140.354 315.158 139.859C315.272 139.207 315.203 138.725 314.932 138.597L313.528 137.932C313.528 137.932 313.32 138.377 313.026 139.005C312.694 139.714 312.251 140.653 311.876 141.446C311.461 142.325 311.128 143.024 311.117 143.027Z" fill="white"/>
</mask>
<g mask="url(#mask1_53042_24388)">
<path d="M316.013 146.372C315.982 146.372 315.95 146.365 315.919 146.35L310.25 143.537C310.146 143.484 310.103 143.358 310.155 143.252C310.207 143.148 310.335 143.105 310.44 143.156L316.109 145.969C316.213 146.021 316.257 146.148 316.204 146.254C316.167 146.329 316.092 146.372 316.013 146.372Z" fill="#8A5703"/>
<path d="M316.123 145.196C316.091 145.196 316.059 145.189 316.028 145.174L310.36 142.361C310.255 142.309 310.212 142.182 310.265 142.077C310.317 141.972 310.443 141.93 310.549 141.981L316.218 144.793C316.323 144.845 316.366 144.973 316.313 145.078C316.277 145.154 316.201 145.196 316.123 145.196Z" fill="#8A5703"/>
<path d="M316.224 144.022C316.192 144.022 316.16 144.015 316.129 144L310.461 141.187C310.357 141.135 310.314 141.008 310.366 140.902C310.417 140.799 310.545 140.756 310.651 140.806L316.319 143.619C316.423 143.672 316.467 143.799 316.414 143.904C316.377 143.978 316.302 144.022 316.224 144.022Z" fill="#8A5703"/>
<path d="M316.334 142.847C316.302 142.847 316.27 142.84 316.239 142.825L310.571 140.012C310.466 139.96 310.423 139.833 310.476 139.727C310.527 139.622 310.655 139.58 310.76 139.631L316.429 142.444C316.534 142.496 316.577 142.623 316.524 142.728C316.487 142.803 316.412 142.847 316.334 142.847Z" fill="#8A5703"/>
<path d="M316.451 141.67C316.42 141.67 316.387 141.663 316.357 141.647L310.688 138.835C310.583 138.782 310.54 138.655 310.593 138.549C310.645 138.445 310.771 138.402 310.878 138.453L316.546 141.266C316.651 141.319 316.694 141.446 316.641 141.551C316.604 141.626 316.529 141.67 316.451 141.67Z" fill="#8A5703"/>
<path d="M316.553 140.496C316.521 140.496 316.489 140.489 316.458 140.474L310.79 137.661C310.685 137.608 310.642 137.481 310.694 137.375C310.746 137.271 310.873 137.228 310.979 137.279L316.648 140.092C316.752 140.145 316.796 140.271 316.743 140.378C316.706 140.452 316.631 140.496 316.553 140.496Z" fill="#8A5703"/>
<path d="M316.662 139.32C316.63 139.32 316.598 139.313 316.568 139.298L310.899 136.485C310.794 136.432 310.751 136.306 310.804 136.2C310.856 136.095 310.982 136.052 311.088 136.104L316.757 138.917C316.862 138.969 316.905 139.096 316.852 139.202C316.815 139.276 316.739 139.32 316.662 139.32Z" fill="#8A5703"/>
</g>
<path opacity="0.5" d="M311.117 143.026L312.474 143.661L312.572 143.708L312.579 143.711C312.935 143.806 313.499 143.336 314.025 142.555L311.876 141.445C311.461 142.325 311.128 143.024 311.117 143.026Z" fill="#8A5703"/>
<path d="M311.455 140.07C310.789 141.477 310.636 142.8 311.114 143.026C311.592 143.253 312.518 142.295 313.184 140.888C313.849 139.481 314.002 138.158 313.525 137.932C313.048 137.705 312.121 138.663 311.455 140.07Z" fill="#FDCD68"/>
<path d="M320.492 143.027L321.849 143.661L321.947 143.708L321.954 143.712C322.31 143.806 322.874 143.336 323.4 142.555C323.597 142.261 323.79 141.922 323.965 141.553C324.253 140.946 324.446 140.354 324.533 139.859C324.647 139.207 324.578 138.725 324.307 138.597L322.903 137.932C322.903 137.932 322.695 138.377 322.401 139.005C322.069 139.714 321.626 140.653 321.251 141.446C320.836 142.325 320.504 143.024 320.492 143.027Z" fill="#FFA901"/>
<mask id="mask2_53042_24388" style="mask-type:luminance" maskUnits="userSpaceOnUse" x="320" y="137" width="5" height="7">
<path d="M320.492 143.027L321.849 143.661L321.947 143.708L321.954 143.712C322.31 143.806 322.874 143.336 323.4 142.555C323.597 142.261 323.79 141.922 323.965 141.553C324.253 140.946 324.446 140.354 324.533 139.859C324.647 139.207 324.578 138.725 324.307 138.597L322.903 137.932C322.903 137.932 322.695 138.377 322.401 139.005C322.069 139.714 321.626 140.653 321.251 141.446C320.836 142.325 320.504 143.024 320.492 143.027Z" fill="white"/>
</mask>
<g mask="url(#mask2_53042_24388)">
<path d="M325.388 146.372C325.357 146.372 325.325 146.365 325.294 146.35L319.625 143.537C319.521 143.484 319.478 143.358 319.53 143.252C319.582 143.148 319.709 143.105 319.815 143.156L325.484 145.969C325.588 146.021 325.632 146.148 325.579 146.254C325.542 146.329 325.467 146.372 325.388 146.372Z" fill="#8A5703"/>
<path d="M325.498 145.196C325.466 145.196 325.434 145.189 325.404 145.174L319.735 142.361C319.63 142.309 319.587 142.182 319.64 142.077C319.692 141.972 319.818 141.93 319.924 141.981L325.593 144.793C325.698 144.845 325.741 144.973 325.688 145.078C325.652 145.154 325.576 145.196 325.498 145.196Z" fill="#8A5703"/>
<path d="M325.599 144.022C325.568 144.022 325.536 144.015 325.505 144L319.836 141.187C319.732 141.135 319.689 141.008 319.741 140.902C319.793 140.799 319.92 140.756 320.026 140.806L325.695 143.619C325.799 143.672 325.843 143.799 325.79 143.904C325.753 143.978 325.678 144.022 325.599 144.022Z" fill="#8A5703"/>
<path d="M325.709 142.847C325.677 142.847 325.645 142.84 325.614 142.825L319.946 140.012C319.841 139.96 319.798 139.833 319.851 139.727C319.902 139.622 320.029 139.58 320.135 139.631L325.804 142.444C325.909 142.496 325.952 142.623 325.899 142.728C325.863 142.803 325.787 142.847 325.709 142.847Z" fill="#8A5703"/>
<path d="M325.826 141.67C325.795 141.67 325.762 141.663 325.732 141.647L320.063 138.835C319.958 138.782 319.915 138.655 319.968 138.549C320.02 138.445 320.146 138.402 320.253 138.453L325.921 141.266C326.026 141.319 326.069 141.446 326.016 141.551C325.98 141.626 325.904 141.67 325.826 141.67Z" fill="#8A5703"/>
<path d="M325.928 140.496C325.896 140.496 325.864 140.489 325.833 140.474L320.165 137.661C320.06 137.608 320.017 137.481 320.069 137.375C320.121 137.271 320.249 137.228 320.354 137.279L326.023 140.092C326.127 140.145 326.171 140.271 326.118 140.378C326.081 140.452 326.006 140.496 325.928 140.496Z" fill="#8A5703"/>
<path d="M326.037 139.32C326.005 139.32 325.973 139.313 325.943 139.298L320.274 136.485C320.169 136.432 320.126 136.306 320.179 136.2C320.231 136.095 320.358 136.052 320.463 136.104L326.132 138.917C326.237 138.969 326.28 139.096 326.227 139.202C326.191 139.276 326.115 139.32 326.037 139.32Z" fill="#8A5703"/>
</g>
<path opacity="0.5" d="M320.492 143.026L321.849 143.661L321.947 143.708L321.954 143.711C322.31 143.806 322.874 143.336 323.4 142.555L321.251 141.445C320.836 142.325 320.504 143.024 320.492 143.026Z" fill="#8A5703"/>
<path d="M320.83 140.07C320.164 141.477 320.011 142.8 320.489 143.026C320.967 143.253 321.893 142.295 322.559 140.888C323.224 139.481 323.377 138.158 322.9 137.932C322.423 137.705 321.496 138.663 320.83 140.07Z" fill="#FDCD68"/>
<path d="M326.795 171.878H309.148C306.844 171.878 304.969 170.002 304.969 167.698C304.969 167.212 305.054 166.733 305.22 166.277C305.261 166.155 305.316 166.024 305.378 165.9C305.575 165.478 305.85 165.086 306.192 164.744C306.982 163.954 308.031 163.52 309.148 163.52H326.795C328.426 163.52 329.872 164.435 330.568 165.908C330.627 166.025 330.684 166.156 330.726 166.286C330.889 166.734 330.974 167.213 330.974 167.699C330.974 168.816 330.538 169.866 329.75 170.654C328.96 171.442 327.91 171.878 326.795 171.878ZM309.148 164.157C308.202 164.157 307.313 164.526 306.643 165.194C306.354 165.484 306.121 165.815 305.951 166.178C305.898 166.284 305.855 166.386 305.821 166.488C305.678 166.882 305.606 167.287 305.606 167.698C305.606 169.651 307.195 171.24 309.148 171.24H326.795C327.74 171.24 328.629 170.871 329.299 170.202C329.967 169.533 330.336 168.644 330.336 167.698C330.336 167.287 330.265 166.881 330.124 166.495C330.087 166.384 330.044 166.283 329.995 166.187C329.402 164.931 328.177 164.156 326.795 164.156H309.148V164.157Z" fill="white"/>
<path d="M315.805 169.905L317.161 170.54L317.259 170.587L317.267 170.591C317.623 170.685 318.186 170.215 318.713 169.434C318.91 169.14 319.103 168.8 319.278 168.432C319.566 167.825 319.758 167.233 319.846 166.737C319.96 166.086 319.891 165.604 319.619 165.476L318.215 164.811C318.215 164.811 318.007 165.256 317.714 165.884C317.381 166.593 316.939 167.532 316.564 168.324C316.148 169.204 315.816 169.903 315.805 169.905Z" fill="#FFA901"/>
<mask id="mask3_53042_24388" style="mask-type:luminance" maskUnits="userSpaceOnUse" x="315" y="164" width="5" height="7">
<path d="M315.805 169.905L317.161 170.54L317.259 170.587L317.267 170.591C317.623 170.685 318.186 170.215 318.713 169.434C318.91 169.14 319.103 168.8 319.278 168.432C319.566 167.825 319.758 167.233 319.846 166.737C319.96 166.086 319.891 165.604 319.619 165.476L318.215 164.811C318.215 164.811 318.007 165.256 317.714 165.884C317.381 166.593 316.939 167.532 316.564 168.324C316.148 169.204 315.816 169.903 315.805 169.905Z" fill="white"/>
</mask>
<g mask="url(#mask3_53042_24388)">
<path d="M320.701 173.25C320.67 173.25 320.637 173.242 320.607 173.227L314.938 170.416C314.833 170.364 314.79 170.236 314.843 170.131C314.895 170.026 315.022 169.985 315.128 170.035L320.796 172.848C320.901 172.899 320.944 173.027 320.891 173.132C320.854 173.206 320.778 173.25 320.701 173.25Z" fill="#8A5703"/>
<path d="M320.81 172.074C320.779 172.074 320.747 172.067 320.716 172.052L315.047 169.24C314.943 169.189 314.899 169.061 314.952 168.956C315.003 168.852 315.131 168.808 315.237 168.86L320.906 171.672C321.01 171.724 321.053 171.852 321.001 171.957C320.963 172.032 320.888 172.074 320.81 172.074Z" fill="#8A5703"/>
<path d="M320.912 170.899C320.88 170.899 320.848 170.892 320.818 170.877L315.149 168.064C315.044 168.012 315.001 167.885 315.054 167.78C315.105 167.675 315.232 167.633 315.338 167.684L321.007 170.496C321.112 170.549 321.155 170.676 321.102 170.781C321.066 170.855 320.99 170.899 320.912 170.899Z" fill="#8A5703"/>
<path d="M321.021 169.724C320.99 169.724 320.958 169.717 320.927 169.702L315.258 166.89C315.154 166.837 315.11 166.709 315.163 166.604C315.215 166.499 315.342 166.457 315.448 166.508L321.116 169.321C321.221 169.373 321.264 169.501 321.212 169.606C321.174 169.681 321.099 169.724 321.021 169.724Z" fill="#8A5703"/>
<path d="M321.131 168.548C321.099 168.548 321.067 168.541 321.036 168.526L315.368 165.713C315.263 165.661 315.22 165.533 315.272 165.428C315.324 165.324 315.452 165.281 315.557 165.332L321.226 168.144C321.33 168.197 321.374 168.324 321.321 168.43C321.285 168.505 321.209 168.548 321.131 168.548Z" fill="#8A5703"/>
<path d="M321.24 167.374C321.209 167.374 321.176 167.368 321.146 167.352L315.477 164.54C315.372 164.487 315.329 164.36 315.382 164.255C315.434 164.149 315.561 164.107 315.667 164.159L321.335 166.971C321.44 167.023 321.483 167.151 321.43 167.256C321.394 167.331 321.318 167.374 321.24 167.374Z" fill="#8A5703"/>
<path d="M321.349 166.198C321.318 166.198 321.286 166.191 321.255 166.176L315.586 163.363C315.482 163.311 315.439 163.184 315.491 163.079C315.543 162.974 315.67 162.931 315.776 162.982L321.445 165.795C321.549 165.847 321.593 165.974 321.54 166.08C321.503 166.155 321.428 166.198 321.349 166.198Z" fill="#8A5703"/>
</g>
<path opacity="0.5" d="M315.805 169.905L317.161 170.54L317.259 170.587L317.267 170.59C317.623 170.685 318.186 170.215 318.713 169.433L316.564 168.324C316.148 169.204 315.816 169.903 315.805 169.905Z" fill="#8A5703"/>
<path d="M316.142 166.948C315.477 168.355 315.324 169.678 315.802 169.904C316.279 170.131 317.206 169.173 317.871 167.767C318.537 166.36 318.69 165.037 318.212 164.81C317.735 164.584 316.808 165.541 316.142 166.948Z" fill="#FDCD68"/>
<path d="M311.117 169.905L312.474 170.54L312.572 170.587L312.579 170.591C312.935 170.685 313.499 170.215 314.025 169.434C314.222 169.14 314.415 168.8 314.59 168.432C314.878 167.825 315.071 167.233 315.158 166.737C315.272 166.086 315.203 165.604 314.932 165.476L313.528 164.811C313.528 164.811 313.32 165.256 313.026 165.884C312.694 166.593 312.251 167.532 311.876 168.324C311.461 169.204 311.128 169.903 311.117 169.905Z" fill="#FFA901"/>
<mask id="mask4_53042_24388" style="mask-type:luminance" maskUnits="userSpaceOnUse" x="311" y="164" width="5" height="7">
<path d="M311.117 169.905L312.474 170.54L312.572 170.587L312.579 170.591C312.935 170.685 313.499 170.215 314.025 169.434C314.222 169.14 314.415 168.8 314.59 168.432C314.878 167.825 315.071 167.233 315.158 166.737C315.272 166.086 315.203 165.604 314.932 165.476L313.528 164.811C313.528 164.811 313.32 165.256 313.026 165.884C312.694 166.593 312.251 167.532 311.876 168.324C311.461 169.204 311.128 169.903 311.117 169.905Z" fill="white"/>
</mask>
<g mask="url(#mask4_53042_24388)">
<path d="M316.013 173.25C315.982 173.25 315.95 173.242 315.919 173.227L310.25 170.416C310.146 170.364 310.103 170.236 310.155 170.131C310.207 170.026 310.335 169.985 310.44 170.035L316.109 172.848C316.213 172.899 316.257 173.027 316.204 173.132C316.167 173.206 316.092 173.25 316.013 173.25Z" fill="#8A5703"/>
<path d="M316.123 172.074C316.091 172.074 316.059 172.067 316.028 172.052L310.36 169.24C310.255 169.189 310.212 169.061 310.265 168.956C310.317 168.852 310.443 168.808 310.549 168.86L316.218 171.672C316.323 171.724 316.366 171.852 316.313 171.957C316.277 172.032 316.201 172.074 316.123 172.074Z" fill="#8A5703"/>
<path d="M316.224 170.899C316.192 170.899 316.16 170.892 316.129 170.877L310.461 168.064C310.357 168.012 310.314 167.885 310.366 167.78C310.417 167.675 310.545 167.633 310.651 167.684L316.319 170.496C316.423 170.549 316.467 170.676 316.414 170.781C316.377 170.855 316.302 170.899 316.224 170.899Z" fill="#8A5703"/>
<path d="M316.334 169.724C316.302 169.724 316.27 169.717 316.239 169.702L310.571 166.89C310.466 166.837 310.423 166.709 310.476 166.604C310.527 166.499 310.655 166.457 310.76 166.508L316.429 169.321C316.534 169.373 316.577 169.501 316.524 169.606C316.487 169.681 316.412 169.724 316.334 169.724Z" fill="#8A5703"/>
<path d="M316.451 168.548C316.42 168.548 316.387 168.541 316.357 168.526L310.688 165.713C310.583 165.661 310.54 165.533 310.593 165.428C310.645 165.324 310.771 165.281 310.878 165.332L316.546 168.144C316.651 168.197 316.694 168.324 316.641 168.43C316.604 168.505 316.529 168.548 316.451 168.548Z" fill="#8A5703"/>
<path d="M316.553 167.374C316.521 167.374 316.489 167.368 316.458 167.352L310.79 164.54C310.685 164.487 310.642 164.36 310.694 164.255C310.746 164.149 310.873 164.107 310.979 164.159L316.648 166.971C316.752 167.023 316.796 167.151 316.743 167.256C316.706 167.331 316.631 167.374 316.553 167.374Z" fill="#8A5703"/>
<path d="M316.662 166.198C316.63 166.198 316.598 166.191 316.568 166.176L310.899 163.363C310.794 163.311 310.751 163.184 310.804 163.079C310.856 162.974 310.982 162.931 311.088 162.982L316.757 165.795C316.862 165.847 316.905 165.974 316.852 166.08C316.815 166.155 316.739 166.198 316.662 166.198Z" fill="#8A5703"/>
</g>
<path opacity="0.5" d="M311.117 169.905L312.474 170.54L312.572 170.587L312.579 170.59C312.935 170.685 313.499 170.215 314.025 169.433L311.876 168.324C311.461 169.204 311.128 169.903 311.117 169.905Z" fill="#8A5703"/>
<path d="M311.455 166.948C310.789 168.355 310.636 169.678 311.114 169.904C311.592 170.131 312.518 169.173 313.184 167.767C313.849 166.36 314.002 165.037 313.525 164.81C313.048 164.584 312.121 165.541 311.455 166.948Z" fill="#FDCD68"/>
<path d="M320.492 169.905L321.849 170.54L321.947 170.587L321.954 170.591C322.31 170.685 322.874 170.215 323.4 169.434C323.597 169.14 323.79 168.8 323.965 168.432C324.253 167.825 324.446 167.233 324.533 166.737C324.647 166.086 324.578 165.604 324.307 165.476L322.903 164.811C322.903 164.811 322.695 165.256 322.401 165.884C322.069 166.593 321.626 167.532 321.251 168.324C320.836 169.204 320.504 169.903 320.492 169.905Z" fill="#FFA901"/>
<mask id="mask5_53042_24388" style="mask-type:luminance" maskUnits="userSpaceOnUse" x="320" y="164" width="5" height="7">
<path d="M320.492 169.905L321.849 170.54L321.947 170.587L321.954 170.591C322.31 170.685 322.874 170.215 323.4 169.434C323.597 169.14 323.79 168.8 323.965 168.432C324.253 167.825 324.446 167.233 324.533 166.737C324.647 166.086 324.578 165.604 324.307 165.476L322.903 164.811C322.903 164.811 322.695 165.256 322.401 165.884C322.069 166.593 321.626 167.532 321.251 168.324C320.836 169.204 320.504 169.903 320.492 169.905Z" fill="white"/>
</mask>
<g mask="url(#mask5_53042_24388)">
<path d="M325.388 173.25C325.357 173.25 325.325 173.242 325.294 173.227L319.625 170.416C319.521 170.364 319.478 170.236 319.53 170.131C319.582 170.026 319.709 169.985 319.815 170.035L325.484 172.848C325.588 172.899 325.632 173.027 325.579 173.132C325.542 173.206 325.467 173.25 325.388 173.25Z" fill="#8A5703"/>
<path d="M325.498 172.074C325.466 172.074 325.434 172.067 325.404 172.052L319.735 169.24C319.63 169.189 319.587 169.061 319.64 168.956C319.692 168.852 319.818 168.808 319.924 168.86L325.593 171.672C325.698 171.724 325.741 171.852 325.688 171.957C325.652 172.032 325.576 172.074 325.498 172.074Z" fill="#8A5703"/>
<path d="M325.599 170.899C325.568 170.899 325.536 170.892 325.505 170.877L319.836 168.064C319.732 168.012 319.689 167.885 319.741 167.78C319.793 167.675 319.92 167.633 320.026 167.684L325.695 170.496C325.799 170.549 325.843 170.676 325.79 170.781C325.753 170.855 325.678 170.899 325.599 170.899Z" fill="#8A5703"/>
<path d="M325.709 169.724C325.677 169.724 325.645 169.717 325.614 169.702L319.946 166.89C319.841 166.837 319.798 166.709 319.851 166.604C319.902 166.499 320.029 166.457 320.135 166.508L325.804 169.321C325.909 169.373 325.952 169.501 325.899 169.606C325.863 169.681 325.787 169.724 325.709 169.724Z" fill="#8A5703"/>
<path d="M325.826 168.548C325.795 168.548 325.762 168.541 325.732 168.526L320.063 165.713C319.958 165.661 319.915 165.533 319.968 165.428C320.02 165.324 320.146 165.281 320.253 165.332L325.921 168.144C326.026 168.197 326.069 168.324 326.016 168.43C325.98 168.505 325.904 168.548 325.826 168.548Z" fill="#8A5703"/>
<path d="M325.928 167.374C325.896 167.374 325.864 167.368 325.833 167.352L320.165 164.54C320.06 164.487 320.017 164.36 320.069 164.255C320.121 164.149 320.249 164.107 320.354 164.159L326.023 166.971C326.127 167.023 326.171 167.151 326.118 167.256C326.081 167.331 326.006 167.374 325.928 167.374Z" fill="#8A5703"/>
<path d="M326.037 166.198C326.005 166.198 325.973 166.191 325.943 166.176L320.274 163.363C320.169 163.311 320.126 163.184 320.179 163.079C320.231 162.974 320.358 162.931 320.463 162.982L326.132 165.795C326.237 165.847 326.28 165.974 326.227 166.08C326.191 166.155 326.115 166.198 326.037 166.198Z" fill="#8A5703"/>
</g>
<path opacity="0.5" d="M320.492 169.905L321.849 170.54L321.947 170.587L321.954 170.59C322.31 170.685 322.874 170.215 323.4 169.433L321.251 168.324C320.836 169.204 320.504 169.903 320.492 169.905Z" fill="#8A5703"/>
<path d="M320.83 166.948C320.164 168.355 320.011 169.678 320.489 169.904C320.967 170.131 321.893 169.173 322.559 167.767C323.224 166.36 323.377 165.037 322.9 164.81C322.423 164.584 321.496 165.541 320.83 166.948Z" fill="#FDCD68"/>
<path d="M326.795 195.334H309.148C306.844 195.334 304.969 193.46 304.969 191.155C304.969 190.669 305.054 190.19 305.22 189.733C305.261 189.611 305.316 189.482 305.378 189.357C305.575 188.934 305.85 188.542 306.192 188.2C306.982 187.411 308.031 186.977 309.148 186.977H326.795C328.426 186.977 329.872 187.892 330.568 189.366C330.628 189.483 330.684 189.613 330.726 189.744C330.889 190.191 330.974 190.67 330.974 191.156C330.974 192.273 330.538 193.322 329.75 194.111C328.961 194.899 327.911 195.334 326.795 195.334ZM309.148 187.613C308.202 187.613 307.312 187.982 306.644 188.651C306.354 188.94 306.122 189.271 305.951 189.635C305.898 189.741 305.855 189.842 305.821 189.944C305.678 190.338 305.606 190.743 305.606 191.155C305.606 193.108 307.195 194.696 309.148 194.696H326.795C327.74 194.696 328.63 194.327 329.298 193.658C329.967 192.99 330.336 192.1 330.336 191.155C330.336 190.744 330.265 190.338 330.124 189.952C330.087 189.841 330.043 189.741 329.995 189.645C329.402 188.389 328.177 187.613 326.795 187.613H309.148Z" fill="white"/>
<path d="M315.805 193.362L317.161 193.997L317.259 194.044L317.267 194.048C317.623 194.142 318.186 193.672 318.713 192.891C318.91 192.597 319.103 192.257 319.278 191.889C319.566 191.282 319.758 190.69 319.846 190.195C319.96 189.543 319.891 189.061 319.619 188.933L318.215 188.268C318.215 188.268 318.007 188.713 317.714 189.341C317.381 190.05 316.939 190.989 316.564 191.781C316.148 192.661 315.816 193.36 315.805 193.362Z" fill="#FFA901"/>
<mask id="mask6_53042_24388" style="mask-type:luminance" maskUnits="userSpaceOnUse" x="315" y="188" width="5" height="7">
<path d="M315.805 193.362L317.161 193.997L317.259 194.044L317.267 194.048C317.623 194.142 318.186 193.672 318.713 192.891C318.91 192.597 319.103 192.257 319.278 191.889C319.566 191.282 319.758 190.69 319.846 190.195C319.96 189.543 319.891 189.061 319.619 188.933L318.215 188.268C318.215 188.268 318.007 188.713 317.714 189.341C317.381 190.05 316.939 190.989 316.564 191.781C316.148 192.661 315.816 193.36 315.805 193.362Z" fill="white"/>
</mask>
<g mask="url(#mask6_53042_24388)">
<path d="M320.701 196.709C320.67 196.709 320.637 196.702 320.607 196.687L314.938 193.875C314.833 193.823 314.79 193.695 314.843 193.59C314.895 193.485 315.022 193.443 315.128 193.495L320.796 196.307C320.901 196.36 320.944 196.487 320.891 196.592C320.854 196.666 320.778 196.709 320.701 196.709Z" fill="#8A5703"/>
<path d="M320.81 195.534C320.779 195.534 320.747 195.526 320.716 195.512L315.047 192.699C314.943 192.646 314.899 192.52 314.952 192.414C315.003 192.31 315.131 192.267 315.237 192.319L320.906 195.132C321.01 195.183 321.053 195.311 321.001 195.416C320.963 195.49 320.888 195.534 320.81 195.534Z" fill="#8A5703"/>
<path d="M320.912 194.358C320.88 194.358 320.848 194.35 320.818 194.335L315.149 191.523C315.044 191.47 315.001 191.343 315.054 191.238C315.105 191.133 315.232 191.092 315.338 191.143L321.007 193.955C321.112 194.007 321.155 194.135 321.102 194.24C321.066 194.314 320.99 194.358 320.912 194.358Z" fill="#8A5703"/>
<path d="M321.021 193.182C320.99 193.182 320.958 193.174 320.927 193.16L315.258 190.347C315.154 190.294 315.11 190.168 315.163 190.062C315.215 189.957 315.342 189.916 315.448 189.967L321.116 192.78C321.221 192.832 321.264 192.959 321.212 193.065C321.174 193.139 321.099 193.182 321.021 193.182Z" fill="#8A5703"/>
<path d="M321.131 192.006C321.099 192.006 321.067 191.999 321.036 191.984L315.368 189.172C315.263 189.119 315.22 188.992 315.272 188.887C315.324 188.782 315.452 188.74 315.557 188.792L321.226 191.604C321.33 191.657 321.374 191.784 321.321 191.889C321.285 191.963 321.209 192.006 321.131 192.006Z" fill="#8A5703"/>
<path d="M321.24 190.832C321.209 190.832 321.176 190.825 321.146 190.81L315.477 187.998C315.372 187.945 315.329 187.818 315.382 187.713C315.434 187.608 315.561 187.566 315.667 187.618L321.335 190.43C321.44 190.483 321.483 190.61 321.43 190.715C321.394 190.789 321.318 190.832 321.24 190.832Z" fill="#8A5703"/>
<path d="M321.349 189.656C321.318 189.656 321.286 189.649 321.255 189.634L315.586 186.822C315.482 186.77 315.439 186.642 315.491 186.537C315.543 186.432 315.67 186.391 315.776 186.442L321.445 189.254C321.549 189.307 321.593 189.434 321.54 189.539C321.503 189.613 321.428 189.656 321.349 189.656Z" fill="#8A5703"/>
</g>
<path opacity="0.5" d="M315.805 193.362L317.161 193.997L317.259 194.044L317.267 194.047C317.623 194.142 318.186 193.672 318.713 192.89L316.564 191.781C316.148 192.661 315.816 193.36 315.805 193.362Z" fill="#8A5703"/>
<path d="M316.142 190.405C315.477 191.812 315.324 193.135 315.802 193.361C316.279 193.588 317.206 192.63 317.871 191.224C318.537 189.817 318.69 188.494 318.212 188.267C317.735 188.041 316.808 188.998 316.142 190.405Z" fill="#FDCD68"/>
<path d="M311.117 193.362L312.474 193.997L312.572 194.044L312.579 194.048C312.935 194.142 313.499 193.672 314.025 192.891C314.222 192.597 314.415 192.257 314.59 191.889C314.878 191.282 315.071 190.69 315.158 190.195C315.272 189.543 315.203 189.061 314.932 188.933L313.528 188.268C313.528 188.268 313.32 188.713 313.026 189.341C312.694 190.05 312.251 190.989 311.876 191.781C311.461 192.661 311.128 193.36 311.117 193.362Z" fill="#FFA901"/>
<mask id="mask7_53042_24388" style="mask-type:luminance" maskUnits="userSpaceOnUse" x="311" y="188" width="5" height="7">
<path d="M311.117 193.362L312.474 193.997L312.572 194.044L312.579 194.048C312.935 194.142 313.499 193.672 314.025 192.891C314.222 192.597 314.415 192.257 314.59 191.889C314.878 191.282 315.071 190.69 315.158 190.195C315.272 189.543 315.203 189.061 314.932 188.933L313.528 188.268C313.528 188.268 313.32 188.713 313.026 189.341C312.694 190.05 312.251 190.989 311.876 191.781C311.461 192.661 311.128 193.36 311.117 193.362Z" fill="white"/>
</mask>
<g mask="url(#mask7_53042_24388)">
<path d="M316.013 196.709C315.982 196.709 315.95 196.702 315.919 196.687L310.25 193.875C310.146 193.823 310.103 193.695 310.155 193.59C310.207 193.485 310.335 193.443 310.44 193.495L316.109 196.307C316.213 196.36 316.257 196.487 316.204 196.592C316.167 196.666 316.092 196.709 316.013 196.709Z" fill="#8A5703"/>
<path d="M316.123 195.534C316.091 195.534 316.059 195.526 316.028 195.512L310.36 192.699C310.255 192.646 310.212 192.52 310.265 192.414C310.317 192.31 310.443 192.267 310.549 192.319L316.218 195.132C316.323 195.183 316.366 195.311 316.313 195.416C316.277 195.49 316.201 195.534 316.123 195.534Z" fill="#8A5703"/>
<path d="M316.224 194.358C316.192 194.358 316.16 194.35 316.129 194.335L310.461 191.523C310.357 191.47 310.314 191.343 310.366 191.238C310.417 191.133 310.545 191.092 310.651 191.143L316.319 193.955C316.423 194.007 316.467 194.135 316.414 194.24C316.377 194.314 316.302 194.358 316.224 194.358Z" fill="#8A5703"/>
<path d="M316.334 193.182C316.302 193.182 316.27 193.174 316.239 193.16L310.571 190.347C310.466 190.294 310.423 190.168 310.476 190.062C310.527 189.957 310.655 189.916 310.76 189.967L316.429 192.78C316.534 192.832 316.577 192.959 316.524 193.065C316.487 193.139 316.412 193.182 316.334 193.182Z" fill="#8A5703"/>
<path d="M316.451 192.006C316.42 192.006 316.387 191.999 316.357 191.984L310.688 189.172C310.583 189.119 310.54 188.992 310.593 188.887C310.645 188.782 310.771 188.74 310.878 188.792L316.546 191.604C316.651 191.657 316.694 191.784 316.641 191.889C316.604 191.963 316.529 192.006 316.451 192.006Z" fill="#8A5703"/>
<path d="M316.553 190.832C316.521 190.832 316.489 190.825 316.458 190.81L310.79 187.998C310.685 187.945 310.642 187.818 310.694 187.713C310.746 187.608 310.873 187.566 310.979 187.618L316.648 190.43C316.752 190.483 316.796 190.61 316.743 190.715C316.706 190.789 316.631 190.832 316.553 190.832Z" fill="#8A5703"/>
<path d="M316.662 189.656C316.63 189.656 316.598 189.649 316.568 189.634L310.899 186.822C310.794 186.77 310.751 186.642 310.804 186.537C310.856 186.432 310.982 186.391 311.088 186.442L316.757 189.254C316.862 189.307 316.905 189.434 316.852 189.539C316.815 189.613 316.739 189.656 316.662 189.656Z" fill="#8A5703"/>
</g>
<path opacity="0.5" d="M311.117 193.362L312.474 193.997L312.572 194.044L312.579 194.047C312.935 194.142 313.499 193.672 314.025 192.89L311.876 191.781C311.461 192.661 311.128 193.36 311.117 193.362Z" fill="#8A5703"/>
<path d="M311.455 190.405C310.789 191.812 310.636 193.135 311.114 193.361C311.592 193.588 312.518 192.63 313.184 191.224C313.849 189.817 314.002 188.494 313.525 188.267C313.047 188.041 312.121 188.998 311.455 190.405Z" fill="#FDCD68"/>
<path d="M320.492 193.362L321.849 193.997L321.947 194.044L321.954 194.048C322.31 194.142 322.874 193.672 323.4 192.891C323.597 192.597 323.79 192.257 323.965 191.889C324.253 191.282 324.446 190.69 324.533 190.195C324.647 189.543 324.578 189.061 324.307 188.933L322.903 188.268C322.903 188.268 322.695 188.713 322.401 189.341C322.069 190.05 321.626 190.989 321.251 191.781C320.836 192.661 320.504 193.36 320.492 193.362Z" fill="#FFA901"/>
<mask id="mask8_53042_24388" style="mask-type:luminance" maskUnits="userSpaceOnUse" x="320" y="188" width="5" height="7">
<path d="M320.492 193.362L321.849 193.997L321.947 194.044L321.954 194.048C322.31 194.142 322.874 193.672 323.4 192.891C323.597 192.597 323.79 192.257 323.965 191.889C324.253 191.282 324.446 190.69 324.533 190.195C324.647 189.543 324.578 189.061 324.307 188.933L322.903 188.268C322.903 188.268 322.695 188.713 322.401 189.341C322.069 190.05 321.626 190.989 321.251 191.781C320.836 192.661 320.504 193.36 320.492 193.362Z" fill="white"/>
</mask>
<g mask="url(#mask8_53042_24388)">
<path d="M325.388 196.709C325.357 196.709 325.325 196.702 325.294 196.687L319.625 193.875C319.521 193.823 319.478 193.695 319.53 193.59C319.582 193.485 319.709 193.443 319.815 193.495L325.484 196.307C325.588 196.36 325.632 196.487 325.579 196.592C325.542 196.666 325.467 196.709 325.388 196.709Z" fill="#8A5703"/>
<path d="M325.498 195.534C325.466 195.534 325.434 195.526 325.404 195.512L319.735 192.699C319.63 192.646 319.587 192.52 319.64 192.414C319.692 192.31 319.818 192.267 319.924 192.319L325.593 195.132C325.698 195.183 325.741 195.311 325.688 195.416C325.652 195.49 325.576 195.534 325.498 195.534Z" fill="#8A5703"/>
<path d="M325.599 194.358C325.568 194.358 325.536 194.35 325.505 194.335L319.836 191.523C319.732 191.47 319.689 191.343 319.741 191.238C319.793 191.133 319.92 191.092 320.026 191.143L325.695 193.955C325.799 194.007 325.843 194.135 325.79 194.24C325.753 194.314 325.678 194.358 325.599 194.358Z" fill="#8A5703"/>
<path d="M325.709 193.182C325.677 193.182 325.645 193.174 325.614 193.16L319.946 190.347C319.841 190.294 319.798 190.168 319.851 190.062C319.902 189.957 320.029 189.916 320.135 189.967L325.804 192.78C325.909 192.832 325.952 192.959 325.899 193.065C325.863 193.139 325.787 193.182 325.709 193.182Z" fill="#8A5703"/>
<path d="M325.826 192.006C325.795 192.006 325.762 191.999 325.732 191.984L320.063 189.172C319.958 189.119 319.915 188.992 319.968 188.887C320.02 188.782 320.146 188.74 320.253 188.792L325.921 191.604C326.026 191.657 326.069 191.784 326.016 191.889C325.98 191.963 325.904 192.006 325.826 192.006Z" fill="#8A5703"/>
<path d="M325.928 190.832C325.896 190.832 325.864 190.825 325.833 190.81L320.165 187.998C320.06 187.945 320.017 187.818 320.069 187.713C320.121 187.608 320.249 187.566 320.354 187.618L326.023 190.43C326.127 190.483 326.171 190.61 326.118 190.715C326.081 190.789 326.006 190.832 325.928 190.832Z" fill="#8A5703"/>
<path d="M326.037 189.656C326.005 189.656 325.973 189.649 325.943 189.634L320.274 186.822C320.169 186.77 320.126 186.642 320.179 186.537C320.231 186.432 320.358 186.391 320.463 186.442L326.132 189.254C326.237 189.307 326.28 189.434 326.227 189.539C326.191 189.613 326.115 189.656 326.037 189.656Z" fill="#8A5703"/>
</g>
<path opacity="0.5" d="M320.492 193.362L321.849 193.997L321.947 194.044L321.954 194.047C322.31 194.142 322.874 193.672 323.4 192.89L321.251 191.781C320.836 192.661 320.504 193.36 320.492 193.362Z" fill="#8A5703"/>
<path d="M320.83 190.405C320.164 191.812 320.011 193.135 320.489 193.361C320.967 193.588 321.893 192.63 322.559 191.224C323.224 189.817 323.377 188.494 322.9 188.267C322.423 188.041 321.496 188.998 320.83 190.405Z" fill="#FDCD68"/>
<path d="M197.114 195.765C192.052 196.405 186.93 196.405 181.867 195.765C182.975 192.556 183.97 189.32 184.852 186.064C187.938 186.347 191.043 186.347 194.128 186.064C195.012 189.32 196.007 192.556 197.114 195.765Z" fill="#67A7D6"/>
<path d="M189.484 187.642C187.819 187.642 186.154 187.546 184.5 187.351C184.471 187.348 184.45 187.321 184.453 187.291C184.457 187.263 184.482 187.241 184.513 187.245C187.811 187.632 191.157 187.632 194.457 187.245C194.488 187.24 194.513 187.263 194.517 187.291C194.52 187.321 194.499 187.348 194.47 187.351C192.814 187.546 191.149 187.642 189.484 187.642Z" fill="#171C4F"/>
<path d="M189.495 195.387C189.166 195.387 188.837 195.384 188.511 195.379C187.919 195.372 187.306 195.354 186.637 195.323C186.003 195.297 185.341 195.257 184.671 195.206C183.807 195.142 182.964 195.062 182.164 194.969L182.194 194.713C182.99 194.806 183.83 194.885 184.69 194.949C185.358 195 186.017 195.039 186.649 195.066C187.315 195.096 187.925 195.114 188.515 195.122C189.166 195.132 189.825 195.132 190.476 195.122C191.119 195.112 191.725 195.094 192.327 195.066C192.958 195.039 193.617 195 194.285 194.949C195.145 194.885 195.985 194.806 196.782 194.713L196.811 194.969C196.011 195.062 195.167 195.142 194.304 195.206C193.633 195.257 192.972 195.297 192.338 195.323C191.733 195.35 191.125 195.369 190.48 195.379C190.153 195.384 189.824 195.387 189.495 195.387Z" fill="#FDD172"/>
<path d="M189.5 194.745C189.178 194.745 188.857 194.743 188.538 194.737C187.954 194.73 187.34 194.712 186.712 194.686C186.113 194.661 185.493 194.625 184.815 194.576C184.032 194.521 183.234 194.448 182.375 194.352L182.403 194.097C183.258 194.191 184.054 194.263 184.834 194.319C185.51 194.369 186.127 194.404 186.723 194.428C187.348 194.454 187.96 194.472 188.542 194.48C189.177 194.49 189.822 194.49 190.458 194.48C191.032 194.472 191.637 194.455 192.258 194.428C192.854 194.403 193.472 194.368 194.147 194.318C194.93 194.263 195.725 194.19 196.578 194.096L196.606 194.352C195.75 194.446 194.951 194.519 194.164 194.575C193.487 194.624 192.867 194.66 192.268 194.685C191.646 194.711 191.037 194.729 190.462 194.737C190.143 194.743 189.822 194.745 189.5 194.745Z" fill="#FDD172"/>
<path d="M184.46 196.089C184.456 196.089 184.451 196.088 184.447 196.087C184.418 196.08 184.4 196.051 184.408 196.022C185.019 193.478 185.413 191.158 185.486 190.718C185.491 190.69 185.517 190.671 185.547 190.674C185.576 190.679 185.595 190.707 185.591 190.735C185.518 191.175 185.125 193.498 184.512 196.047C184.506 196.073 184.485 196.089 184.46 196.089Z" fill="#171C4F"/>
<path d="M186.522 196.224C186.519 196.224 186.517 196.224 186.515 196.223C186.486 196.219 186.465 196.193 186.469 196.163C186.778 193.826 186.929 191.659 186.98 190.835C186.982 190.806 187.005 190.786 187.037 190.785C187.067 190.787 187.089 190.812 187.087 190.842C187.036 191.667 186.884 193.838 186.576 196.178C186.571 196.204 186.548 196.224 186.522 196.224Z" fill="#171C4F"/>
<path d="M194.515 196.09C194.491 196.09 194.469 196.074 194.463 196.049C193.85 193.499 193.457 191.178 193.384 190.737C193.378 190.708 193.399 190.681 193.428 190.676C193.458 190.673 193.485 190.691 193.489 190.72C193.561 191.159 193.955 193.478 194.567 196.024C194.574 196.053 194.556 196.082 194.528 196.089C194.523 196.09 194.519 196.09 194.515 196.09Z" fill="#171C4F"/>
<path d="M192.455 196.224C192.429 196.224 192.406 196.205 192.402 196.178C192.094 193.838 191.942 191.667 191.891 190.842C191.889 190.812 191.911 190.787 191.941 190.785C191.973 190.786 191.995 190.806 191.998 190.835C192.049 191.659 192.2 193.826 192.509 196.163C192.513 196.193 192.492 196.219 192.463 196.223C192.46 196.223 192.458 196.224 192.455 196.224Z" fill="#171C4F"/>
<path d="M188.483 196.29H188.482C188.452 196.289 188.429 196.264 188.43 196.235C188.49 194.591 188.547 192.992 188.586 191.885L188.621 190.903C188.622 190.874 188.651 190.853 188.676 190.852C188.706 190.852 188.729 190.877 188.728 190.907L188.693 191.889C188.654 192.995 188.597 194.595 188.537 196.238C188.536 196.267 188.512 196.29 188.483 196.29Z" fill="#171C4F"/>
<path d="M190.512 196.29C190.483 196.29 190.459 196.267 190.459 196.238C190.39 193.752 190.288 191.53 190.258 190.908C190.256 190.878 190.279 190.853 190.309 190.852C190.337 190.853 190.363 190.873 190.365 190.903C190.395 191.525 190.497 193.748 190.566 196.235C190.567 196.264 190.544 196.289 190.515 196.29H190.512Z" fill="#171C4F"/>
<path d="M331.63 124.221H180.845C178.773 124.221 177.094 122.541 177.094 120.47C177.094 118.398 178.773 116.719 180.845 116.719H331.63C333.701 116.719 335.381 118.398 335.381 120.47C335.38 122.541 333.701 124.221 331.63 124.221Z" fill="white"/>
<path d="M183.65 122.102L182.376 120.827C182.584 120.574 182.714 120.255 182.714 119.903C182.714 119.093 182.056 118.436 181.247 118.436C180.439 118.436 179.781 119.093 179.781 119.903C179.781 120.711 180.439 121.369 181.247 121.369C181.534 121.369 181.799 121.283 182.024 121.141L183.317 122.434C183.363 122.48 183.423 122.503 183.484 122.503C183.544 122.503 183.605 122.48 183.65 122.434C183.742 122.342 183.742 122.193 183.65 122.102ZM180.251 119.903C180.251 119.354 180.698 118.906 181.247 118.906C181.797 118.906 182.243 119.354 182.243 119.903C182.243 120.452 181.797 120.899 181.247 120.899C180.698 120.899 180.251 120.452 180.251 119.903Z" fill="#171C4F"/>
<path d="M192.821 121.854C192.821 122.211 192.53 122.502 192.172 122.502C191.814 122.502 191.523 122.211 191.523 121.854C191.523 121.496 191.814 121.205 192.172 121.205C192.53 121.205 192.821 121.496 192.821 121.854Z" fill="#171C4F"/>
<path d="M190.508 121.854C190.508 122.211 190.217 122.502 189.859 122.502C189.502 122.502 189.211 122.211 189.211 121.854C189.211 121.496 189.502 121.205 189.859 121.205C190.217 121.205 190.508 121.496 190.508 121.854Z" fill="#171C4F"/>
<path d="M188.188 121.854C188.188 122.211 187.897 122.502 187.539 122.502C187.181 122.502 186.891 122.211 186.891 121.854C186.891 121.496 187.181 121.205 187.539 121.205C187.897 121.205 188.188 121.496 188.188 121.854Z" fill="#171C4F"/>
<path d="M259.654 140.444H208.157C207.329 140.444 206.656 139.771 206.656 138.942C206.656 138.114 207.329 137.441 208.157 137.441H259.654C260.483 137.441 261.155 138.114 261.155 138.942C261.155 139.772 260.483 140.444 259.654 140.444Z" fill="#6784D0"/>
<path d="M226.846 145.949H208.157C207.329 145.949 206.656 145.277 206.656 144.448C206.656 143.62 207.329 142.947 208.157 142.947H226.846C227.675 142.947 228.347 143.62 228.347 144.448C228.347 145.277 227.675 145.949 226.846 145.949Z" fill="#6784D0"/>
<path d="M266.266 165.444H208.157C207.329 165.444 206.656 164.771 206.656 163.943C206.656 163.114 207.329 162.441 208.157 162.441H266.266C267.095 162.441 267.767 163.114 267.767 163.943C267.767 164.771 267.096 165.444 266.266 165.444Z" fill="#6784D0"/>
<path d="M215.863 170.948H208.157C207.329 170.948 206.656 170.275 206.656 169.446C206.656 168.618 207.329 167.945 208.157 167.945H215.863C216.692 167.945 217.365 168.618 217.365 169.446C217.365 170.276 216.693 170.948 215.863 170.948Z" fill="#6784D0"/>
<path d="M250.198 189.924H208.157C207.329 189.924 206.656 189.252 206.656 188.423C206.656 187.594 207.329 186.922 208.157 186.922H250.198C251.026 186.922 251.699 187.594 251.699 188.423C251.699 189.252 251.026 189.924 250.198 189.924Z" fill="#6784D0"/>
<path d="M220.256 195.43H208.157C207.329 195.43 206.656 194.758 206.656 193.929C206.656 193.1 207.329 192.428 208.157 192.428H220.256C221.085 192.428 221.757 193.1 221.757 193.929C221.757 194.758 221.086 195.43 220.256 195.43Z" fill="#6784D0"/>
<path d="M284.972 142.947H282.012C281.449 142.947 280.992 142.491 280.992 141.927V138.967C280.992 138.404 281.449 137.947 282.012 137.947H284.972C285.535 137.947 285.992 138.404 285.992 138.967V141.927C285.992 142.491 285.535 142.947 284.972 142.947Z" fill="white"/>
<path d="M284.792 140.871H282.191C281.956 140.871 281.766 140.681 281.766 140.446C281.766 140.212 281.956 140.021 282.191 140.021H284.792C285.026 140.021 285.217 140.212 285.217 140.446C285.217 140.681 285.026 140.871 284.792 140.871Z" fill="#6784D0"/>
<path d="M292.855 142.947H289.895C289.331 142.947 288.875 142.491 288.875 141.927V138.967C288.875 138.404 289.331 137.947 289.895 137.947H292.855C293.418 137.947 293.875 138.404 293.875 138.967V141.927C293.875 142.491 293.418 142.947 292.855 142.947Z" fill="white"/>
<path d="M292.674 140.871H290.073C289.839 140.871 289.648 140.681 289.648 140.446C289.648 140.212 289.839 140.021 290.073 140.021H292.674C292.909 140.021 293.099 140.212 293.099 140.446C293.099 140.681 292.91 140.871 292.674 140.871Z" fill="#6784D0"/>
<path d="M291.378 142.173C291.144 142.173 290.953 141.982 290.953 141.748V139.148C290.953 138.913 291.144 138.723 291.378 138.723C291.613 138.723 291.803 138.913 291.803 139.148V141.748C291.803 141.982 291.613 142.173 291.378 142.173Z" fill="#6784D0"/>
<path d="M284.972 170.351H282.012C281.449 170.351 280.992 169.895 280.992 169.331V166.372C280.992 165.808 281.449 165.352 282.012 165.352H284.972C285.535 165.352 285.992 165.808 285.992 166.372V169.331C285.992 169.895 285.535 170.351 284.972 170.351Z" fill="white"/>
<path d="M284.792 168.278H282.191C281.956 168.278 281.766 168.087 281.766 167.853C281.766 167.618 281.956 167.428 282.191 167.428H284.792C285.026 167.428 285.217 167.618 285.217 167.853C285.217 168.087 285.026 168.278 284.792 168.278Z" fill="#6784D0"/>
<path d="M292.855 170.351H289.895C289.331 170.351 288.875 169.895 288.875 169.331V166.372C288.875 165.808 289.331 165.352 289.895 165.352H292.855C293.418 165.352 293.875 165.808 293.875 166.372V169.331C293.875 169.895 293.418 170.351 292.855 170.351Z" fill="white"/>
<path d="M292.674 168.276H290.073C289.839 168.276 289.648 168.085 289.648 167.851C289.648 167.616 289.839 167.426 290.073 167.426H292.674C292.909 167.426 293.099 167.616 293.099 167.851C293.099 168.085 292.91 168.276 292.674 168.276Z" fill="#6784D0"/>
<path d="M291.378 169.577C291.144 169.577 290.953 169.387 290.953 169.152V166.552C290.953 166.317 291.144 166.127 291.378 166.127C291.613 166.127 291.803 166.317 291.803 166.552V169.152C291.803 169.388 291.613 169.577 291.378 169.577Z" fill="#6784D0"/>
<path d="M284.972 193.675H282.012C281.449 193.675 280.992 193.219 280.992 192.655V189.696C280.992 189.132 281.449 188.676 282.012 188.676H284.972C285.535 188.676 285.992 189.132 285.992 189.696V192.655C285.992 193.219 285.535 193.675 284.972 193.675Z" fill="white"/>
<path d="M284.792 191.6H282.191C281.956 191.6 281.766 191.41 281.766 191.175C281.766 190.94 281.956 190.75 282.191 190.75H284.792C285.026 190.75 285.217 190.94 285.217 191.175C285.217 191.41 285.026 191.6 284.792 191.6Z" fill="#6784D0"/>
<path d="M292.855 193.675H289.895C289.331 193.675 288.875 193.219 288.875 192.655V189.696C288.875 189.132 289.331 188.676 289.895 188.676H292.855C293.418 188.676 293.875 189.132 293.875 189.696V192.655C293.875 193.219 293.418 193.675 292.855 193.675Z" fill="white"/>
<path d="M292.674 191.6H290.073C289.839 191.6 289.648 191.41 289.648 191.175C289.648 190.94 289.839 190.75 290.073 190.75H292.674C292.909 190.75 293.099 190.94 293.099 191.175C293.099 191.41 292.91 191.6 292.674 191.6Z" fill="#6784D0"/>
<path d="M291.378 192.901C291.144 192.901 290.953 192.711 290.953 192.476V189.876C290.953 189.642 291.144 189.451 291.378 189.451C291.613 189.451 291.803 189.642 291.803 189.876V192.476C291.803 192.712 291.613 192.901 291.378 192.901Z" fill="#6784D0"/>
<path opacity="0.17" d="M311.784 239.437H210.191L140.633 105.175V89.124C140.633 85.6399 143.458 82.8145 146.951 82.8145H230.643L311.784 239.437Z" fill="white"/>
<path opacity="0.17" d="M371.779 153.126V233.119C371.779 236.603 368.954 239.437 365.461 239.437H356.164L275.031 82.8145H335.351L371.779 153.126Z" fill="white"/>
<path d="M165.31 80.9707L147.673 87.7622C147.426 87.8557 147.188 87.9577 146.95 88.0597C146.746 88.1532 146.551 88.2467 146.355 88.3487C144.944 89.0372 143.652 89.9127 142.513 90.9412C142.36 91.0857 142.199 91.2302 142.046 91.3747C139.768 93.5932 138.153 96.4322 137.422 99.5602C137.371 99.7642 137.328 99.9767 137.294 100.181C137.252 100.385 137.218 100.597 137.184 100.801C137.056 101.643 136.988 102.493 136.988 103.36V104.405C136.92 108.902 133.104 112.497 128.514 112.2C124.289 111.936 121.102 108.239 121.102 104.006V103.861C121.102 103.683 121.102 103.504 121.119 103.326C121.127 103.105 121.136 102.884 121.153 102.663C121.17 102.467 121.187 102.272 121.212 102.076C121.544 99.1692 122.623 96.4407 124.272 94.1457C125.122 92.9557 126.125 91.8762 127.264 90.9412C128.548 89.8702 130.01 88.9947 131.599 88.3487C131.71 88.2977 131.829 88.2467 131.948 88.2042C132.16 88.1277 132.373 88.0512 132.585 87.9747L153.206 80.9707H165.31Z" fill="#FED272"/>
<path d="M189.612 80.9707L177.772 87.1757C177.448 87.3457 177.125 87.5327 176.81 87.7282C176.554 87.8812 176.308 88.0427 176.069 88.2127C176.001 88.2552 175.933 88.2977 175.865 88.3487C175.848 88.3572 175.822 88.3742 175.805 88.3912C175.286 88.7567 174.783 89.1647 174.315 89.5897C173.846 90.0232 173.412 90.4737 173.003 90.9412C172.918 91.0347 172.833 91.1197 172.756 91.2132C172.671 91.3067 172.594 91.3917 172.525 91.4852C172.023 92.0972 171.58 92.7517 171.18 93.4317C171.001 93.7207 170.83 94.0267 170.677 94.3242C170.677 94.3327 170.669 94.3412 170.669 94.3497C170.524 94.6302 170.396 94.9107 170.26 95.1912C169.366 97.1802 168.854 99.3562 168.803 101.6C168.795 101.804 168.795 102 168.795 102.204V104.278C168.795 108.834 164.953 112.497 160.319 112.2C156.086 111.936 152.875 108.247 152.875 104.014V102.875C152.875 102.246 152.909 101.617 152.977 101.005C153.028 100.555 153.096 100.121 153.173 99.6877C153.803 96.3387 155.413 93.3042 157.763 90.9412C158.751 89.9467 159.876 89.0712 161.111 88.3487C161.528 88.1022 161.962 87.8727 162.405 87.6602C162.592 87.5667 162.78 87.4817 162.976 87.3967L177.473 80.9707H189.612Z" fill="#FED272"/>
<path d="M201.751 80.9707L192.433 86.9377C192.134 87.1332 191.837 87.3287 191.556 87.5412C191.394 87.6602 191.232 87.7877 191.07 87.9152C190.9 88.0597 190.729 88.2042 190.559 88.3487C189.657 89.1307 188.848 90.0062 188.149 90.9412C186.266 93.4147 185.091 96.3812 184.793 99.5262C184.776 99.7047 184.759 99.8832 184.751 100.062C184.742 100.13 184.734 100.206 184.742 100.274C184.725 100.487 184.725 100.699 184.717 100.912V101.141L184.708 104.278C184.708 108.834 180.875 112.497 176.233 112.2C172 111.936 168.797 108.247 168.797 104.014V102.204C168.797 102 168.797 101.804 168.805 101.6C168.882 99.3392 169.393 97.1632 170.262 95.1912C170.398 94.9107 170.527 94.6302 170.671 94.3497C170.671 94.3412 170.68 94.3327 170.68 94.3242C170.833 94.0267 171.003 93.7207 171.182 93.4317C171.582 92.7517 172.025 92.0972 172.528 91.4852C172.596 91.3917 172.672 91.3067 172.758 91.2132C172.826 91.1197 172.902 91.0347 172.988 90.9412C173.397 90.4652 173.84 90.0147 174.317 89.5897C174.785 89.1647 175.287 88.7567 175.808 88.3912C175.825 88.3742 175.85 88.3572 175.867 88.3487C175.935 88.2977 176.003 88.2552 176.071 88.2127C176.31 88.0427 176.557 87.8812 176.812 87.7282C177.128 87.5327 177.452 87.3457 177.775 87.1757L189.614 80.9707H201.751Z" fill="#006E7E"/>
<path d="M213.892 80.9707L206.746 86.8527C206.184 87.3202 205.647 87.8217 205.153 88.3487C204.403 89.1477 203.739 90.0232 203.168 90.9412C201.533 93.5592 200.638 96.6107 200.638 99.7642V104.006C200.638 108.239 197.436 111.936 193.194 112.2C188.561 112.497 184.719 108.834 184.719 104.278V100.912C184.719 100.699 184.727 100.487 184.744 100.274C184.736 100.206 184.744 100.13 184.753 100.062C184.761 99.8832 184.778 99.7047 184.795 99.5262C185.068 96.3812 186.234 93.4147 188.117 90.9412C188.816 89.9977 189.633 89.1307 190.536 88.3487C190.715 88.2042 190.885 88.0597 191.072 87.9152C191.234 87.7877 191.396 87.6602 191.558 87.5412C191.839 87.3287 192.137 87.1332 192.435 86.9377L201.754 80.9707H213.892Z" fill="#FED272"/>
<path d="M226.024 80.9707L220.649 87.1502C220.317 87.5327 220.002 87.9322 219.713 88.3487C219.117 89.1647 218.605 90.0317 218.179 90.9412C217.941 91.4342 217.728 91.9357 217.55 92.4457C217.49 92.6242 217.431 92.7942 217.371 92.9642C217.286 93.2277 217.21 93.4912 217.141 93.7547C216.749 95.1657 216.552 96.6362 216.552 98.1237V104.006C216.552 108.239 213.341 111.936 209.108 112.2C204.475 112.497 200.633 108.834 200.633 104.278V99.7642C200.633 96.6107 201.527 93.5592 203.162 90.9412C203.733 90.0232 204.397 89.1477 205.147 88.3487C205.641 87.8217 206.178 87.3202 206.74 86.8527L213.887 80.9707H226.024Z" fill="#006E7E"/>
<path d="M238.172 80.9707L234.382 88.2382C234.365 88.2722 234.348 88.3147 234.331 88.3487C233.897 89.1817 233.539 90.0572 233.257 90.9412C232.747 92.5647 232.482 94.2562 232.482 95.9732V104.006C232.482 108.239 229.271 111.936 225.038 112.2C220.404 112.497 216.562 108.834 216.562 104.278V98.1152C216.562 96.6362 216.758 95.1657 217.141 93.7547C217.209 93.4912 217.286 93.2277 217.372 92.9642C217.431 92.7942 217.491 92.6242 217.55 92.4457C217.737 91.9357 217.942 91.4342 218.189 90.9412C218.614 90.0402 219.125 89.1732 219.73 88.3487C220.012 87.9407 220.326 87.5412 220.659 87.1587L226.025 80.9707H238.172Z" fill="#FED272"/>
<path d="M250.21 80.9707L248.944 88.3487L248.578 90.4737C248.57 90.5077 248.57 90.5417 248.561 90.5757C248.553 90.6352 248.544 90.6947 248.536 90.7627L248.502 90.9412L248.34 91.8762H248.332V104.278C248.332 108.834 244.498 112.497 239.874 112.2C235.65 111.936 232.445 108.239 232.445 104.006V95.9477C232.445 94.2477 232.709 92.5562 233.21 90.9412C233.499 90.0487 233.848 89.1817 234.281 88.3487C234.29 88.3147 234.307 88.2892 234.324 88.2552L238.098 80.9707H250.21Z" fill="#006E7E"/>
<path d="M264.231 91.8762H264.222V104.278C264.222 108.834 260.389 112.497 255.765 112.2C251.54 111.936 248.336 108.239 248.336 104.006V93.2957C248.336 92.5137 248.387 91.7232 248.506 90.9412C248.506 90.8817 248.523 90.8222 248.531 90.7627C248.54 90.6947 248.548 90.6352 248.557 90.5757C248.565 90.5417 248.565 90.5077 248.574 90.4737L248.939 88.3487L250.206 80.9707H262.327L263.619 88.3487L264.069 90.9412L264.231 91.8762Z" fill="#FED272"/>
<path d="M280.102 95.9647V104.006C280.102 108.239 276.906 111.936 272.682 112.2C268.049 112.497 264.224 108.834 264.224 104.278V93.3212C264.224 92.5307 264.165 91.7232 264.046 90.9412C264.029 90.7712 263.995 90.6097 263.969 90.4482L263.604 88.3487L262.32 80.9707H274.433L278.215 88.2382C278.232 88.2722 278.249 88.3147 278.266 88.3487H278.275C278.479 88.7482 278.666 89.1562 278.836 89.5642C279.023 90.0147 279.193 90.4737 279.329 90.9412C279.839 92.5647 280.102 94.2562 280.102 95.9647Z" fill="#006E7E"/>
<path d="M296.001 98.1237V104.006C296.001 108.239 292.805 111.936 288.572 112.2C283.948 112.497 280.115 108.834 280.115 104.278V95.9647C280.115 94.2562 279.851 92.5647 279.341 90.9412H279.333C279.197 90.4737 279.027 90.0147 278.84 89.5642C278.678 89.1562 278.491 88.7482 278.279 88.3487C278.262 88.3147 278.245 88.2722 278.228 88.2382L274.445 80.9707H286.558L289.422 84.2857L291.913 87.1502C292.244 87.5327 292.559 87.9322 292.848 88.3487C293.443 89.1647 293.953 90.0317 294.378 90.9412C295.44 93.1682 296.001 95.6247 296.001 98.1237Z" fill="#FED272"/>
<path d="M311.885 99.7642V104.006C311.885 108.239 308.681 111.936 304.456 112.2C299.832 112.497 295.999 108.834 295.999 104.278V98.1237C295.999 95.6247 295.438 93.1682 294.375 90.9412C293.95 90.0317 293.44 89.1647 292.845 88.3487C292.556 87.9322 292.242 87.5327 291.91 87.1502L289.42 84.2857L286.547 80.9707H298.659L305.791 86.8527C306.352 87.3202 306.887 87.8217 307.38 88.3487C308.128 89.1477 308.791 90.0232 309.361 90.9412C310.993 93.5592 311.885 96.6107 311.885 99.7642Z" fill="#006E7E"/>
<path d="M359.543 102.756V104.006C359.543 108.239 356.347 111.936 352.114 112.2C347.49 112.497 343.657 108.834 343.657 104.278V101.991C343.657 97.8517 342.127 93.9417 339.483 90.9412C338.642 89.9807 337.681 89.1052 336.61 88.3487C336.007 87.9237 335.369 87.5242 334.698 87.1757L322.883 80.9707H334.995L349.598 87.4562C350.193 87.7197 350.763 88.0172 351.315 88.3487C352.556 89.0712 353.678 89.9467 354.673 90.9412C357.733 94.0267 359.543 98.2427 359.543 102.756Z" fill="#FED272"/>
<path d="M153.203 80.9707L132.582 87.9747L132.446 88.0172C132.276 88.0767 132.106 88.1362 131.944 88.2042C131.817 88.2467 131.698 88.2977 131.579 88.3487C129.972 88.9862 128.493 89.8702 127.201 90.9412C123.861 93.6867 121.659 97.6732 121.209 102.076C121.183 102.272 121.166 102.467 121.149 102.663C121.132 102.884 121.124 103.105 121.115 103.326C121.098 103.504 121.098 103.683 121.098 103.861V104.278C121.098 108.834 117.248 112.497 112.624 112.2C108.399 111.936 105.203 108.239 105.203 104.006C105.203 100.402 106.385 97.0102 108.425 94.2562C109.351 93.0067 110.456 91.8847 111.714 90.9412C113.219 89.8107 114.936 88.9182 116.814 88.3487L141.09 80.9707H153.203Z" fill="#006E7E"/>
<path d="M177.42 80.9707L162.953 87.3967C162.757 87.4817 162.57 87.5667 162.383 87.6602C161.95 87.8727 161.516 88.1022 161.108 88.3487C159.893 89.0797 158.788 89.9552 157.802 90.9412C155.447 93.3127 153.815 96.3557 153.169 99.6877C153.093 100.121 153.025 100.555 152.974 101.005C152.897 101.626 152.863 102.263 152.863 102.901V104.278C152.863 108.834 149.03 112.497 144.406 112.2C140.317 111.945 137.181 108.477 136.985 104.405V104.278C136.977 104.193 136.977 104.099 136.977 104.014V103.394C136.977 102.51 137.045 101.643 137.181 100.801C137.215 100.597 137.249 100.385 137.291 100.181C137.325 99.9767 137.368 99.7642 137.419 99.5602C138.141 96.4152 139.765 93.5762 142.043 91.3747C142.187 91.2217 142.34 91.0772 142.493 90.9412C143.632 89.9127 144.916 89.0372 146.327 88.3487C146.531 88.2467 146.735 88.1532 146.947 88.0597C147.185 87.9577 147.423 87.8557 147.67 87.7622L165.307 80.9707H177.42Z" fill="#006E7E"/>
<path d="M327.761 101.022V104.278C327.761 108.834 323.927 112.497 319.303 112.2C315.07 111.936 311.874 108.239 311.874 104.006V99.7642C311.874 96.6107 310.982 93.5592 309.35 90.9412C308.78 90.0232 308.117 89.1477 307.369 88.3487C306.876 87.8217 306.341 87.3202 305.78 86.8527L298.648 80.9707H310.761L320.06 86.9377C320.723 87.3627 321.36 87.8387 321.947 88.3487C322.856 89.1307 323.664 89.9977 324.369 90.9412C326.537 93.7972 327.761 97.3247 327.761 101.022Z" fill="#FED272"/>
<path d="M343.652 101.991V104.006C343.652 108.239 340.456 111.936 336.24 112.2C331.608 112.497 327.766 108.834 327.766 104.278V101.022C327.766 97.3247 326.542 93.7972 324.374 90.9412C323.669 89.9977 322.861 89.1307 321.952 88.3487C321.365 87.8387 320.728 87.3627 320.065 86.9377L310.766 80.9707H322.878L334.693 87.1757C335.365 87.5242 336.002 87.9237 336.606 88.3487C337.677 89.1052 338.637 89.9807 339.479 90.9412C342.122 93.9417 343.652 97.8517 343.652 101.991Z" fill="#006E7E"/>
<path d="M375.427 103.36V104.278C375.427 108.834 371.593 112.497 366.969 112.2C362.745 111.936 359.54 108.239 359.54 104.006V102.756C359.54 98.2427 357.73 94.0267 354.67 90.9412C353.675 89.9467 352.553 89.0712 351.312 88.3487C350.76 88.0172 350.19 87.7197 349.595 87.4562L334.992 80.9707H347.105L364.7 87.7452C365.167 87.9237 365.626 88.1277 366.077 88.3487C367.488 89.0372 368.763 89.9127 369.902 90.9412C373.353 94.0522 375.427 98.5317 375.427 103.36Z" fill="#006E7E"/>
<path d="M407.193 104.278C407.193 108.664 403.649 112.217 399.263 112.217C399.084 112.217 398.914 112.208 398.736 112.2C394.511 111.936 391.315 108.239 391.315 104.006V103.861C391.315 98.7527 388.995 94.0522 385.204 90.9412C383.912 89.8702 382.441 88.9947 380.843 88.3487C380.554 88.2297 380.257 88.1192 379.959 88.0172L359.211 80.9707H371.315L395.327 88.2637C395.412 88.2892 395.497 88.3147 395.582 88.3487C397.418 88.9352 399.093 89.8192 400.572 90.9412C404.652 94.0352 407.193 98.9312 407.193 104.278Z" fill="#006E7E"/>
<path d="M391.319 103.861V104.006C391.319 108.239 388.123 111.936 383.898 112.2C379.266 112.497 375.424 108.834 375.424 104.278V103.36C375.424 98.5317 373.35 94.0522 369.899 90.9412C368.76 89.9127 367.485 89.0372 366.074 88.3487C365.623 88.1277 365.164 87.9237 364.697 87.7452L347.102 80.9707H359.214L379.963 88.0172C380.26 88.1192 380.558 88.2297 380.847 88.3487C382.445 88.9947 383.915 89.8702 385.207 90.9412C388.998 94.0522 391.319 98.7527 391.319 103.861Z" fill="#FED57D"/>
<path opacity="0.5" d="M395.331 88.2637L371.278 80.9707H274.428H274.232H141.123L116.812 88.3487H278.072H278.261H395.587C395.502 88.3147 395.417 88.2892 395.331 88.2637Z" fill="white"/>
<path d="M141.565 309.638H95.2327C89.1416 309.638 84.2031 304.7 84.2031 298.608V268.763C84.2031 262.672 89.1408 257.734 95.2327 257.734H141.565C147.656 257.734 152.594 262.672 152.594 268.216V298.061C152.593 304.699 147.656 309.638 141.565 309.638Z" fill="#81CBFF"/>
<path d="M457.748 196.053H423.262C417.664 196.053 413.125 191.515 413.125 185.916V151.43C413.125 145.832 417.663 141.293 423.262 141.293H457.748C463.347 141.293 467.885 145.831 467.885 151.43V185.916C467.885 191.514 463.346 196.053 457.748 196.053Z" fill="#52C6C6"/>
<path d="M90.3042 199.104H48.1552C41.3127 199.104 35.7656 193.557 35.7656 186.714V144.565C35.7656 137.723 41.3127 132.176 48.1552 132.176H90.3042C97.1467 132.176 102.694 137.723 102.694 144.565V186.714C102.694 193.557 97.1467 199.104 90.3042 199.104Z" fill="#FED272"/>
<path d="M178.571 62.7499H148.795C144.801 62.7499 141.562 59.5114 141.562 55.5172V35.4768C141.562 31.4818 144.801 28.2441 148.795 28.2441H178.571C182.565 28.2441 185.803 31.4826 185.803 35.4768V55.5172C185.803 59.5122 182.565 62.7499 178.571 62.7499Z" fill="#81CBFF"/>
<path d="M392.997 277.338H352.897C347.518 277.338 343.156 272.976 343.156 267.597V240.608C343.156 235.229 347.518 230.867 352.897 230.867H392.997C398.376 230.867 402.738 235.229 402.738 240.608V267.597C402.737 272.977 398.376 277.338 392.997 277.338Z" fill="#52C6C6"/>
<path d="M400.34 85.6026H350.873C344.264 85.6026 338.906 80.245 338.906 73.6363V40.6401C338.906 34.0314 344.264 28.6738 350.873 28.6738H400.34C406.949 28.6738 412.306 34.0314 412.306 40.6401V73.6363C412.307 80.245 406.95 85.6026 400.34 85.6026Z" fill="#81CBFF"/>
<path d="M358.6 237.225C355.311 237.225 352.656 239.889 352.656 243.169C352.656 243.957 352.81 244.7 353.082 245.389L353.091 245.398C353.363 246.069 358.6 254.033 358.6 254.033C358.6 254.033 363.837 246.078 364.109 245.398V245.389C364.39 244.7 364.544 243.957 364.544 243.169C364.544 239.889 361.88 237.225 358.6 237.225ZM358.6 245.479C357.205 245.479 356.081 244.355 356.081 242.96C356.081 241.574 357.205 240.45 358.6 240.45C359.987 240.45 361.11 241.574 361.11 242.96C361.11 244.355 359.987 245.479 358.6 245.479Z" fill="#CE2E79"/>
<path d="M387.288 253.672C383.998 253.672 381.344 256.336 381.344 259.616C381.344 260.404 381.498 261.148 381.77 261.836L381.779 261.845C382.051 262.516 387.288 270.481 387.288 270.481C387.288 270.481 392.525 262.525 392.797 261.845V261.836C393.078 261.148 393.232 260.405 393.232 259.616C393.232 256.336 390.568 253.672 387.288 253.672ZM387.288 261.926C385.892 261.926 384.768 260.803 384.768 259.408C384.768 258.021 385.892 256.898 387.288 256.898C388.674 256.898 389.798 258.021 389.798 259.408C389.798 260.803 388.674 261.926 387.288 261.926Z" fill="#CE2E79"/>
<path d="M387.284 270.798C387.264 270.798 387.242 270.797 387.221 270.791L361.044 265.541C360.873 265.506 360.761 265.338 360.795 265.165C360.829 264.994 360.995 264.875 361.17 264.916L387.347 270.167C387.519 270.202 387.631 270.37 387.597 270.542C387.566 270.694 387.434 270.798 387.284 270.798Z" fill="white"/>
<path d="M361.193 263.595C361.086 263.595 360.981 263.541 360.921 263.442C360.83 263.291 360.877 263.096 361.028 263.004L373.37 255.502C373.518 255.41 373.716 255.458 373.808 255.609C373.899 255.759 373.852 255.955 373.701 256.047L361.359 263.549C361.306 263.581 361.249 263.595 361.193 263.595Z" fill="white"/>
<path d="M373.021 254.43H358.678C358.502 254.43 358.359 254.288 358.359 254.112C358.359 253.936 358.502 253.793 358.678 253.793H373.021C373.197 253.793 373.34 253.936 373.34 254.112C373.34 254.288 373.197 254.43 373.021 254.43Z" fill="white"/>
<path d="M376.846 254.11C376.846 255.237 375.933 256.15 374.806 256.15C373.679 256.15 372.766 255.237 372.766 254.11C372.766 252.984 373.679 252.07 374.806 252.07C375.932 252.071 376.846 252.984 376.846 254.11Z" fill="white"/>
<path d="M361.635 264.671C361.635 265.797 360.722 266.711 359.595 266.711C358.468 266.711 357.555 265.798 357.555 264.671C357.555 263.545 358.468 262.631 359.595 262.631C360.722 262.631 361.635 263.545 361.635 264.671Z" fill="white"/>
<path d="M352.877 61.2903C350.878 59.4144 349.664 56.963 349.664 54.2778C349.664 48.3822 355.502 43.6035 362.704 43.6035C369.906 43.6035 375.744 48.3831 375.744 54.2778C375.744 60.1726 369.906 64.9521 362.704 64.9521C360.348 64.9521 358.139 64.4379 356.232 63.5428C354.205 64.9564 351.515 66.8255 351.515 66.8255L352.877 61.2903Z" fill="#436BD0"/>
<path d="M397.656 66.7509C400.079 64.478 401.55 61.5064 401.55 58.2526C401.55 51.1083 394.475 45.3164 385.748 45.3164C377.021 45.3164 369.945 51.1083 369.945 58.2526C369.945 65.3968 377.02 71.1887 385.748 71.1887C388.603 71.1887 391.279 70.5657 393.591 69.4811C396.047 71.1947 399.306 73.4591 399.306 73.4591L397.656 66.7509Z" fill="white"/>
<path d="M392.563 58.8321C392.563 59.6541 391.896 60.3205 391.074 60.3205C390.252 60.3205 389.586 59.6541 389.586 58.8321C389.586 58.0102 390.252 57.3438 391.074 57.3438C391.896 57.3438 392.563 58.0102 392.563 58.8321Z" fill="#171C4F"/>
<path d="M387.234 58.8321C387.234 59.6541 386.568 60.3205 385.746 60.3205C384.924 60.3205 384.258 59.6541 384.258 58.8321C384.258 58.0102 384.924 57.3438 385.746 57.3438C386.568 57.3438 387.234 58.0102 387.234 58.8321Z" fill="#171C4F"/>
<path d="M381.922 58.8321C381.922 59.6541 381.256 60.3205 380.434 60.3205C379.612 60.3205 378.945 59.6541 378.945 58.8321C378.945 58.0102 379.612 57.3438 380.434 57.3438C381.256 57.3438 381.922 58.0102 381.922 58.8321Z" fill="#171C4F"/>
<path d="M366.858 55.7748C367.5 55.7748 368.021 55.2542 368.021 54.612C368.021 53.9698 367.5 53.4492 366.858 53.4492C366.216 53.4492 365.695 53.9698 365.695 54.612C365.695 55.2542 366.216 55.7748 366.858 55.7748Z" fill="white"/>
<path d="M362.702 55.7748C363.344 55.7748 363.865 55.2542 363.865 54.612C363.865 53.9698 363.344 53.4492 362.702 53.4492C362.06 53.4492 361.539 53.9698 361.539 54.612C361.539 55.2542 362.06 55.7748 362.702 55.7748Z" fill="white"/>
<path d="M358.546 55.7748C359.188 55.7748 359.708 55.2542 359.708 54.612C359.708 53.9698 359.188 53.4492 358.546 53.4492C357.903 53.4492 357.383 53.9698 357.383 54.612C357.383 55.2542 357.903 55.7748 358.546 55.7748Z" fill="white"/>
<path d="M451.215 178.329L446.807 181.579C444.066 183.591 440.223 183.443 436.572 181.568C434.255 180.375 432.017 178.482 430.191 176.006C427.258 172.021 426.088 167.466 426.722 163.804C427.095 161.605 428.123 159.723 429.802 158.486L434.21 155.242L435.578 157.096L436.239 157.994L447.921 173.853L449.854 176.475L451.215 178.329Z" fill="#FFA901"/>
<mask id="mask9_53042_24388" style="mask-type:luminance" maskUnits="userSpaceOnUse" x="426" y="155" width="26" height="29">
<path d="M451.215 178.329L446.807 181.579C444.066 183.591 440.223 183.443 436.572 181.568C434.255 180.375 432.017 178.482 430.191 176.006C427.258 172.021 426.088 167.466 426.722 163.804C427.095 161.605 428.123 159.723 429.802 158.486L434.21 155.242L435.578 157.096L436.239 157.994L447.921 173.853L449.854 176.475L451.215 178.329Z" fill="white"/>
</mask>
<g mask="url(#mask9_53042_24388)">
<path d="M427.779 197.23L427.398 196.719L450.898 179.291L451.278 179.802L427.779 197.23Z" fill="#8A5703"/>
<path d="M426.334 191.969L425.953 191.458L449.452 174.029L449.832 174.541L426.334 191.969Z" fill="#8A5703"/>
<path d="M448.002 168.738L424.523 186.195L424.904 186.707L448.382 169.25L448.002 168.738Z" fill="#8A5703"/>
<path d="M446.548 163.478L423.07 180.936L423.451 181.447L446.929 163.99L446.548 163.478Z" fill="#8A5703"/>
<path d="M445.107 158.231L421.625 175.686L422.005 176.197L445.487 158.742L445.107 158.231Z" fill="#8A5703"/>
<path d="M443.639 152.986L420.156 170.434L420.536 170.945L444.02 153.497L443.639 152.986Z" fill="#8A5703"/>
<path d="M442.172 147.738L418.68 165.172L419.06 165.684L442.552 148.25L442.172 147.738Z" fill="#8A5703"/>
</g>
<path opacity="0.5" d="M451.213 178.332L446.805 181.581C444.064 183.593 440.221 183.446 436.57 181.57L447.919 173.855L449.852 176.478L451.213 178.332Z" fill="#8A5703"/>
<path opacity="0.5" d="M436.236 157.994C434.716 158.989 429.912 161.882 426.719 163.804C427.092 161.605 428.12 159.723 429.799 158.486L434.207 155.242L435.575 157.096L436.236 157.994Z" fill="white"/>
<path d="M451.236 178.318C455.716 175.018 455.541 167.174 450.844 160.798C446.148 154.422 438.709 151.928 434.229 155.228C429.749 158.528 429.924 166.372 434.621 172.748C439.317 179.124 446.756 181.618 451.236 178.318Z" fill="#FFC64F"/>
<path d="M446.51 178.832C442.804 178.832 438.463 176.401 435.367 172.197C433.263 169.34 432.035 166.097 431.909 163.064C431.782 159.985 432.802 157.486 434.782 156.028C436.764 154.568 439.453 154.336 442.355 155.371C445.213 156.391 447.946 158.525 450.051 161.382C452.155 164.238 453.383 167.482 453.508 170.514C453.636 173.593 452.616 176.093 450.635 177.551C449.454 178.419 448.036 178.831 446.51 178.832ZM438.922 155.372C437.498 155.372 436.213 155.764 435.159 156.54C433.355 157.87 432.426 160.177 432.545 163.038C432.666 165.945 433.85 169.063 435.879 171.818C440.042 177.469 446.491 179.809 450.256 177.037C452.061 175.709 452.99 173.401 452.871 170.54C452.749 167.633 451.566 164.514 449.536 161.759C447.507 159.005 444.879 156.948 442.14 155.971C441.019 155.571 439.934 155.372 438.922 155.372Z" fill="#8A5703"/>
<mask id="mask10_53042_24388" style="mask-type:luminance" maskUnits="userSpaceOnUse" x="434" y="154" width="17" height="25">
<path d="M442.828 178.052L434.852 159.283L442.866 154.84L450.843 173.61L442.828 178.052Z" fill="white"/>
</mask>
<g mask="url(#mask10_53042_24388)">
<path d="M440.548 159.077L440.794 159.656L439.387 160.436L439.157 159.896C437.637 161.193 437.011 163.378 437.765 165.154C438.207 166.193 439.077 166.949 440.147 167.22C440.879 167.412 441.65 167.37 442.314 167.114L442.46 167.056C443.364 166.709 444.216 166.38 445.182 166.572C446.12 166.757 446.857 167.377 447.214 168.264C447.503 168.998 447.503 169.886 447.204 170.703C446.94 171.435 446.435 172.106 445.779 172.582C445.641 172.683 445.498 172.775 445.353 172.856C444.773 173.177 444.141 173.333 443.535 173.299C442.716 173.256 441.952 172.863 441.44 172.222L441.389 172.15C441.289 172.028 441.195 171.908 441.078 171.86C441 171.826 440.904 171.839 440.817 171.887C440.731 171.934 440.668 172.011 440.641 172.098C440.547 172.381 440.769 172.701 440.907 172.862C441.525 173.59 442.42 174.053 443.358 174.138C443.933 174.189 444.529 174.098 445.1 173.883L444.839 173.269L446.245 172.489L446.487 173.058C447.014 172.609 447.441 172.05 447.733 171.422C448.13 170.586 448.268 169.644 448.131 168.768C448.01 167.983 447.656 167.249 447.138 166.708C446.35 165.883 445.141 165.523 443.908 165.745C443.512 165.817 443.127 165.953 442.76 166.08L442.722 165.942L442.747 166.088C442.097 166.318 441.429 166.552 440.698 166.46C439.683 166.33 438.844 165.7 438.451 164.775C437.758 163.145 438.567 161.057 440.25 160.124C441.74 159.299 443.495 159.653 444.33 160.941C444.449 161.119 444.646 161.181 444.814 161.087C444.914 161.032 444.986 160.927 445.014 160.805C445.046 160.681 445.023 160.551 444.957 160.446C444.03 158.996 442.221 158.468 440.548 159.077Z" fill="#8A5703"/>
<path d="M439.038 159.622C437.389 161 436.709 163.366 437.525 165.284C438.001 166.406 438.932 167.216 440.08 167.509C440.859 167.71 441.679 167.67 442.393 167.393L442.54 167.335C443.411 167.001 444.23 166.683 445.129 166.865C445.979 167.034 446.648 167.592 446.965 168.388C447.231 169.052 447.227 169.858 446.959 170.593C446.715 171.273 446.246 171.889 445.639 172.332C445.51 172.425 445.378 172.51 445.243 172.585C444.7 172.885 444.113 173.032 443.549 172.999C442.801 172.958 442.103 172.598 441.638 172.016L441.586 171.956C441.475 171.81 441.349 171.649 441.169 171.577C441.023 171.522 440.852 171.534 440.705 171.615L440.701 171.618C440.55 171.701 440.438 171.84 440.384 172.001C440.284 172.329 440.398 172.698 440.71 173.07C441.371 173.846 442.328 174.34 443.331 174.43C443.951 174.486 444.597 174.388 445.213 174.152L445.098 173.882C444.528 174.097 443.932 174.188 443.356 174.137C442.42 174.053 441.524 173.59 440.905 172.861C440.767 172.701 440.545 172.379 440.639 172.097C440.666 172.011 440.73 171.935 440.816 171.886C440.902 171.839 440.998 171.827 441.077 171.86C441.193 171.908 441.287 172.027 441.387 172.15L441.439 172.222C441.951 172.862 442.715 173.255 443.533 173.299C444.14 173.332 444.772 173.177 445.351 172.855C445.497 172.775 445.64 172.684 445.777 172.582C446.433 172.106 446.937 171.435 447.203 170.702C447.501 169.885 447.502 168.997 447.212 168.264C446.857 167.377 446.118 166.757 445.18 166.571C444.213 166.379 443.361 166.709 442.459 167.056L442.313 167.114C441.648 167.369 440.877 167.412 440.145 167.22C439.075 166.949 438.205 166.193 437.763 165.154C437.009 163.378 437.635 161.192 439.156 159.895L439.038 159.622ZM440.428 158.804L440.544 159.077C442.217 158.467 444.025 158.996 444.954 160.444C445.02 160.549 445.043 160.678 445.01 160.803C444.982 160.926 444.909 161.031 444.811 161.085C444.642 161.179 444.445 161.116 444.327 160.939C443.492 159.65 441.736 159.297 440.247 160.122C438.564 161.056 437.755 163.143 438.448 164.773C438.84 165.698 439.679 166.328 440.694 166.458C441.426 166.55 442.095 166.315 442.744 166.086L442.719 165.94L442.756 166.078C443.123 165.952 443.509 165.816 443.905 165.743C445.138 165.522 446.347 165.881 447.135 166.706C447.653 167.247 448.007 167.981 448.127 168.766C448.265 169.643 448.127 170.584 447.73 171.42C447.438 172.048 447.011 172.607 446.484 173.056L446.599 173.328C447.176 172.844 447.646 172.239 447.968 171.554C448.387 170.658 448.538 169.646 448.39 168.708C448.253 167.86 447.875 167.069 447.317 166.485C446.473 165.602 445.182 165.211 443.865 165.45C443.452 165.519 443.058 165.66 442.678 165.794L442.67 165.799C442.016 166.032 441.404 166.247 440.732 166.157C439.808 166.042 439.043 165.471 438.688 164.638C438.057 163.152 438.804 161.246 440.358 160.385C441.735 159.622 443.345 159.936 444.109 161.118C444.301 161.408 444.641 161.504 444.921 161.348C445.094 161.252 445.219 161.082 445.268 160.871C445.317 160.66 445.281 160.438 445.169 160.263C444.153 158.678 442.233 158.117 440.428 158.804Z" fill="#8A5703"/>
<path d="M446.243 172.488L444.836 173.268L445.097 173.881L445.212 174.151L445.768 175.458C445.951 175.889 446.414 176.065 446.803 175.849C447.191 175.634 447.358 175.11 447.174 174.678L446.601 173.329L446.486 173.057L446.243 172.488Z" fill="#8A5703"/>
<path d="M438.829 157.078C438.441 157.293 438.274 157.818 438.457 158.25L439.041 159.621L439.157 159.894L439.387 160.435L440.793 159.655L440.548 159.076L440.432 158.803L439.865 157.469C439.682 157.038 439.217 156.863 438.829 157.078Z" fill="#8A5703"/>
</g>
<path d="M175.301 47.3739C176.338 40.9553 171.975 34.9114 165.557 33.8743C159.138 32.8373 153.094 37.1999 152.057 43.6184C151.02 50.037 155.383 56.0809 161.802 57.1179C168.22 58.155 174.264 53.7924 175.301 47.3739Z" fill="#CE2E79"/>
<path d="M167.438 44.9961C165.435 44.9961 163.805 46.6264 163.805 48.6298C163.805 50.6333 165.435 52.2636 167.438 52.2636C169.442 52.2636 171.072 50.6333 171.072 48.6298C171.071 46.6264 169.442 44.9961 167.438 44.9961ZM167.438 50.6333C166.333 50.6333 165.435 49.7348 165.435 48.6298C165.435 47.5248 166.334 46.6264 167.438 46.6264C168.543 46.6264 169.442 47.5248 169.442 48.6298C169.442 49.7348 168.543 50.6333 167.438 50.6333Z" fill="white"/>
<path d="M163.564 42.5224C163.564 40.519 161.934 38.8887 159.931 38.8887C157.927 38.8887 156.297 40.519 156.297 42.5224C156.297 44.5259 157.927 46.1553 159.931 46.1553C161.934 46.1553 163.564 44.5259 163.564 42.5224ZM157.927 42.5224C157.927 41.4174 158.826 40.519 159.931 40.519C161.036 40.519 161.934 41.4174 161.934 42.5224C161.934 43.6274 161.035 44.5259 159.931 44.5259C158.826 44.5259 157.927 43.6266 157.927 42.5224Z" fill="white"/>
<path d="M167.159 39.022L158.859 51.2344L160.208 52.1508L168.507 39.9384L167.159 39.022Z" fill="white"/>
<path d="M90.4141 275.672L90.5637 292.204L116.992 299.762L116.912 281.757L90.4141 275.672Z" fill="#F1B372"/>
<path d="M90.4141 275.672L118.4 270.115L146.775 273.999L116.826 281.919L90.4141 275.672Z" fill="#FDDE9A"/>
<path d="M116.993 299.761L146.787 289.827L146.777 273.998L116.828 281.918L116.993 299.761Z" fill="#E2994B"/>
<mask id="mask11_53042_24388" style="mask-type:luminance" maskUnits="userSpaceOnUse" x="90" y="270" width="57" height="30">
<path d="M146.775 273.999L118.401 270.115L90.4149 275.672L90.4523 275.68L90.4141 275.672L90.5637 292.204L116.992 299.762L146.786 289.828L146.775 273.999Z" fill="white"/>
</mask>
<g mask="url(#mask11_53042_24388)">
<path d="M124.276 301.067L123.572 280.531L90.4609 273.361L90.6411 272.531L124.398 279.84L125.125 301.037L124.276 301.067Z" fill="white"/>
</g>
<mask id="mask12_53042_24388" style="mask-type:luminance" maskUnits="userSpaceOnUse" x="90" y="270" width="57" height="30">
<path d="M146.775 273.999L118.401 270.115L90.4149 275.672L90.4523 275.68L90.4141 275.672L90.5637 292.204L116.992 299.762L146.786 289.828L146.775 273.999Z" fill="white"/>
</mask>
<g mask="url(#mask12_53042_24388)">
<path d="M116.968 295.16L87.9453 286.802L88.8863 283.535L116.895 291.601L149.257 280.818L150.332 284.044L116.968 295.16Z" fill="white"/>
</g>
<mask id="mask13_53042_24388" style="mask-type:luminance" maskUnits="userSpaceOnUse" x="90" y="270" width="57" height="30">
<path d="M146.775 273.999L118.401 270.115L90.4149 275.672L90.4523 275.68L90.4141 275.672L90.5637 292.204L116.992 299.762L146.786 289.828L146.775 273.999Z" fill="white"/>
</mask>
<g mask="url(#mask13_53042_24388)">
<path d="M128.006 299.679L127.621 279.15L94.5156 271.98L94.6958 271.15L128.459 278.461L128.856 299.663L128.006 299.679Z" fill="white"/>
</g>
<path d="M81.6674 169.654H57.9218C53.4202 169.654 49.5689 166.73 48.7894 162.721L46.8047 152.51H85.0003L81.6674 169.654Z" fill="white"/>
<mask id="mask14_53042_24388" style="mask-type:luminance" maskUnits="userSpaceOnUse" x="46" y="152" width="39" height="18">
<path d="M81.6674 169.654H57.9218C53.4202 169.654 49.5689 166.73 48.7894 162.721L46.8047 152.51H85.0003L81.6674 169.654Z" fill="white"/>
</mask>
<g mask="url(#mask14_53042_24388)">
<path d="M76.7149 176.116C76.6902 176.116 76.6647 176.114 76.6392 176.11C76.4089 176.068 76.2542 175.847 76.2958 175.617L81.2598 147.936C81.3015 147.706 81.5208 147.55 81.7537 147.593C81.984 147.635 82.1387 147.856 82.0971 148.087L77.1331 175.766C77.0965 175.972 76.9172 176.116 76.7149 176.116Z" fill="#68BCBC"/>
<path d="M70.6055 176.116C70.5809 176.116 70.5554 176.114 70.5299 176.11C70.2995 176.068 70.1448 175.847 70.1865 175.617L75.1505 147.936C75.1913 147.706 75.414 147.55 75.6435 147.593C75.8738 147.635 76.0285 147.856 75.9869 148.087L71.0229 175.766C70.9863 175.972 70.8078 176.116 70.6055 176.116Z" fill="#68BCBC"/>
<path d="M64.4884 176.116C64.4637 176.116 64.4382 176.114 64.4127 176.11C64.1815 176.068 64.0277 175.847 64.0693 175.617L69.0333 147.936C69.0741 147.706 69.2951 147.55 69.5263 147.593C69.7567 147.635 69.9114 147.856 69.8697 148.087L64.9057 175.766C64.8692 175.972 64.6907 176.116 64.4884 176.116Z" fill="#68BCBC"/>
<path d="M58.379 176.116C58.3543 176.116 58.3288 176.114 58.3033 176.11C58.073 176.068 57.9183 175.847 57.9599 175.617L62.9239 147.936C62.9656 147.706 63.184 147.55 63.4169 147.593C63.6473 147.635 63.802 147.856 63.7603 148.087L58.7963 175.766C58.7598 175.972 58.5813 176.116 58.379 176.116Z" fill="#68BCBC"/>
<path d="M52.2618 176.116C52.2371 176.116 52.2116 176.114 52.1861 176.11C51.9558 176.068 51.8011 175.847 51.8427 175.617L56.8067 147.936C56.8475 147.706 57.0694 147.55 57.2997 147.593C57.5301 147.635 57.6848 147.856 57.6431 148.087L52.6791 175.766C52.6426 175.972 52.4641 176.116 52.2618 176.116Z" fill="#68BCBC"/>
<path d="M46.1524 176.116C46.1277 176.116 46.1022 176.114 46.0767 176.11C45.8464 176.068 45.6917 175.847 45.7333 175.617L50.6973 147.936C50.739 147.706 50.9574 147.55 51.1903 147.593C51.4215 147.635 51.5754 147.856 51.5337 148.087L46.5697 175.766C46.5332 175.972 46.3547 176.116 46.1524 176.116Z" fill="#68BCBC"/>
</g>
<path d="M80.4366 179.59C80.389 179.59 80.3405 179.586 80.2921 179.578C79.8297 179.499 79.5186 179.059 79.5985 178.597L84.5565 149.71C84.6262 149.302 84.9798 149.004 85.3938 149.004H91.8826C92.3518 149.004 92.7326 149.385 92.7326 149.854C92.7326 150.323 92.3518 150.704 91.8826 150.704H86.1103L81.2738 178.884C81.2024 179.298 80.8429 179.59 80.4366 179.59Z" fill="white"/>
<path d="M57.0687 179.597C56.5996 179.597 56.2188 179.217 56.2188 178.747C56.2188 178.278 56.5987 177.897 57.0679 177.897L80.4335 177.887C80.9027 177.887 81.2844 178.267 81.2844 178.737C81.2844 179.206 80.9044 179.587 80.4344 179.587L57.0687 179.597Z" fill="white"/>
<path d="M57.0905 185.794C58.8232 185.794 60.2278 184.39 60.2278 182.657C60.2278 180.924 58.8232 179.52 57.0905 179.52C55.3578 179.52 53.9531 180.924 53.9531 182.657C53.9531 184.39 55.3578 185.794 57.0905 185.794Z" fill="white"/>
<path d="M80.6764 185.794C82.4091 185.794 83.8138 184.39 83.8138 182.657C83.8138 180.924 82.4091 179.52 80.6764 179.52C78.9437 179.52 77.5391 180.924 77.5391 182.657C77.5391 184.39 78.9437 185.794 80.6764 185.794Z" fill="white"/>
</g>
<defs>
<clipPath id="clip0_53042_24388">
<rect width="510" height="340" fill="white"/>
</clipPath>
</defs>
</svg>
