<svg width="134" height="34" viewBox="0 0 134 34" fill="none" xmlns="http://www.w3.org/2000/svg">
<g clip-path="url(#clip0_496_40971)">
<path d="M4.12094 13.0391V24.7074C4.12094 25.71 4.81802 26.111 5.67596 25.6098L11.4824 22.2319C13.8188 20.8745 13.8188 18.6766 11.4824 17.3193L4.11328 13.0391H4.12094Z" fill="#919094"/>
<path d="M12.0647 33.2224L10.2416 32.1659L4.12109 28.6337L6.71024 27.1376L12.8078 23.59C13.7423 23.0656 13.8879 22.5643 14.0411 22.1787V32.081C14.0411 33.3458 13.1601 33.8625 12.0724 33.2301L12.0647 33.2224Z" fill="#006E7E"/>
<path d="M11.2452 2.05752L8.66369 3.56138L0 8.55881L3.66158 10.6719L12.2946 15.6925C13.6122 16.4328 13.819 17.1424 14.0335 17.6976V3.67706C14.0335 1.88786 12.7849 1.15521 11.2452 2.05752Z" fill="#F9C416"/>
<path d="M43.2946 13.4952H39.273V10.4335C39.273 9.02986 38.9589 7.98873 38.3231 7.31006C37.6107 6.54657 36.4463 6.16868 34.83 6.16868C33.4512 6.16868 32.1643 6.29207 30.977 6.53886V13.5029H29.6671C27.9129 13.5029 26.6719 13.179 25.9442 12.5234C25.2471 11.9142 24.9024 10.9039 24.9024 9.5003C24.9024 8.33577 25.1246 7.2715 25.5612 6.30749L22.8495 6.7548C22.5201 7.67253 22.3516 8.69053 22.3516 9.79336C22.3516 11.6597 22.8725 13.0556 23.9219 13.981C25.0709 15.0067 26.9017 15.5234 29.4143 15.5234H33.4282V8.2895C33.8495 8.21238 34.2708 8.17382 34.6922 8.17382C35.4888 8.17382 36.0404 8.35891 36.3544 8.7368C36.6685 9.11469 36.8217 9.77022 36.8217 10.7034V15.5003H45.8378V1.87305H43.3022V13.5029L43.2946 13.4952Z" fill="#1F225B"/>
<path d="M48.7707 7.64098C47.9587 8.52015 47.5527 9.65383 47.5527 11.0189C47.5527 14.0112 49.2686 15.5073 52.7004 15.5073H54.2018V15.8004C54.2018 17.5124 53.0911 18.3685 50.8696 18.3685C49.8738 18.3685 48.8779 18.2605 47.8745 18.0369L47.7136 20.1268C48.7018 20.2965 49.6746 20.3813 50.6398 20.3813C52.6774 20.3813 54.2171 19.9109 55.2589 18.9623C56.1934 18.1217 56.6607 16.9803 56.6607 15.5459V6.83892C55.4887 6.39162 54.1558 6.16797 52.6468 6.16797C50.9768 6.16797 49.6823 6.66154 48.7707 7.64098ZM54.2018 13.4944H52.9762C51.0535 13.4944 50.0883 12.5921 50.0883 10.7798C50.0883 10.0086 50.2874 9.39162 50.7011 8.90576C51.1147 8.41218 51.6739 8.1654 52.3787 8.1654C53.0834 8.1654 53.7192 8.28108 54.2095 8.51244V13.479L54.2018 13.4944Z" fill="#1F225B"/>
<path d="M66.0986 13.4945H60.1543V15.5073H68.6265V2.19629H66.0986V13.4945Z" fill="#1F225B"/>
<path d="M64.6893 12.0448L62.6746 4.98828H60.0625L62.1154 12.0448H64.6893Z" fill="#1F225B"/>
<path d="M63.4939 3.01414H62.3219C61.5022 3.01414 61.0963 2.80591 61.0963 2.38946C61.0963 2.01928 61.3873 1.83419 61.9619 1.83419C62.3832 1.83419 62.7049 1.86504 62.927 1.92674L63.1569 0.615681C62.8887 0.53856 62.5057 0.5 62.0231 0.5C61.1575 0.5 60.4911 0.692802 60.0085 1.06298C59.5795 1.41003 59.3574 1.84961 59.3574 2.38175C59.3574 2.70566 59.4493 2.93702 59.6408 3.08355C59.4034 3.02956 59.074 3.00643 58.668 3.00643V4.34062H63.5092V3.00643L63.4939 3.01414Z" fill="#1F225B"/>
<path d="M74.7172 1.87305H72.1816V15.5157H74.7172V1.87305Z" fill="#1F225B"/>
<path d="M97.1615 13.4952H91.7228V1.87305H89.1873V14.2355C89.1873 16.7265 88.383 17.9682 86.782 17.9682C85.0278 17.9682 84.1469 16.7265 84.1469 14.2355C84.1469 13.0479 84.3307 11.8062 84.6907 10.526L82.0709 11.0042C81.7645 12.1224 81.6113 13.2792 81.6113 14.4592C81.6113 18.1224 83.2659 19.9579 86.5675 19.9579C89.5243 19.9579 91.2096 18.4772 91.6232 15.508H99.6894V6.41546H97.1539V13.5029L97.1615 13.4952Z" fill="#1F225B"/>
<path d="M95.1857 17.0967C94.8333 17.0967 94.5345 17.2278 94.2818 17.4823C94.0366 17.7445 93.9141 18.053 93.9141 18.4077C93.9141 18.7625 94.0366 19.0941 94.2818 19.3409C94.5269 19.5954 94.8256 19.7188 95.1857 19.7188C95.5457 19.7188 95.8521 19.5877 96.1049 19.3332C96.35 19.0787 96.4726 18.7702 96.4726 18.4077C96.4726 18.0453 96.35 17.7291 96.1049 17.4746C95.8521 17.2201 95.5457 17.0967 95.1857 17.0967Z" fill="#1F225B"/>
<path d="M98.3712 17.0967C98.0188 17.0967 97.7201 17.2278 97.4673 17.4823C97.2222 17.7445 97.0996 18.053 97.0996 18.4077C97.0996 18.7625 97.2222 19.0941 97.4673 19.3409C97.7124 19.5954 98.0112 19.7188 98.3712 19.7188C98.7312 19.7188 99.0223 19.5877 99.2751 19.3332C99.5202 19.071 99.6428 18.7702 99.6428 18.4077C99.6428 18.0453 99.5202 17.7291 99.2751 17.4746C99.03 17.2201 98.7312 17.0967 98.3712 17.0967Z" fill="#1F225B"/>
<path d="M132.383 2.6981C132.137 2.43589 131.839 2.3125 131.479 2.3125C131.119 2.3125 130.828 2.44361 130.575 2.6981C130.33 2.9526 130.207 3.2688 130.207 3.63127C130.207 3.99373 130.33 4.30222 130.575 4.55672C130.82 4.81893 131.119 4.94232 131.479 4.94232C131.839 4.94232 132.13 4.81121 132.383 4.55672C132.628 4.30222 132.75 3.99373 132.75 3.63127C132.75 3.2688 132.628 2.94489 132.383 2.6981Z" fill="#1F225B"/>
<path d="M128.293 4.95013C128.653 4.95013 128.96 4.81903 129.212 4.56453C129.457 4.31003 129.58 4.00155 129.58 3.63908C129.58 3.27661 129.457 2.9527 129.212 2.70592C128.96 2.44371 128.653 2.32031 128.293 2.32031C127.933 2.32031 127.642 2.45142 127.389 2.70592C127.144 2.96042 127.021 3.27661 127.021 3.63908C127.021 4.00155 127.144 4.31003 127.389 4.56453C127.634 4.82674 127.933 4.95013 128.293 4.95013Z" fill="#1F225B"/>
<path d="M128.99 13.4953H124.677V10.611C124.677 7.64185 123.23 6.16113 120.334 6.16113C118.748 6.16113 117.492 6.63928 116.581 7.58787C115.753 8.45933 115.34 9.54674 115.34 10.8578C115.34 11.8372 115.14 12.5236 114.75 12.9323C114.39 13.3025 113.838 13.4876 113.087 13.4876H111.563V6.8398C110.391 6.3925 109.051 6.16884 107.549 6.16884C105.879 6.16884 104.585 6.66242 103.673 7.64185C102.861 8.52103 102.455 9.65471 102.455 11.0197C102.455 14.012 104.171 15.5082 107.603 15.5082H109.104V15.8012C109.104 17.5133 107.993 18.3694 105.772 18.3694C104.776 18.3694 103.78 18.2614 102.777 18.0377L102.616 20.1277C103.604 20.2974 104.577 20.3822 105.542 20.3822C107.58 20.3822 109.119 19.9118 110.161 18.9632C111.096 18.1226 111.563 16.9812 111.563 15.5467V15.5082H113.44C115.048 15.4928 116.044 14.9915 116.427 13.9966C117.232 15.0069 118.664 15.5082 120.732 15.5082H131.518V6.41563H128.982V13.503L128.99 13.4953ZM109.104 13.4953H107.879C105.948 13.4953 104.991 12.593 104.991 10.7807C104.991 10.0095 105.19 9.39249 105.603 8.90663C106.017 8.41306 106.576 8.16627 107.281 8.16627C107.986 8.16627 108.622 8.28196 109.112 8.51332V13.4799L109.104 13.4953ZM122.203 13.4953H120.74C118.817 13.4953 117.86 12.593 117.86 10.7807C117.86 10.0095 118.059 9.39249 118.457 8.90663C118.879 8.41306 119.438 8.16627 120.142 8.16627C121.514 8.16627 122.195 9.08401 122.195 10.9118V13.4799L122.203 13.4953Z" fill="#1F225B"/>
<path d="M22.6816 23.8906H29.415V25.3405H26.8718V31.8341H25.2172V25.3405H22.6893V23.8906H22.6816Z" fill="#919094"/>
<path d="M34.5402 23.8906L37.5583 31.8341H35.8884L35.1837 29.9215H32.2268L31.5298 31.8341H29.8828L32.9009 23.8906H34.5326H34.5402ZM32.7401 28.5256H34.6704L33.7053 25.8881L32.7401 28.5256Z" fill="#919094"/>
<path d="M42.7743 31.8341L40.821 26.6438V31.8341H39.2812V23.8906H41.2346L43.3412 29.4896L45.4324 23.8906H47.3628V31.8341H45.8077V26.6438L43.8927 31.8341H42.7743Z" fill="#919094"/>
<path d="M54.6639 23.8906L56.0274 29.2351L57.322 23.8906H58.9383L56.8854 31.8341H55.384L53.9975 26.5976L52.611 31.8341H51.1096L49.0566 23.8906H50.7112L51.9982 29.2351L53.3847 23.8906H54.6716H54.6639Z" fill="#919094"/>
<path d="M65.9853 23.8906V25.3405H62.2472V27.0757H65.6406V28.487H62.2472V30.3765H65.9853V31.8418H60.6309V23.8983H65.9853V23.8906Z" fill="#919094"/>
<path d="M73.3838 23.8906V25.3405H69.6456V27.0757H73.0391V28.487H69.6456V30.3765H73.3838V31.8418H68.0293V23.8983H73.3838V23.8906Z" fill="#919094"/>
<path d="M75.4297 23.8906H77.0766V30.3688H80.7535V31.8341H75.4373V23.8906H75.4297Z" fill="#919094"/>
<path d="M90.298 23.8906L93.3162 31.8341H91.6462L90.9415 29.9215H87.9846L87.2876 31.8341H85.6406L88.6587 23.8906H90.2904H90.298ZM88.4979 28.5256H90.4283L89.4631 25.8881L88.4979 28.5256Z" fill="#919094"/>
<path d="M95.0391 23.8906H96.686V30.3688H100.363V31.8341H95.0467V23.8906H95.0391Z" fill="#919094"/>
<path d="M105.336 31.9654C103.138 31.9654 101.613 30.2302 101.613 27.8626C101.613 25.495 103.145 23.7598 105.336 23.7598C107.527 23.7598 109.074 25.4796 109.074 27.8626C109.074 30.2456 107.535 31.9654 105.336 31.9654ZM105.336 25.2405C104.088 25.2405 103.283 26.3125 103.283 27.8703C103.283 29.4281 104.095 30.5001 105.336 30.5001C106.577 30.5001 107.42 29.4281 107.42 27.8703C107.42 26.3125 106.6 25.2405 105.336 25.2405Z" fill="#919094"/>
<path d="M110.873 28.6413V23.8906H112.52V28.4716C112.52 29.8289 113.11 30.4767 114.152 30.4767C115.193 30.4767 115.783 29.8289 115.783 28.4716V23.8906H117.43V28.6413C117.43 30.8238 116.136 31.9652 114.152 31.9652C112.168 31.9652 110.873 30.8238 110.873 28.6413Z" fill="#919094"/>
<path d="M119.598 23.8906H121.245V30.3688H124.921V31.8341H119.605V23.8906H119.598Z" fill="#919094"/>
<path d="M130.982 23.8906L134 31.8341H132.33L131.625 29.9215H128.668L127.971 31.8341H126.324L129.342 23.8906H130.974H130.982ZM129.181 28.5256H131.112L130.147 25.8881L129.181 28.5256Z" fill="#919094"/>
</g>
<defs>
<clipPath id="clip0_496_40971">
<rect width="134" height="33" fill="white" transform="translate(0 0.5)"/>
</clipPath>
</defs>
</svg>
