<svg width="204" height="164" viewBox="0 0 204 164" fill="none" xmlns="http://www.w3.org/2000/svg">
<g clip-path="url(#clip0_53596_7946)">
<path d="M151.773 159.071C150.987 159.509 150.125 159.762 149.287 160.068C146.613 161.042 143.866 161.775 141.092 162.396C139.804 162.685 138.51 162.97 137.193 163.132C136.257 163.247 135.333 163.451 134.398 163.577C133.703 163.671 132.995 163.674 132.3 163.77C131.492 163.881 130.673 163.856 129.875 163.963C129.169 164.057 128.472 164.079 127.77 164.082C125.675 164.091 123.581 164.089 121.487 164.08C121.165 164.078 120.844 164.014 120.522 163.976C120.442 163.966 120.361 163.928 120.283 163.935C119.356 164.016 118.449 163.793 117.529 163.754C116.91 163.728 116.292 163.641 115.676 163.562C115.007 163.477 114.341 163.378 113.675 163.272C112.982 163.162 112.289 163.048 111.599 162.919C109.526 162.53 107.476 162.043 105.443 161.491C103.692 161.015 101.964 160.462 100.258 159.842C99.1148 159.426 97.9363 159.107 96.773 158.746C95.2477 158.274 93.6747 158.002 92.1163 157.671C91.59 157.559 91.0471 157.524 90.5124 157.45C89.8182 157.354 89.1251 157.249 88.4303 157.157C88.2426 157.132 88.0509 157.134 87.8608 157.13C87.3198 157.119 86.7769 157.167 86.2455 156.992C86.0727 156.936 85.8679 156.97 85.6778 156.969C84.6714 156.968 83.665 156.963 82.6586 156.97C82.118 156.973 81.5756 156.925 81.0427 157.1C80.8449 157.165 80.6113 157.124 80.394 157.128C79.9071 157.138 79.4156 157.084 78.9427 157.264C78.8459 157.301 78.7274 157.291 78.6192 157.288C77.9364 157.274 77.2802 157.443 76.6162 157.562C75.9527 157.682 75.2881 157.796 74.6222 157.901C73.4983 158.078 72.4046 158.38 71.3069 158.668C69.3922 159.171 67.5179 159.796 65.6976 160.565C63.9488 161.305 62.1704 161.961 60.3475 162.487C58.9475 162.891 57.5398 163.276 56.0832 163.456C55.1205 163.574 54.1667 163.763 53.2078 163.913C53.0479 163.939 52.882 163.926 52.6609 163.855C52.6235 161.948 52.662 160.116 52.6622 158.284C52.6667 123.94 52.6665 89.5968 52.6682 55.2534C52.6682 54.7143 52.6691 54.1749 52.6875 53.6362C52.7698 51.2236 53.3986 48.9529 54.5738 46.8436C56.3078 43.7313 58.8188 41.4819 62.2048 40.2377C63.7801 39.6589 65.4147 39.4734 67.0893 39.4741C86.3982 39.4824 105.707 39.4793 125.016 39.4804C125.288 39.4805 125.559 39.4964 125.831 39.5716C125.758 39.9506 125.704 40.2682 125.61 40.5741C125.334 41.4729 125.023 42.3613 124.765 43.2647C124.551 44.0113 124.419 44.7766 124.31 45.5481C124.187 46.4229 124.021 47.2905 124.03 48.1786C124.034 48.5827 124.017 48.9872 124.031 49.3908C124.071 50.4894 123.972 51.5867 124.166 52.6887C124.291 53.3964 124.375 54.115 124.506 54.8259C124.908 57.0053 125.643 59.0723 126.58 61.0767C127.221 62.4485 128.033 63.7191 128.897 64.958C129.591 65.9521 130.339 66.9065 131.215 67.7519C132.011 68.5202 132.762 69.3309 133.639 70.0217C134.551 70.7398 135.437 71.4845 136.457 72.0537C136.787 72.2381 137.103 72.4475 137.432 72.6354C138.701 73.3625 140.001 74.0283 141.393 74.5024C143.031 75.0607 144.677 75.5728 146.407 75.8055C147.344 75.9315 148.27 76.1194 149.223 76.086C149.44 76.0785 149.673 76.0431 149.872 76.106C150.484 76.3003 151.111 76.2123 151.744 76.3264C151.758 76.7239 151.762 77.0471 151.762 77.3704C151.762 104.227 151.762 131.084 151.763 157.94C151.763 158.317 151.769 158.694 151.773 159.071ZM83.8016 141.599C98.2428 141.599 112.684 141.599 127.125 141.599C127.586 141.599 128.035 141.547 128.495 141.471C130.245 141.18 131.795 140.467 133.237 139.467C134.276 138.746 135.099 137.832 135.799 136.8C136.315 136.039 136.768 135.236 137.043 134.36C137.331 133.441 137.651 132.519 137.582 131.527C137.567 131.315 137.556 131.082 137.625 130.887C137.757 130.517 137.736 130.143 137.736 129.768C137.738 125.913 137.737 122.058 137.737 118.203C137.737 107.232 137.737 96.2598 137.735 85.288C137.735 84.8594 137.78 84.427 137.612 84.0097C137.564 83.8907 137.571 83.7424 137.581 83.6095C137.623 83.0397 137.539 82.4819 137.406 81.9334C137.279 81.4132 137.17 80.8782 136.957 80.3909C136.295 78.8744 135.449 77.484 134.195 76.3441C133.407 75.6275 132.573 74.9963 131.63 74.5193C130.087 73.7389 128.432 73.3391 126.701 73.3381C111.308 73.3295 95.9149 73.3345 80.5219 73.3295C79.5949 73.3292 78.6875 73.4623 77.7931 73.6696C76.9739 73.8595 76.1747 74.1444 75.4407 74.5497C74.7808 74.9141 74.133 75.3239 73.5543 75.8021C72.9322 76.3162 72.351 76.8958 71.8346 77.5147C71.1243 78.3659 70.6027 79.3371 70.1987 80.3758C69.7744 81.4663 69.5293 82.5859 69.5259 83.7483C69.514 87.8188 69.5204 91.8895 69.5205 95.9601C69.5207 107.741 69.5209 119.521 69.5224 131.302C69.5224 131.598 69.4951 131.902 69.5524 132.189C69.8006 133.428 70.1447 134.63 70.7264 135.775C71.4674 137.234 72.628 138.314 73.7856 139.412C75.7665 140.779 77.9155 141.642 80.3749 141.602C81.4625 141.585 82.5506 141.599 83.8016 141.599ZM118.074 153.733C123.023 153.732 127.972 153.728 132.921 153.738C133.502 153.74 134.041 153.633 134.59 153.455C135.573 153.137 136.28 152.473 136.866 151.698C137.686 150.615 137.756 149.315 137.518 148.06C137.26 146.702 136.375 145.704 135.166 145.016C134.467 144.618 133.702 144.504 132.897 144.504C113.345 144.511 93.7934 144.511 74.2414 144.504C73.6343 144.503 73.0607 144.581 72.4931 144.798C71.2045 145.291 70.3232 146.169 69.8158 147.441C69.5705 148.055 69.5162 148.682 69.5099 149.335C69.5028 150.063 69.6988 150.745 70.0512 151.338C70.9671 152.877 72.3118 153.739 74.1837 153.738C88.7593 153.728 103.335 153.732 118.074 153.733ZM106.185 49.6016C106.329 49.479 106.485 49.3679 106.615 49.232C108.14 47.6324 107.407 45.0324 105.26 44.4685C104.9 44.3739 104.508 44.3736 104.131 44.3731C99.7577 44.367 95.3847 44.3691 91.0116 44.3694C90.8215 44.3694 90.631 44.365 90.4413 44.3751C88.9385 44.4547 87.7478 45.661 87.6885 47.1607C87.6317 48.5963 88.7373 49.8867 90.2021 50.0702C90.6046 50.1206 91.0145 50.1301 91.421 50.1306C95.3052 50.1348 99.1893 50.1332 103.073 50.1331C103.481 50.133 103.889 50.1402 104.296 50.1295C104.926 50.1129 105.541 50.0258 106.185 49.6016ZM113.677 50.1019C113.84 50.0939 114.003 50.0904 114.165 50.0771C116.004 49.927 117.342 47.8504 116.399 45.96C115.826 44.8133 114.588 44.1998 113.274 44.3968C111.574 44.6518 110.447 46.3685 110.936 48.0008C111.317 49.2695 112.188 49.9774 113.677 50.1019Z" fill="#FFF9E5"/>
<path d="M182.315 47.0933C182.773 47.6588 183.252 48.2087 183.684 48.7927C185.002 50.5727 186.274 52.3858 187.421 54.2783C188.751 56.472 190.009 58.708 191.092 61.0335C192.481 64.0171 193.712 67.0639 194.701 70.203C195.413 72.4624 196.009 74.7529 196.491 77.0706C196.742 78.2793 196.95 79.4975 197.149 80.716C197.327 81.8016 197.474 82.8924 197.616 83.9832C197.693 84.5687 197.769 85.1582 197.782 85.7472C197.812 87.1194 198.009 88.4814 197.981 89.8583C197.942 91.7178 198.018 93.5811 197.932 95.4376C197.883 96.4787 197.878 97.5329 197.679 98.5667C197.649 98.7242 197.663 98.8895 197.644 99.0498C197.55 99.8489 197.46 100.649 197.353 101.446C197.245 102.244 197.131 103.042 196.998 103.836C196.829 104.842 196.668 105.851 196.451 106.848C195.857 109.584 195.128 112.284 194.217 114.934C193.569 116.819 192.874 118.688 192.044 120.504C191.472 121.754 190.927 123.019 190.295 124.239C189.315 126.13 188.286 127.995 187.146 129.801C185.717 132.063 184.186 134.25 182.546 136.362C181.933 137.15 181.258 137.89 180.622 138.66C178.846 140.813 176.858 142.768 174.833 144.683C173.793 145.666 172.685 146.58 171.578 147.489C170.513 148.364 169.422 149.21 168.317 150.036C166.777 151.187 165.172 152.245 163.534 153.256C161.965 154.225 160.348 155.106 158.724 155.979C157.719 156.52 156.687 156.993 155.572 157.38C155.497 153.789 155.494 150.269 155.494 146.749C155.494 146.589 155.513 146.428 155.586 146.264C155.808 146.229 155.971 146.208 156.126 146.164C157.23 145.845 157.871 145.121 158.027 143.99C158.063 143.724 158.072 143.453 158.072 143.185C158.075 137.851 158.075 132.518 158.071 127.185C158.071 126.835 158.051 126.484 158.007 126.138C157.915 125.431 157.545 124.881 156.97 124.467C156.541 124.159 156.052 124.012 155.513 123.908C155.498 120.297 155.495 116.762 155.494 113.227C155.494 113.04 155.521 112.854 155.601 112.665C157.128 112.446 157.94 111.598 158.059 110.157C158.074 109.97 158.073 109.781 158.073 109.593C158.074 105.373 158.075 101.152 158.071 96.9315C158.071 96.6099 158.058 96.2847 158.008 95.9677C157.854 94.9755 157.268 94.3144 156.336 93.9614C156.089 93.8676 155.807 93.8615 155.528 93.7441C155.508 93.5667 155.494 93.4603 155.494 93.3539C155.492 91.218 155.491 89.0822 155.494 86.9463C155.494 86.7336 155.522 86.521 155.603 86.306C157.124 86.0894 157.938 85.2412 158.057 83.8033C158.079 83.5365 158.073 83.2671 158.073 82.9989C158.075 79.5106 158.076 76.0224 158.149 72.5254C158.545 72.4717 158.867 72.4235 159.189 72.382C161.601 72.0723 163.92 71.4199 166.139 70.4474C171.334 68.1712 175.419 64.624 178.375 59.8143C179.841 57.4301 180.882 54.8725 181.517 52.1475C181.903 50.4894 182.121 48.8152 182.222 47.1165C182.254 47.1147 182.315 47.0933 182.315 47.0933Z" fill="#FDF0C8"/>
<path d="M48.9571 164.084C47.9513 164.08 46.944 164.108 45.9403 164.061C45.1586 164.024 44.3834 163.867 43.6018 163.809C42.7341 163.744 41.8824 163.592 41.0298 163.438C38.5427 162.988 36.1242 162.304 33.7539 161.426C31.9152 160.745 30.1553 159.906 28.432 158.991C26.5876 158.011 24.8582 156.848 23.184 155.603C21.1118 154.061 19.2428 152.298 17.4951 150.414C15.6909 148.47 14.1334 146.334 12.7418 144.077C11.9467 142.787 11.2347 141.456 10.5934 140.089C9.59664 137.964 8.7364 135.786 8.1621 133.507C7.90615 132.491 7.64732 131.475 7.44364 130.448C7.26109 129.528 7.14096 128.595 7.01455 127.665C6.9026 126.841 6.81723 126.013 6.72631 125.187C6.70575 125 6.70612 124.81 6.70483 124.622C6.69892 123.759 6.72062 122.896 6.68563 122.035C6.63951 120.9 6.76321 119.771 6.89443 118.656C7.24077 115.711 7.95042 112.845 9.0324 110.071C9.59162 108.638 10.2145 107.236 10.9318 105.876C11.9523 103.94 13.1361 102.105 14.4521 100.355C15.2631 99.2763 16.1519 98.261 17.0407 97.2435C17.9329 96.2222 18.89 95.2681 19.8778 94.3467C20.805 93.482 21.7846 92.6678 22.7837 91.8846C23.9109 91.0008 25.0588 90.1374 26.2475 89.3378C27.3466 88.5985 28.4953 87.9271 29.6519 87.278C30.7384 86.6681 31.841 86.0765 32.9775 85.5665C34.6851 84.8003 36.3938 84.0393 38.0605 83.1882C39.5832 82.4107 41.0545 81.5428 42.4615 80.579C43.7774 79.6775 45.0897 78.765 46.2882 77.7055C47.0777 77.0075 47.8832 76.3273 48.7686 75.6181C48.8557 75.597 48.9337 75.6024 48.9414 75.6775C48.9508 76.1297 48.9539 76.5068 48.9539 76.8839C48.9542 104.307 48.9541 131.731 48.9543 159.154C48.9543 160.798 48.9561 162.441 48.9571 164.084Z" fill="#FDF0C8"/>
<path d="M48.9264 68.3058C48.4996 68.3854 48.238 68.7262 47.9235 68.9657C45.5416 70.7795 42.8986 72.0511 39.9836 72.7541C39.1441 72.9566 38.287 73.084 37.427 73.2041C36.0693 73.3936 34.7122 73.3747 33.3621 73.2989C32.0132 73.2231 30.6771 72.9698 29.3692 72.601C26.9971 71.9322 24.7861 70.9232 22.7845 69.4943C21.418 68.5189 20.1628 67.4261 19.0549 66.1464C17.57 64.4311 16.387 62.5456 15.4924 60.4837C14.8919 59.0997 14.4807 57.6487 14.1975 56.1624C13.8731 54.4592 13.7771 52.7396 13.8979 51.021C14.0473 48.896 14.5042 46.8241 15.2831 44.8289C15.9639 43.0848 16.8988 41.4794 17.9919 39.9643C18.3695 39.4409 18.8037 38.9537 19.2448 38.48C20.5755 37.0512 22.0142 35.7461 23.6895 34.7127C24.9153 33.9565 26.1879 33.2988 27.5495 32.8195C28.6743 32.4235 29.8031 32.0389 30.9874 31.847C31.7089 31.73 32.432 31.6388 33.1599 31.5615C34.0004 31.4722 34.8387 31.4022 35.676 31.4567C37.5437 31.5784 39.3882 31.8411 41.1888 32.3891C43.6057 33.1248 45.8159 34.2623 47.8145 35.772C49.8152 37.2833 51.5094 39.0997 52.8395 41.2312C52.9677 41.4365 53.0875 41.6469 53.208 41.9681C53.109 42.2113 53.0152 42.3428 52.917 42.471C51.9782 43.6976 51.1945 45.0138 50.5864 46.4315C49.4902 48.987 48.9395 51.6492 48.9475 54.4303C48.9601 58.7872 48.951 63.1442 48.9494 67.5012C48.9493 67.7694 48.9344 68.0376 48.9264 68.3058Z" fill="#FDF0C8"/>
<path d="M48.9359 68.3829C48.9349 68.0377 48.9498 67.7695 48.9499 67.5013C48.9515 63.1443 48.9605 58.7874 48.948 54.4304C48.94 51.6494 49.4906 48.9871 50.5869 46.4317C51.195 45.014 51.9787 43.6978 52.9175 42.4712C53.0157 42.3429 53.1094 42.2114 53.2161 42.0267C53.4538 41.7437 53.689 41.5229 53.9063 41.286C56.4049 38.5618 59.4296 36.722 63.0707 35.9119C64.4011 35.6159 65.749 35.5025 67.1095 35.5028C70.8823 35.5037 74.6551 35.5033 78.4279 35.5025C78.7264 35.5024 79.0249 35.4956 79.4741 35.4927C80.0053 35.4953 80.3857 35.4988 80.7661 35.4988C96.1452 35.4991 111.524 35.4987 126.903 35.5011C127.255 35.5012 127.606 35.5331 127.955 35.6052C127.903 35.7805 127.865 35.9069 127.802 36.0202C127.377 36.7846 126.939 37.5415 126.524 38.3111C126.337 38.6595 126.185 39.0288 126.109 39.452C125.981 39.4814 125.906 39.4929 125.832 39.5044C125.561 39.4959 125.289 39.48 125.018 39.4799C105.709 39.4788 86.3998 39.4819 67.0909 39.4736C65.4163 39.4729 63.7817 39.6584 62.2064 40.2372C58.8204 41.4814 56.3094 43.7308 54.5755 46.8431C53.4003 48.9524 52.7714 51.2231 52.6891 53.6357C52.6707 54.1744 52.6698 54.7138 52.6698 55.2529C52.6681 89.5963 52.6683 123.94 52.6638 158.283C52.6636 160.116 52.6251 161.948 52.5929 163.856C51.4228 163.991 50.2643 164.051 49.0298 164.098C48.9528 162.441 48.951 160.798 48.9509 159.155C48.9508 131.731 48.9508 104.308 48.9506 76.8844C48.9506 76.5073 48.9475 76.1302 48.949 75.6319C48.9434 75.4804 48.9346 75.45 48.9258 75.4197C48.9335 74.0332 48.9437 72.6467 48.9481 71.2602C48.9512 70.3268 48.9462 69.3933 48.9359 68.3829Z" fill="#3D5A6B"/>
<path d="M127.959 35.5507C127.608 35.5337 127.256 35.5018 126.905 35.5017C111.526 35.4992 96.1467 35.4996 80.7676 35.4994C80.3872 35.4994 80.0068 35.4959 79.5508 35.4796C80.0173 35.0222 80.5377 34.5493 81.106 34.1423C82.4916 33.1499 83.8785 32.1566 85.3036 31.2217C87.2057 29.9738 89.161 28.8091 91.2053 27.7987C92.3468 27.2345 93.4786 26.6496 94.6336 26.1137C96.33 25.3266 98.0637 24.6264 99.8213 23.9812C101.604 23.3268 103.412 22.756 105.24 22.2432C107.092 21.7235 108.963 21.2777 110.854 20.9214C111.971 20.7111 113.089 20.5053 114.21 20.3205C114.797 20.2237 115.393 20.1775 115.984 20.1066C116.763 20.0133 117.541 19.9181 118.32 19.8237C118.374 19.8172 118.428 19.808 118.482 19.8049C119.537 19.7445 120.593 19.6439 121.649 19.6332C124.068 19.6088 126.489 19.5863 128.907 19.649C130.012 19.6776 131.126 19.7308 132.225 19.9112C132.759 19.9987 133.301 20.0291 133.839 20.0949C134.698 20.2001 135.556 20.313 136.415 20.423C137.948 20.6193 139.458 20.938 140.965 21.2676C141.943 21.4815 142.91 21.7412 143.888 22.0664C143.469 22.3897 143.05 22.6399 142.617 22.862C140.651 23.8701 138.907 25.1877 137.279 26.6578C136.175 27.6548 135.177 28.7534 134.269 29.9337C132.98 31.6084 131.856 33.3767 131.021 35.3184C130.991 35.3889 130.921 35.4429 130.795 35.5029C129.799 35.5177 128.879 35.5342 127.959 35.5507Z" fill="#FDF0C8"/>
<path d="M155.53 112.667C155.516 112.854 155.489 113.04 155.489 113.227C155.489 116.762 155.493 120.297 155.5 123.983C155.499 124.295 155.491 124.456 155.491 124.618C155.49 131.592 155.49 138.567 155.491 145.542C155.491 145.784 155.509 146.026 155.519 146.268C155.508 146.428 155.489 146.589 155.489 146.749C155.489 150.269 155.492 153.79 155.507 157.386C155.386 157.552 155.263 157.666 155.118 157.728C154.046 158.18 152.969 158.623 151.832 159.07C151.767 158.695 151.761 158.318 151.761 157.941C151.76 131.084 151.76 104.227 151.76 77.3708C151.76 77.0475 151.756 76.7243 151.759 76.2837C151.773 76.1372 151.784 76.1082 151.868 76.0806C152.476 76.0743 153.012 76.0991 153.541 76.0507C154.198 75.9907 154.849 75.8699 155.507 75.8501C155.513 77.32 155.514 78.7153 155.517 80.1106C155.521 82.1765 155.527 84.2425 155.532 86.3085C155.517 86.5211 155.489 86.7338 155.489 86.9465C155.486 89.0823 155.487 91.2182 155.488 93.3541C155.489 93.4604 155.503 93.5668 155.517 93.8244C155.522 100.126 155.521 106.276 155.52 112.426C155.52 112.506 155.527 112.587 155.53 112.667Z" fill="#3E5A6A"/>
<path d="M130.866 35.5034C130.917 35.4417 130.987 35.3878 131.017 35.3173C131.852 33.3755 132.976 31.6072 134.264 29.9326C135.172 28.7523 136.171 27.6536 137.275 26.6566C138.903 25.1866 140.647 23.8689 142.613 22.8609C143.046 22.6387 143.465 22.3886 143.928 22.1095C144.198 21.9965 144.44 21.9493 144.659 21.8507C146.926 20.8305 149.31 20.2131 151.757 19.8195C153.239 19.5812 154.736 19.6022 156.23 19.6183C158.469 19.6423 160.66 19.9909 162.808 20.608C164.508 21.0962 166.155 21.7206 167.724 22.5354C169.414 23.4126 171 24.4452 172.471 25.6521C174.517 27.3299 176.289 29.2544 177.757 31.4439C179.361 33.8388 180.553 36.4284 181.306 39.2097C181.426 39.6505 181.522 40.0974 181.577 40.5723C181.406 40.3829 181.289 40.1627 181.169 39.8867C180.793 38.8472 180.331 37.9084 179.815 36.9879C178.74 35.0691 177.425 33.3282 175.937 31.7141C174.89 30.5784 173.703 29.5897 172.464 28.6646C170.456 27.1638 168.274 25.9739 165.92 25.089C165.513 24.9362 165.147 24.9259 164.737 25.0719C163.485 25.5189 162.205 25.8745 160.91 26.1815C159.353 26.5507 157.793 26.8931 156.201 27.0814C155.313 27.1865 154.429 27.3213 153.541 27.4247C152.654 27.5279 151.765 27.6685 150.874 27.6871C148.862 27.7291 146.849 27.7075 144.837 27.7078C144.593 27.7078 144.346 27.6979 144.104 27.6676C143.489 27.5904 142.876 27.4991 142.285 27.4167C141.112 28.1213 140.024 28.8866 139.038 29.7726C137.851 30.8398 136.702 31.9489 135.691 33.1926C133.746 35.5851 132.239 38.2182 131.204 41.1132C130.687 42.5606 130.3 44.045 130.07 45.5643C129.937 46.4403 129.791 47.3214 129.76 48.204C129.704 49.844 129.639 51.49 129.922 53.185C129.912 53.4207 129.909 53.5923 129.86 53.7249C129.189 51.7963 128.874 49.8491 128.767 47.8704C128.717 46.9343 128.759 45.9935 128.751 45.0549C128.739 43.6857 128.911 42.3394 129.208 41.0034C129.318 40.5101 129.357 40.0015 129.464 39.4566C129.569 39.2701 129.653 39.1321 129.705 38.9831C130.038 38.028 130.366 37.0711 130.691 36.1133C130.759 35.9132 130.808 35.7069 130.866 35.5034Z" fill="#FFE9A0"/>
<path d="M129.906 53.7651C129.909 53.5935 129.913 53.422 129.963 53.2204C130.294 53.7421 130.557 54.3066 130.868 54.8426C131.397 55.75 131.907 56.6736 132.514 57.5284C133.467 58.8696 134.561 60.0967 135.736 61.2589C136.894 62.4042 138.157 63.4064 139.502 64.3211C141.349 65.5766 143.323 66.5892 145.431 67.3193C147.374 67.9921 149.358 68.5361 151.432 68.6504C151.486 68.6533 151.545 68.6513 151.593 68.6713C152.009 68.8445 152.448 68.8009 152.881 68.8031C153.643 68.8068 154.405 68.7897 155.166 68.8091C156.471 68.8425 157.761 68.7261 159.041 68.4789C160.289 68.2377 161.531 67.9696 162.742 67.5756C164.683 66.9437 166.536 66.1174 168.282 65.0646C169.65 64.2394 170.949 63.3073 172.143 62.2557C173.565 61.0042 174.867 59.6235 175.993 58.1018C176.826 56.9756 177.579 55.7884 178.218 54.5394C178.586 53.8201 178.932 53.0873 179.241 52.3415C179.622 51.423 179.954 50.4881 180.217 49.524C180.52 48.4089 180.768 47.2827 180.94 46.1467C181.053 45.4096 181.18 44.6674 181.161 43.906C181.128 42.5862 181.164 41.2647 181.171 39.9438C181.289 40.164 181.407 40.3841 181.565 40.6388C181.963 42.0518 182.118 43.4574 182.168 44.8756C182.19 45.5164 182.182 46.1582 182.177 46.9154C182.173 47.0603 182.18 47.0893 182.186 47.1184C182.117 48.8152 181.899 50.4894 181.513 52.1475C180.878 54.8725 179.837 57.43 178.371 59.8143C175.415 64.624 171.33 68.1711 166.135 70.4473C163.916 71.4198 161.597 72.0723 159.185 72.382C158.863 72.4234 158.541 72.4716 158.079 72.5272C157.134 72.5871 156.329 72.6365 155.45 72.6824C154.669 72.7274 153.974 72.6108 153.276 72.5317C152.768 72.474 152.257 72.4355 151.68 72.3827C150.892 72.2447 150.163 72.1451 149.451 71.9751C142.715 70.3665 137.351 66.7445 133.394 61.1106C131.817 58.8652 130.567 56.4477 129.906 53.7651Z" fill="#FFE48D"/>
<path d="M48.8905 75.439C48.9345 75.4508 48.9433 75.4811 48.9413 75.5576C48.9304 75.6037 48.8523 75.5983 48.8131 75.5952C48.7893 75.5403 48.8164 75.4954 48.8905 75.439Z" fill="#8BB9E4"/>
<path d="M182.223 47.1162C182.184 47.089 182.178 47.06 182.188 46.9896C182.249 46.9615 182.278 46.9904 182.303 47.0639C182.315 47.0929 182.255 47.1143 182.223 47.1162Z" fill="#97EA98"/>
<path d="M83.7197 141.599C82.5503 141.599 81.4622 141.584 80.3746 141.602C77.9152 141.641 75.7662 140.779 73.7853 139.412C72.6277 138.314 71.4671 137.233 70.7261 135.775C70.1444 134.63 69.8003 133.428 69.5521 132.188C69.4948 131.902 69.5222 131.597 69.5221 131.301C69.5206 119.521 69.5204 107.74 69.5202 95.9597C69.5202 91.8891 69.5137 87.8185 69.5256 83.7479C69.529 82.5856 69.7741 81.4659 70.1984 80.3754C70.6024 79.3367 71.124 78.3655 71.8343 77.5143C72.3507 76.8955 72.9319 76.3159 73.554 75.8018C74.1328 75.3235 74.7805 74.9137 75.4404 74.5493C76.1744 74.1441 76.9736 73.8592 77.7928 73.6693C78.6872 73.4619 79.5946 73.3288 80.5216 73.3291C95.9147 73.3341 111.308 73.3291 126.701 73.3377C128.431 73.3387 130.087 73.7386 131.63 74.519C132.573 74.9959 133.407 75.6271 134.195 76.3437C135.449 77.4836 136.294 78.874 136.957 80.3905C137.169 80.8778 137.278 81.4128 137.405 81.933C137.539 82.4815 137.623 83.0393 137.581 83.6091C137.571 83.742 137.564 83.8903 137.612 84.0093C137.78 84.4266 137.735 84.859 137.735 85.2876C137.737 96.2594 137.737 107.231 137.737 118.203C137.737 122.058 137.737 125.913 137.735 129.768C137.735 130.143 137.756 130.516 137.625 130.887C137.556 131.082 137.566 131.314 137.581 131.527C137.651 132.519 137.331 133.441 137.042 134.36C136.767 135.236 136.315 136.038 135.799 136.799C135.098 137.831 134.276 138.746 133.237 139.466C131.795 140.466 130.245 141.179 128.494 141.47C128.035 141.547 127.585 141.598 127.125 141.598C112.684 141.599 98.2425 141.599 83.7197 141.599ZM89.2002 110.042C98.0075 110.034 106.815 110.025 115.622 110.013C115.669 110.013 115.715 109.967 115.811 109.916C115.826 109.793 115.862 109.639 115.862 109.485C115.867 108.405 115.656 107.35 115.438 106.302C115.095 104.655 114.433 103.117 113.582 101.671C113.16 100.955 112.656 100.277 112.119 99.6405C111.547 98.9636 110.93 98.3188 110.236 97.7559C109.52 97.1757 108.785 96.6252 107.934 96.2494C107.576 96.0917 107.486 96.1108 107.249 96.4241C106.724 97.1177 106.13 97.7542 105.41 98.2395C103.779 99.3396 101.974 99.6585 100.055 99.2134C98.5522 98.8648 97.2938 98.072 96.3511 96.87C95.6065 95.9208 95.5937 96.0113 94.6571 96.5835C93.1438 97.5081 91.8483 98.6843 90.7559 100.083C89.7164 101.414 88.9481 102.886 88.3473 104.451C87.9015 105.614 87.6938 106.834 87.5043 108.052C87.4148 108.627 87.411 109.227 87.5097 109.771C87.7427 109.986 87.9745 110.041 88.2261 110.041C88.498 110.041 88.7698 110.042 89.2002 110.042ZM125.331 127.113C125.047 126.807 124.709 126.627 124.29 126.53C123.861 126.43 123.438 126.391 123.003 126.391C109.218 126.393 95.4327 126.393 81.6475 126.393C81.4572 126.393 81.2662 126.384 81.0766 126.396C80.5534 126.43 80.047 126.588 79.621 126.858C79.1146 127.179 78.6814 127.658 78.5728 128.252C78.4686 128.823 78.5409 129.426 78.5514 130.015C78.5532 130.114 78.6198 130.223 78.6835 130.307C79.0107 130.739 79.3771 131.131 79.841 131.427C80.2734 131.703 80.7478 131.736 81.2458 131.736C95.3029 131.731 109.36 131.732 123.417 131.732C123.553 131.732 123.69 131.743 123.825 131.728C124.011 131.708 124.202 131.687 124.38 131.633C125.146 131.4 125.724 130.953 126.027 130.195C126.198 129.768 126.379 129.344 126.296 128.87C126.181 128.222 125.979 127.616 125.331 127.113ZM108.118 115.542C100.422 115.542 92.7253 115.541 85.0289 115.542C84.7026 115.542 84.3728 115.519 84.0506 115.557C82.5375 115.732 81.5999 116.938 81.6427 118.338C81.6796 119.543 82.5566 120.516 83.7689 120.78C84.1614 120.865 84.5758 120.878 84.9803 120.879C94.2813 120.884 103.582 120.883 112.883 120.883C115.222 120.883 117.561 120.888 119.9 120.877C120.276 120.875 120.661 120.837 121.027 120.752C122.162 120.489 122.774 119.706 123.007 118.626C123.218 117.645 122.614 116.44 121.82 115.967C121.283 115.647 120.724 115.537 120.112 115.538C116.168 115.546 112.225 115.542 108.118 115.542ZM94.5044 90.2956C94.4997 90.8857 94.5371 91.467 94.6178 92.0574C94.7553 93.0634 95.065 93.9922 95.564 94.8633C95.9797 95.5888 96.4423 96.2921 97.0974 96.83C98.1128 97.6638 99.2384 98.2414 100.573 98.4683C101.856 98.6865 103.05 98.4924 104.221 98.0272C105.165 97.6519 105.953 97.0482 106.654 96.3115C107.797 95.1115 108.444 93.6623 108.652 92.0716C108.829 90.7176 108.744 89.3463 108.229 88.0221C107.696 86.6523 106.891 85.4895 105.731 84.6048C104.519 83.6806 103.108 83.2213 101.571 83.2126C101.143 83.2102 100.71 83.2844 100.287 83.3649C99.5111 83.5125 98.78 83.7765 98.1083 84.2101C97.3276 84.7139 96.6279 85.2934 96.1017 86.0623C95.5207 86.9115 95.0041 87.791 94.7977 88.8151C94.7079 89.2609 94.6144 89.7059 94.5044 90.2956Z" fill="white"/>
<path d="M117.99 153.732C103.333 153.732 88.7574 153.728 74.1819 153.737C72.3099 153.739 70.9652 152.877 70.0494 151.337C69.6969 150.745 69.5009 150.063 69.508 149.335C69.5144 148.681 69.5687 148.055 69.814 147.44C70.3214 146.169 71.2026 145.291 72.4912 144.798C73.0588 144.581 73.6325 144.503 74.2396 144.503C93.7915 144.511 113.343 144.511 132.895 144.504C133.7 144.504 134.465 144.618 135.164 145.016C136.373 145.704 137.258 146.702 137.516 148.059C137.755 149.315 137.684 150.614 136.865 151.698C136.278 152.473 135.571 153.137 134.589 153.455C134.039 153.632 133.5 153.739 132.919 153.738C127.97 153.727 123.021 153.732 117.99 153.732Z" fill="white"/>
<path d="M129.867 53.7262C130.573 56.4476 131.824 58.8652 133.401 61.1105C137.357 66.7445 142.721 70.3665 149.458 71.9751C150.17 72.1451 150.899 72.2447 151.691 72.4558C151.775 73.7161 151.789 74.8975 151.802 76.0789C151.792 76.108 151.781 76.137 151.754 76.2091C151.117 76.2125 150.49 76.3004 149.878 76.1062C149.679 76.0433 149.446 76.0786 149.229 76.0862C148.276 76.1196 147.35 75.9317 146.412 75.8056C144.683 75.573 143.036 75.0609 141.398 74.5026C140.007 74.0285 138.707 73.3627 137.437 72.6356C137.109 72.4476 136.793 72.2382 136.463 72.0539C135.443 71.4847 134.557 70.7399 133.645 70.0218C132.768 69.3311 132.017 68.5203 131.221 67.7521C130.345 66.9067 129.596 65.9523 128.903 64.9582C128.039 63.7193 127.227 62.4487 126.586 61.0769C125.649 59.0725 124.913 57.0054 124.512 54.826C124.381 54.1152 124.297 53.3966 124.172 52.6889C123.977 51.5869 124.076 50.4895 124.037 49.391C124.023 48.9874 124.04 48.5828 124.036 48.1788C124.027 47.2907 124.193 46.4231 124.316 45.5483C124.425 44.7768 124.557 44.0115 124.771 43.2649C125.029 42.3615 125.34 41.4731 125.616 40.5743C125.709 40.2684 125.764 39.9508 125.837 39.5718C125.91 39.4936 125.985 39.4821 126.187 39.4702C127.355 39.4803 128.395 39.4907 129.435 39.5012C129.364 40.0028 129.324 40.5114 129.215 41.0047C128.918 42.3407 128.746 43.687 128.758 45.0562C128.766 45.9948 128.724 46.9356 128.774 47.8717C128.881 49.8504 129.196 51.7976 129.867 53.7262Z" fill="white"/>
<path d="M106.14 49.6363C105.547 50.026 104.931 50.1132 104.301 50.1297C103.894 50.1404 103.486 50.1333 103.078 50.1333C99.1943 50.1334 95.3102 50.1351 91.426 50.1308C91.0195 50.1303 90.6097 50.1208 90.2071 50.0704C88.7423 49.8869 87.6367 48.5965 87.6935 47.1609C87.7528 45.6613 88.9435 44.4549 90.4463 44.3753C90.636 44.3652 90.8265 44.3696 91.0166 44.3696C95.3897 44.3693 99.7628 44.3672 104.136 44.3733C104.513 44.3738 104.905 44.3742 105.266 44.4688C107.412 45.0326 108.145 47.6326 106.62 49.2322C106.49 49.3682 106.334 49.4792 106.14 49.6363Z" fill="#3E5A6A"/>
<path d="M113.607 50.0972C112.191 49.9768 111.32 49.2689 110.939 48.0002C110.45 46.368 111.577 44.6513 113.277 44.3963C114.591 44.1992 115.83 44.8127 116.402 45.9595C117.345 47.8498 116.007 49.9265 114.168 50.0766C114.006 50.0899 113.843 50.0934 113.607 50.0972Z" fill="#3E5A6A"/>
<path d="M155.583 146.264C155.511 146.025 155.493 145.783 155.493 145.541C155.492 138.566 155.492 131.592 155.493 124.617C155.493 124.456 155.501 124.294 155.513 124.058C156.048 124.012 156.538 124.158 156.967 124.467C157.542 124.881 157.912 125.431 158.003 126.137C158.048 126.483 158.068 126.835 158.068 127.184C158.072 132.518 158.071 137.851 158.069 143.185C158.069 143.453 158.06 143.724 158.023 143.99C157.868 145.121 157.227 145.845 156.123 146.163C155.967 146.208 155.805 146.229 155.583 146.264Z" fill="#F9C416"/>
<path d="M155.603 112.665C155.534 112.586 155.527 112.506 155.527 112.425C155.528 106.275 155.529 100.125 155.537 93.8947C155.809 93.861 156.09 93.8671 156.338 93.9609C157.27 94.3138 157.856 94.9749 158.01 95.9671C158.06 96.2842 158.073 96.6094 158.073 96.9309C158.077 101.151 158.076 105.372 158.075 109.593C158.075 109.781 158.076 109.97 158.061 110.157C157.942 111.598 157.13 112.446 155.603 112.665Z" fill="#1A2F3A"/>
<path d="M155.529 72.6846C156.334 72.6352 157.139 72.5859 158.01 72.5347C158.076 76.0211 158.076 79.5093 158.074 82.9976C158.074 83.2658 158.08 83.5352 158.058 83.802C157.939 85.2399 157.125 86.0881 155.603 86.3047C155.533 84.241 155.527 82.1751 155.523 80.1091C155.52 78.7138 155.519 77.3186 155.52 75.7714C155.525 74.6412 155.527 73.6629 155.529 72.6846Z" fill="#1A2F3A"/>
<path d="M129.464 39.4573C128.387 39.4902 127.347 39.4798 126.233 39.4518C126.181 39.0289 126.333 38.6597 126.521 38.3112C126.936 37.5417 127.374 36.7848 127.798 36.0203C127.861 35.9071 127.9 35.7806 127.952 35.6053C128.874 35.5338 129.794 35.5173 130.79 35.5024C130.807 35.7076 130.758 35.9139 130.69 36.114C130.365 37.0718 130.037 38.0287 129.704 38.9838C129.652 39.1328 129.569 39.2708 129.464 39.4573Z" fill="#2B4754"/>
<path d="M155.456 72.6818C155.529 73.6635 155.527 74.6418 155.518 75.6973C154.857 75.8691 154.206 75.9898 153.549 76.0499C153.02 76.0983 152.483 76.0734 151.876 76.0797C151.789 74.8969 151.775 73.7155 151.758 72.461C152.264 72.4349 152.774 72.4734 153.283 72.531C153.981 72.6101 154.675 72.7267 155.456 72.6818Z" fill="#2B4754"/>
<path d="M181.173 39.8877C181.168 41.2644 181.132 42.586 181.165 43.9058C181.185 44.6671 181.057 45.4093 180.945 46.1464C180.772 47.2824 180.524 48.4087 180.221 49.5237C179.958 50.4879 179.626 51.4227 179.245 52.3413C178.936 53.087 178.59 53.8199 178.222 54.5392C177.583 55.7882 176.83 56.9754 175.997 58.1016C174.871 59.6232 173.569 61.004 172.147 62.2555C170.953 63.3071 169.654 64.2392 168.286 65.0643C166.54 66.1172 164.687 66.9435 162.746 67.5754C161.535 67.9694 160.293 68.2374 159.045 68.4786C157.765 68.7259 156.475 68.8423 155.17 68.8089C154.409 68.7894 153.647 68.8066 152.885 68.8028C152.452 68.8007 152.014 68.8442 151.597 68.6711C151.549 68.6511 151.49 68.6531 151.436 68.6501C149.362 68.5359 147.378 67.9919 145.435 67.3191C143.328 66.589 141.353 65.5764 139.506 64.3208C138.161 63.4062 136.899 62.404 135.74 61.2586C134.565 60.0964 133.471 58.8694 132.518 57.5282C131.911 56.6734 131.401 55.7498 130.873 54.8423C130.561 54.3064 130.299 53.7418 129.973 53.156C129.643 51.4911 129.709 49.845 129.765 48.205C129.795 47.3225 129.942 46.4414 130.074 45.5654C130.304 44.046 130.691 42.5616 131.209 41.1143C132.243 38.2193 133.75 35.5862 135.695 33.1936C136.706 31.95 137.855 30.8408 139.043 29.7736C140.028 28.8876 141.116 28.1223 142.29 27.4178C142.88 27.5001 143.494 27.5915 144.109 27.6686C144.351 27.699 144.597 27.7088 144.841 27.7088C146.854 27.7085 148.867 27.7302 150.878 27.6881C151.769 27.6695 152.658 27.529 153.545 27.4257C154.433 27.3224 155.318 27.1875 156.205 27.0825C157.797 26.8941 159.358 26.5517 160.914 26.1826C162.209 25.8755 163.489 25.5199 164.742 25.073C165.151 24.927 165.518 24.9373 165.924 25.0901C168.278 25.9749 170.46 27.1649 172.469 28.6656C173.707 29.5908 174.894 30.5795 175.941 31.7151C177.429 33.3292 178.745 35.0702 179.819 36.989C180.335 37.9094 180.798 38.8482 181.173 39.8877ZM168.25 39.0855C168.132 38.7017 168.071 38.2885 167.886 37.939C167.016 36.2909 164.867 35.7958 163.335 36.8774C163.05 37.079 162.797 37.3302 162.548 37.5768C159.296 40.792 156.049 44.0118 152.798 47.2269C152.255 47.7631 152.151 47.7608 151.607 47.2254C150.508 46.143 149.417 45.0533 148.321 43.9686C148.128 43.7786 147.939 43.5821 147.727 43.4161C146.614 42.5458 145.058 42.5205 143.937 43.3441C142.792 44.1854 142.355 45.628 142.853 46.9472C143.048 47.4619 143.39 47.8756 143.779 48.2608C146.107 50.5635 148.429 52.8712 150.753 55.1771C150.849 55.2724 150.948 55.3647 151.043 55.4609C151.656 56.0802 152.74 56.0993 153.389 55.4332C153.521 55.2977 153.658 55.1667 153.793 55.0335C158.157 50.7116 162.521 46.3897 166.885 42.0678C167.039 41.9155 167.196 41.7661 167.345 41.6093C167.864 41.0639 168.202 40.4358 168.284 39.604C168.27 39.4736 168.255 39.3431 168.25 39.0855Z" fill="#F9C416"/>
<path d="M89.1259 110.042C88.7748 110.042 88.503 110.041 88.2311 110.041C87.9795 110.041 87.7476 109.986 87.5147 109.771C87.416 109.227 87.4198 108.627 87.5093 108.052C87.6988 106.833 87.9065 105.613 88.3523 104.451C88.953 102.885 89.7214 101.414 90.7609 100.083C91.8533 98.6841 93.1488 97.508 94.6621 96.5834C95.5987 96.0111 95.6115 95.9206 96.3561 96.8699C97.2988 98.0718 98.5572 98.8647 100.06 99.2133C101.979 99.6584 103.784 99.3394 105.415 98.2393C106.135 97.7541 106.729 97.1175 107.254 96.4239C107.491 96.1106 107.581 96.0915 107.939 96.2493C108.79 96.625 109.525 97.1755 110.241 97.7557C110.935 98.3187 111.552 98.9634 112.124 99.6404C112.661 100.277 113.165 100.955 113.586 101.671C114.438 103.117 115.1 104.655 115.443 106.302C115.661 107.35 115.872 108.405 115.867 109.484C115.867 109.639 115.831 109.793 115.816 109.916C115.72 109.967 115.674 110.013 115.627 110.013C106.82 110.025 98.0125 110.033 89.1259 110.042Z" fill="#FDDE7A"/>
<path d="M125.38 127.156C125.985 127.617 126.188 128.222 126.302 128.871C126.386 129.345 126.204 129.769 126.034 130.195C125.73 130.954 125.152 131.401 124.387 131.633C124.208 131.688 124.018 131.708 123.831 131.729C123.696 131.743 123.559 131.732 123.423 131.732C109.366 131.732 95.3091 131.731 81.2521 131.736C80.7541 131.737 80.2796 131.704 79.8472 131.428C79.3833 131.132 79.017 130.739 78.6897 130.307C78.626 130.223 78.5594 130.114 78.5577 130.016C78.5471 129.427 78.4748 128.823 78.5791 128.253C78.6876 127.658 79.1208 127.18 79.6272 126.859C80.0532 126.589 80.5596 126.43 81.0829 126.396C81.2724 126.384 81.4634 126.394 81.6537 126.394C95.4389 126.393 109.224 126.394 123.009 126.392C123.444 126.392 123.867 126.431 124.296 126.531C124.715 126.628 125.054 126.807 125.38 127.156Z" fill="#FFF4CF"/>
<path d="M108.199 115.542C112.224 115.542 116.167 115.546 120.111 115.539C120.724 115.538 121.282 115.648 121.819 115.968C122.614 116.441 123.218 117.646 123.006 118.626C122.773 119.706 122.161 120.49 121.026 120.753C120.66 120.837 120.275 120.876 119.899 120.877C117.56 120.888 115.221 120.883 112.883 120.883C103.582 120.883 94.2806 120.884 84.9796 120.879C84.5752 120.879 84.1607 120.865 83.7683 120.78C82.5559 120.516 81.6789 119.543 81.642 118.338C81.5992 116.939 82.5368 115.733 84.0499 115.557C84.3722 115.52 84.7019 115.543 85.0282 115.542C92.7246 115.542 100.421 115.542 108.199 115.542Z" fill="#FADF85"/>
<path d="M94.5145 90.2238C94.6154 89.7063 94.7089 89.2612 94.7988 88.8154C95.0051 87.7913 95.5217 86.9119 96.1028 86.0627C96.6289 85.2937 97.3286 84.7142 98.1093 84.2104C98.7811 83.7768 99.5121 83.5128 100.288 83.3652C100.711 83.2848 101.144 83.2105 101.572 83.2129C103.109 83.2216 104.52 83.6809 105.732 84.6052C106.892 85.4899 107.697 86.6526 108.23 88.0224C108.745 89.3466 108.83 90.7179 108.653 92.072C108.445 93.6626 107.798 95.1118 106.656 96.3119C105.954 97.0485 105.166 97.6522 104.222 98.0275C103.051 98.4927 101.857 98.6868 100.574 98.4686C99.2394 98.2417 98.1138 97.6642 97.0985 96.8304C96.4434 96.2924 95.9808 95.5891 95.5651 94.8636C95.066 93.9925 94.7564 93.0637 94.6189 92.0578C94.5381 91.4673 94.5007 90.886 94.5145 90.2238Z" fill="#FDDE7A"/>
<path d="M168.237 39.6711C168.201 40.4355 167.862 41.0636 167.344 41.609C167.195 41.7658 167.038 41.9152 166.884 42.0675C162.52 46.3894 158.156 50.7113 153.792 55.0332C153.657 55.1665 153.52 55.2974 153.388 55.4329C152.739 56.099 151.655 56.08 151.042 55.4606C150.947 55.3644 150.848 55.2721 150.752 55.1768C148.428 52.8709 146.105 50.5632 143.778 48.2606C143.389 47.8753 143.046 47.4616 142.852 46.9469C142.354 45.6277 142.791 44.1851 143.936 43.3438C145.057 42.5202 146.613 42.5455 147.726 43.4158C147.938 43.5818 148.127 43.7783 148.319 43.9684C149.416 45.053 150.507 46.1427 151.606 47.2251C152.149 47.7605 152.254 47.7628 152.797 47.2266C156.048 44.0115 159.295 40.7917 162.547 37.5765C162.796 37.3299 163.049 37.0787 163.334 36.8771C164.866 35.7955 167.015 36.2906 167.885 37.9387C168.069 38.2882 168.131 38.7014 168.209 39.1778C168.09 39.4207 168.095 39.5571 168.237 39.6711Z" fill="#FDFEFD"/>
<path d="M168.259 39.6377C168.094 39.5574 168.089 39.4211 168.204 39.2417C168.253 39.3431 168.267 39.4736 168.259 39.6377Z" fill="#C4DCE7"/>
</g>
<defs>
<clipPath id="clip0_53596_7946">
<rect width="204" height="164" fill="white"/>
</clipPath>
</defs>
</svg>
