<svg width="136" height="122" viewBox="0 0 136 122" fill="none" xmlns="http://www.w3.org/2000/svg">
<path d="M11.0361 48.7662C8.10917 48.7662 5.30209 47.6035 3.23245 45.5337C1.16277 43.4641 0 40.657 0 37.73C0 34.8031 1.16272 31.996 3.23245 29.9263L27.9703 5.18846C30.04 3.11878 32.8471 1.95605 35.774 1.95605C38.701 1.95605 41.5081 3.11878 43.5778 5.18846C45.6475 7.25814 46.8102 10.0652 46.8102 12.9922C46.8102 15.9192 45.6475 18.7262 43.5778 20.7959L18.8399 45.5337C16.7702 47.6034 13.9631 48.7662 11.0361 48.7662Z" fill="#FFF9E7"/>
<path d="M19.7939 70.9228C16.867 70.9228 14.0599 69.7601 11.9902 67.6904C9.92053 65.6207 8.75781 62.8137 8.75781 59.8867C8.75781 56.9597 9.92058 54.1526 11.9902 52.083L60.8408 3.2324C62.9105 1.16272 65.7176 0 68.6446 0C71.5715 0 74.3786 1.16272 76.4483 3.2324C78.5179 5.30209 79.6807 8.10916 79.6807 11.0361C79.6807 13.963 78.518 16.7702 76.4483 18.8399L27.5977 67.6904C25.528 69.7601 22.7209 70.9228 19.7939 70.9228Z" fill="#FFF9E7"/>
<path d="M23.2705 98.3554C20.3436 98.3554 17.5365 97.1927 15.4668 95.123C13.3971 93.0533 12.2344 90.2462 12.2344 87.3193C12.2344 84.3923 13.3971 81.5852 15.4668 79.5155L88.2778 6.70462C90.3475 4.63494 93.1546 3.47217 96.0816 3.47217C99.0085 3.47217 101.816 4.63489 103.885 6.70462C105.955 8.77425 107.118 11.5814 107.118 14.5083C107.118 17.4353 105.955 20.2424 103.885 22.312L31.0742 95.123C29.0046 97.1927 26.1975 98.3554 23.2705 98.3554Z" fill="#FFF9E7"/>
<path d="M30.5518 122C27.6248 122 24.8177 120.837 22.748 118.768C20.6783 116.698 19.5156 113.891 19.5156 110.964C19.5156 108.037 20.6783 105.23 22.748 103.16L101.212 24.6963C103.282 22.6266 106.089 21.4639 109.016 21.4639C111.943 21.4639 114.75 22.6266 116.819 24.6963C118.889 26.766 120.052 29.573 120.052 32.5C120.052 35.427 118.889 38.234 116.819 40.3037L38.3555 118.768C36.2858 120.837 33.4787 122 30.5518 122Z" fill="#FFF9E7"/>
<path d="M62.3643 121.103C59.4373 121.103 56.6302 119.94 54.5605 117.87C52.4908 115.801 51.3281 112.993 51.3281 110.067C51.3281 107.14 52.4908 104.332 54.5605 102.263L111.022 45.8013C113.092 43.7316 115.899 42.5688 118.826 42.5688C121.753 42.5688 124.56 43.7316 126.629 45.8013C128.699 47.8709 129.862 50.678 129.862 53.605C129.862 56.532 128.699 59.339 126.629 61.4087L70.1679 117.87C68.0983 119.94 65.2912 121.103 62.3643 121.103Z" fill="#FFF9E7"/>
<path d="M100.161 114.211C97.2342 114.211 94.4271 113.048 92.3574 110.978C90.2877 108.908 89.125 106.101 89.125 103.174C89.125 100.248 90.2877 97.4404 92.3574 95.3707L117.095 70.6328C119.165 68.5631 121.972 67.4004 124.899 67.4004C127.826 67.4004 130.633 68.5631 132.703 70.6328C134.772 72.7025 135.935 75.5096 135.935 78.4365C135.935 81.3635 134.772 84.1706 132.703 86.2402L107.965 110.978C105.895 113.048 103.088 114.211 100.161 114.211Z" fill="#FFF9E7"/>
<path d="M20.485 29.3636L21.2485 28.6001C21.547 28.3016 21.547 27.8177 21.2485 27.5193C20.9501 27.2208 20.4662 27.2208 20.1677 27.5193L19.4042 28.2828L18.6406 27.5193C18.3422 27.2208 17.8582 27.2208 17.5598 27.5193C17.2613 27.8177 17.2613 28.3016 17.5598 28.6001L18.3233 29.3636L17.5598 30.1272C17.2613 30.4257 17.2613 30.9096 17.5598 31.208C17.709 31.3573 17.9046 31.4319 18.1002 31.4319C18.2958 31.4319 18.4914 31.3573 18.6406 31.208L19.4042 30.4445L20.1677 31.208C20.3169 31.3573 20.5126 31.4319 20.7081 31.4319C20.9037 31.4319 21.0993 31.3573 21.2485 31.208C21.547 30.9096 21.547 30.4257 21.2485 30.1272L20.485 29.3636Z" fill="#F9C416"/>
<path d="M98.8444 8.63268L99.608 7.86914C99.9064 7.57068 99.9064 7.08676 99.608 6.7883C99.3095 6.48984 98.8256 6.48984 98.5271 6.7883L97.7635 7.55184L97 6.7883C96.7015 6.48984 96.2176 6.48984 95.9192 6.7883C95.6207 7.08676 95.6207 7.57068 95.9192 7.86914L96.6827 8.63268L95.9192 9.39622C95.6207 9.69469 95.6207 10.1786 95.9192 10.4771C96.0684 10.6263 96.264 10.7009 96.4596 10.7009C96.6552 10.7009 96.8508 10.6263 97 10.4771L97.7635 9.71353L98.5271 10.4771C98.6764 10.6263 98.872 10.7009 99.0676 10.7009C99.2631 10.7009 99.4587 10.6263 99.608 10.4771C99.9064 10.1786 99.9064 9.69469 99.608 9.39622L98.8444 8.63268Z" fill="#F9C416"/>
<path d="M128.524 77.9222L129.288 77.1587C129.586 76.8602 129.586 76.3763 129.288 76.0779C128.989 75.7794 128.505 75.7794 128.207 76.0779L127.443 76.8414L126.68 76.0779C126.381 75.7794 125.897 75.7794 125.599 76.0779C125.3 76.3763 125.3 76.8602 125.599 77.1587L126.362 77.9222L125.599 78.6858C125.3 78.9843 125.3 79.4682 125.599 79.7667C125.748 79.9159 125.944 79.9905 126.139 79.9905C126.335 79.9905 126.53 79.9159 126.68 79.7667L127.443 79.0031L128.207 79.7667C128.356 79.9159 128.552 79.9905 128.747 79.9905C128.943 79.9905 129.138 79.9159 129.288 79.7667C129.586 79.4682 129.586 78.9843 129.288 78.6858L128.524 77.9222Z" fill="#F9C416"/>
<path d="M48.8053 116.95L49.5689 116.186C49.8673 115.888 49.8673 115.404 49.5689 115.105C49.2704 114.807 48.7865 114.807 48.488 115.105L47.7245 115.869L46.9609 115.105C46.6625 114.807 46.1786 114.807 45.8801 115.105C45.5816 115.404 45.5816 115.888 45.8801 116.186L46.6436 116.95L45.8801 117.713C45.5816 118.012 45.5816 118.496 45.8801 118.794C46.0293 118.943 46.2249 119.018 46.4205 119.018C46.6161 119.018 46.8117 118.943 46.9609 118.794L47.7245 118.03L48.488 118.794C48.6373 118.943 48.8329 119.018 49.0284 119.018C49.2241 119.018 49.4196 118.943 49.5689 118.794C49.8673 118.496 49.8673 118.012 49.5689 117.713L48.8053 116.95Z" fill="#F9C416"/>
<path d="M51.1075 7.05733C49.8765 7.05733 48.875 6.0558 48.875 4.82481C48.875 3.59376 49.8765 2.59229 51.1075 2.59229C52.3385 2.59229 53.34 3.59381 53.34 4.82481C53.34 6.05585 52.3386 7.05733 51.1075 7.05733ZM51.1075 4.12082C50.7193 4.12082 50.4035 4.43662 50.4035 4.82481C50.4035 5.21299 50.7193 5.52879 51.1075 5.52879C51.4957 5.52879 51.8115 5.21299 51.8115 4.82481C51.8115 4.43662 51.4957 4.12082 51.1075 4.12082Z" fill="#F9C416"/>
<path d="M8.76377 84.4265C7.53278 84.4265 6.53125 83.4249 6.53125 82.194C6.53125 80.963 7.53278 79.9614 8.76377 79.9614C9.99481 79.9614 10.9963 80.963 10.9963 82.194C10.9963 83.4249 9.99481 84.4265 8.76377 84.4265ZM8.76377 81.49C8.37558 81.49 8.05979 81.8058 8.05979 82.194C8.05979 82.5821 8.37558 82.8979 8.76377 82.8979C9.15196 82.8979 9.46776 82.5821 9.46776 82.194C9.46776 81.8058 9.15196 81.49 8.76377 81.49Z" fill="#F9C416"/>
<path d="M104.889 112.004C103.658 112.004 102.656 111.003 102.656 109.772C102.656 108.541 103.658 107.539 104.889 107.539C106.12 107.539 107.121 108.541 107.121 109.772C107.121 111.003 106.12 112.004 104.889 112.004ZM104.889 109.068C104.501 109.068 104.185 109.383 104.185 109.772C104.185 110.16 104.501 110.476 104.889 110.476C105.277 110.476 105.593 110.16 105.593 109.772C105.593 109.383 105.277 109.068 104.889 109.068Z" fill="#F9C416"/>
<path d="M124.24 41.4162C123.009 41.4162 122.008 40.4147 122.008 39.1837C122.008 37.9527 123.009 36.9512 124.24 36.9512C125.471 36.9512 126.473 37.9527 126.473 39.1837C126.473 40.4147 125.471 41.4162 124.24 41.4162ZM124.24 38.4797C123.852 38.4797 123.536 38.7955 123.536 39.1837C123.536 39.5719 123.852 39.8877 124.24 39.8877C124.629 39.8877 124.944 39.5719 124.944 39.1837C124.944 38.7955 124.629 38.4797 124.24 38.4797Z" fill="#F9C416"/>
<path d="M56.7098 84.503C55.6237 84.503 54.556 84.3311 53.5362 83.9923C51.966 83.4705 50.5328 82.5534 49.3916 81.3401C47.8518 79.703 46.1294 77.7554 44.306 75.6935L44.3034 75.6906C41.2424 72.2292 37.773 68.306 35.2339 65.9898C34.6056 65.4166 34.1039 64.7356 33.7427 63.9656C33.3816 63.1956 33.1787 62.3745 33.1397 61.5249C33.1007 60.6754 33.2275 59.8391 33.5166 59.0392C33.8057 58.2394 34.2428 57.5153 34.816 56.887C35.3892 56.2587 36.0702 55.757 36.8401 55.3959C37.6101 55.0347 38.4313 54.8318 39.2809 54.7929C39.3788 54.7884 39.4782 54.7861 39.5761 54.7861C41.1867 54.7861 42.729 55.3838 43.9187 56.4692C46.9686 59.2513 50.5213 63.2686 53.957 67.1537C54.6832 67.9749 55.3772 68.7597 56.0482 69.512C57.9617 65.8794 59.8445 62.6432 61.7917 59.639C63.8547 56.4562 65.9508 53.5942 68.1999 50.8894C71.8951 46.4454 75.949 42.5721 80.2493 39.3771C85.014 35.837 90.0692 33.1421 95.2747 31.3672C95.9456 31.1385 96.6452 31.0225 97.354 31.0225C98.3339 31.0225 99.3167 31.2509 100.196 31.6831C100.959 32.0582 101.631 32.5722 102.193 33.2108C102.754 33.8495 103.178 34.5814 103.453 35.3864C103.727 36.1913 103.839 37.0298 103.784 37.8785C103.73 38.7272 103.512 39.5445 103.137 40.3078C102.762 41.0711 102.248 41.7429 101.609 42.3045C100.971 42.8661 100.239 43.29 99.4336 43.5645C91.779 46.1745 84.405 51.5565 78.1087 59.1286C73.7547 64.3649 69.8144 70.6554 65.7082 78.9252C64.9675 80.4171 63.8615 81.7099 62.5099 82.6642C61.2317 83.5665 59.7349 84.1651 58.1814 84.395C57.6975 84.4666 57.2024 84.503 56.7098 84.503Z" fill="#F9C416"/>
<path d="M97.3519 31.5433C98.2493 31.5433 99.1435 31.7471 99.9641 32.1504C101.374 32.8432 102.45 34.0675 102.957 35.5541C103.464 37.0407 103.36 38.6677 102.667 40.0773C101.974 41.4869 100.75 42.5636 99.2632 43.0705C91.5179 45.7114 84.0634 51.1488 77.7058 58.7947C73.3251 64.063 69.3638 70.3857 65.2392 78.6928C64.5368 80.1074 63.4884 81.3332 62.2072 82.2377C60.9954 83.0932 59.5762 83.6607 58.103 83.8787C57.6411 83.9471 57.1743 83.9811 56.7078 83.9811C55.686 83.9811 54.6652 83.8182 53.6986 83.497C52.2102 83.0024 50.8515 82.1328 49.7693 80.9823C48.2343 79.3504 46.5137 77.4046 44.6919 75.3446C41.6223 71.8734 38.143 67.9391 35.5832 65.6041C34.4229 64.5455 33.7305 63.0695 33.6585 61.5005C33.5865 59.9315 34.1407 58.3982 35.1992 57.2379C36.2577 56.0775 37.7338 55.3852 39.3027 55.3131C39.3933 55.309 39.4838 55.3069 39.5741 55.3069C41.0474 55.3069 42.472 55.8564 43.5654 56.8538C46.5945 59.6171 50.1378 63.6238 53.5644 67.4985C54.4614 68.5129 55.333 69.4985 56.1589 70.4198C60.1794 62.7011 64.1739 56.5437 68.5988 51.2222C72.2675 46.8101 76.2913 42.9654 80.5583 39.7951C85.2795 36.2873 90.2867 33.6176 95.4409 31.8601C96.062 31.6483 96.7079 31.5433 97.3519 31.5433ZM97.3521 30.5005V31.5433L97.352 30.5005C96.5857 30.5005 95.8295 30.6259 95.1043 30.8732C89.8477 32.6655 84.7444 35.3857 79.9363 38.958C75.6028 42.1777 71.5186 46.0797 67.797 50.5554C65.5347 53.2763 63.4265 56.1546 61.3522 59.3549C59.5158 62.188 57.7371 65.2255 55.9367 68.6043C55.4222 68.0253 54.893 67.4269 54.3455 66.8078C50.9007 62.9124 47.3386 58.8844 44.2681 56.0834C43.6289 55.5003 42.8956 55.0463 42.0886 54.7339C41.2834 54.4222 40.4374 54.2642 39.5741 54.2642C39.4681 54.2642 39.3608 54.2666 39.255 54.2715C38.3366 54.3136 37.449 54.5329 36.6167 54.9233C35.7844 55.3137 35.0483 55.856 34.4288 56.5351C33.8092 57.2143 33.3367 57.997 33.0242 58.8615C32.7117 59.726 32.5746 60.63 32.6168 61.5484C32.659 62.4667 32.8783 63.3543 33.2687 64.1865C33.659 65.0188 34.2013 65.755 34.8805 66.3745C37.399 68.6719 40.8585 72.584 43.9108 76.0355L43.9127 76.0376C45.7391 78.1029 47.4643 80.0537 49.0098 81.6968C50.2101 82.9729 51.7177 83.9376 53.3698 84.4866C54.4426 84.8431 55.5657 85.0239 56.7078 85.0239C57.2258 85.0239 57.7466 84.9857 58.2557 84.9103C59.8896 84.6685 61.464 84.0389 62.8086 83.0896C64.2307 82.0856 65.3942 80.7256 66.1732 79.1566C70.2608 70.924 74.1802 64.6657 78.5076 59.4615C84.7424 51.9631 92.036 46.6365 99.5998 44.0575C100.47 43.7608 101.261 43.3026 101.951 42.6955C102.642 42.0885 103.197 41.3624 103.603 40.5373C104.008 39.7123 104.244 38.8288 104.303 37.9114C104.361 36.9941 104.241 36.0878 103.944 35.2177C103.647 34.3476 103.189 33.5564 102.582 32.866C101.975 32.1757 101.249 31.6201 100.424 31.2146C99.9459 30.9797 99.4406 30.7998 98.9219 30.6798C98.4079 30.5608 97.8797 30.5005 97.3521 30.5005Z" fill="#F9C416"/>
</svg>
